<svg xmlns="http://www.w3.org/2000/svg" xmlns:xlink="http://www.w3.org/1999/xlink" width="128" zoomAndPan="magnify" viewBox="0 0 96 95.999999" height="128" preserveAspectRatio="xMidYMid meet" version="1.0"><defs><clipPath id="c951295059"><path d="M 33.601562 33.601562 L 62.101562 33.601562 L 62.101562 62.101562 L 33.601562 62.101562 Z M 33.601562 33.601562 " clip-rule="nonzero"/></clipPath><clipPath id="6a3bbc9ce5"><path d="M 47.996094 33.601562 C 55.949219 33.601562 62.394531 40.046875 62.394531 47.996094 C 62.394531 55.949219 55.949219 62.394531 47.996094 62.394531 C 40.046875 62.394531 33.601562 55.949219 33.601562 47.996094 C 33.601562 40.046875 40.046875 33.601562 47.996094 33.601562 Z M 47.996094 33.601562 " clip-rule="nonzero"/></clipPath></defs><g clip-path="url(#c951295059)"><g clip-path="url(#6a3bbc9ce5)"><path stroke-linecap="butt" transform="matrix(0.75, 0, 0, 0.75, 33.599999, 33.599986)" fill="none" stroke-linejoin="miter" d="M 19.194794 0.00210252 C 29.798962 0.00210252 38.392712 8.595853 38.392712 19.194812 C 38.392712 29.798979 29.798962 38.39273 19.194794 38.39273 C 8.595835 38.39273 0.002085 29.798979 0.002085 19.194812 C 0.002085 8.595853 8.595835 0.00210252 19.194794 0.00210252 Z M 19.194794 0.00210252 " stroke="#000000" stroke-width="8" stroke-opacity="1" stroke-miterlimit="4"/></g></g></svg>