<svg xmlns="http://www.w3.org/2000/svg" xmlns:xlink="http://www.w3.org/1999/xlink" width="128" zoomAndPan="magnify" viewBox="0 0 96 95.999999" height="128" preserveAspectRatio="xMidYMid meet" version="1.0"><defs><clipPath id="9429d6759f"><path d="M 33.601562 33.601562 L 62.398438 33.601562 L 62.398438 62.398438 L 33.601562 62.398438 Z M 33.601562 33.601562 " clip-rule="nonzero"/></clipPath><clipPath id="f4070068cf"><path d="M 44.101562 33.601562 L 51.898438 33.601562 C 54.683594 33.601562 57.355469 34.707031 59.324219 36.675781 C 61.292969 38.644531 62.398438 41.316406 62.398438 44.101562 L 62.398438 51.898438 C 62.398438 54.683594 61.292969 57.355469 59.324219 59.324219 C 57.355469 61.292969 54.683594 62.398438 51.898438 62.398438 L 44.101562 62.398438 C 41.316406 62.398438 38.644531 61.292969 36.675781 59.324219 C 34.707031 57.355469 33.601562 54.683594 33.601562 51.898438 L 33.601562 44.101562 C 33.601562 41.316406 34.707031 38.644531 36.675781 36.675781 C 38.644531 34.707031 41.316406 33.601562 44.101562 33.601562 Z M 44.101562 33.601562 " clip-rule="nonzero"/></clipPath><clipPath id="f40d7dd4ea"><path d="M 33.601562 33.601562 L 62.101562 33.601562 L 62.101562 62.101562 L 33.601562 62.101562 Z M 33.601562 33.601562 " clip-rule="nonzero"/></clipPath><clipPath id="ad4e2ff17b"><path d="M 44.097656 33.601562 L 51.894531 33.601562 C 54.679688 33.601562 57.351562 34.707031 59.316406 36.675781 C 61.285156 38.644531 62.394531 41.3125 62.394531 44.097656 L 62.394531 51.894531 C 62.394531 54.679688 61.285156 57.351562 59.316406 59.316406 C 57.351562 61.285156 54.679688 62.394531 51.894531 62.394531 L 44.097656 62.394531 C 41.3125 62.394531 38.644531 61.285156 36.675781 59.316406 C 34.707031 57.351562 33.601562 54.679688 33.601562 51.894531 L 33.601562 44.097656 C 33.601562 41.3125 34.707031 38.644531 36.675781 36.675781 C 38.644531 34.707031 41.3125 33.601562 44.097656 33.601562 Z M 44.097656 33.601562 " clip-rule="nonzero"/></clipPath></defs><g clip-path="url(#9429d6759f)"><g clip-path="url(#f4070068cf)"><path fill="#000000" d="M 33.601562 33.601562 L 62.398438 33.601562 L 62.398438 62.398438 L 33.601562 62.398438 Z M 33.601562 33.601562 " fill-opacity="1" fill-rule="nonzero"/></g></g><g clip-path="url(#f40d7dd4ea)"><g clip-path="url(#ad4e2ff17b)"><path stroke-linecap="butt" transform="matrix(0.75, 0, 0, 0.75, 33.599999, 33.6)" fill="none" stroke-linejoin="miter" d="M 13.996877 0.002083 L 24.392711 0.002083 C 28.106253 0.002083 31.668753 1.476041 34.288545 4.101042 C 36.913545 6.726042 38.392712 10.283334 38.392712 13.996875 L 38.392712 24.392709 C 38.392712 28.106251 36.913545 31.668751 34.288545 34.288543 C 31.668753 36.913543 28.106253 38.39271 24.392711 38.39271 L 13.996877 38.39271 C 10.283336 38.39271 6.726044 36.913543 4.101044 34.288543 C 1.476043 31.668751 0.002085 28.106251 0.002085 24.392709 L 0.002085 13.996875 C 0.002085 10.283334 1.476043 6.726042 4.101044 4.101042 C 6.726044 1.476041 10.283336 0.002083 13.996877 0.002083 Z M 13.996877 0.002083 " stroke="#000000" stroke-width="8" stroke-opacity="1" stroke-miterlimit="4"/></g></g></svg>