<svg xmlns="http://www.w3.org/2000/svg" xmlns:xlink="http://www.w3.org/1999/xlink" width="128" zoomAndPan="magnify" viewBox="0 0 96 95.999999" height="128" preserveAspectRatio="xMidYMid meet" version="1.0"><defs><clipPath id="8628d36d81"><path d="M 33.601562 33.601562 L 62.398438 33.601562 L 62.398438 62.398438 L 33.601562 62.398438 Z M 33.601562 33.601562 " clip-rule="nonzero"/></clipPath><clipPath id="bb7dd54e8b"><path d="M 48 33.601562 C 55.953125 33.601562 62.398438 40.046875 62.398438 48 C 62.398438 55.953125 55.953125 62.398438 48 62.398438 C 40.046875 62.398438 33.601562 55.953125 33.601562 48 C 33.601562 40.046875 40.046875 33.601562 48 33.601562 Z M 48 33.601562 " clip-rule="nonzero"/></clipPath><clipPath id="62b4a474e4"><path d="M 33.601562 33.601562 L 62.101562 33.601562 L 62.101562 62.101562 L 33.601562 62.101562 Z M 33.601562 33.601562 " clip-rule="nonzero"/></clipPath><clipPath id="12b77768f3"><path d="M 47.996094 33.601562 C 55.949219 33.601562 62.394531 40.046875 62.394531 47.996094 C 62.394531 55.949219 55.949219 62.394531 47.996094 62.394531 C 40.046875 62.394531 33.601562 55.949219 33.601562 47.996094 C 33.601562 40.046875 40.046875 33.601562 47.996094 33.601562 Z M 47.996094 33.601562 " clip-rule="nonzero"/></clipPath></defs><g clip-path="url(#8628d36d81)"><g clip-path="url(#bb7dd54e8b)"><path fill="#000000" d="M 33.601562 33.601562 L 62.398438 33.601562 L 62.398438 62.398438 L 33.601562 62.398438 Z M 33.601562 33.601562 " fill-opacity="1" fill-rule="nonzero"/></g></g><g clip-path="url(#62b4a474e4)"><g clip-path="url(#12b77768f3)"><path stroke-linecap="butt" transform="matrix(0.75, 0, 0, 0.75, 33.599999, 33.6)" fill="none" stroke-linejoin="miter" d="M 19.194794 0.002083 C 29.798962 0.002083 38.392712 8.595833 38.392712 19.194792 C 38.392712 29.79896 29.798962 38.39271 19.194794 38.39271 C 8.595835 38.39271 0.002085 29.79896 0.002085 19.194792 C 0.002085 8.595833 8.595835 0.002083 19.194794 0.002083 Z M 19.194794 0.002083 " stroke="#000000" stroke-width="8" stroke-opacity="1" stroke-miterlimit="4"/></g></g></svg>