<!DOCTYPE svg PUBLIC "-//W3C//DTD SVG 1.1//EN" "http://www.w3.org/Graphics/SVG/1.1/DTD/svg11.dtd">
<!-- Uploaded to: SVG Repo, www.svgrepo.com, Transformed by: SVG Repo Mixer Tools -->
<svg width="256px" height="256px" viewBox="0 0 24 24" fill="none" xmlns="http://www.w3.org/2000/svg">
<g id="SVGRepo_bgCarrier" stroke-width="0"/>
<g id="SVGRepo_tracerCarrier" stroke-linecap="round" stroke-linejoin="round"/>
<g id="SVGRepo_iconCarrier"> <path d="M21.9292 6.76001L18.5592 20.29C18.3192 21.3 17.4192 22 16.3792 22H3.23915C1.72915 22 0.649169 20.5199 1.09917 19.0699L5.30916 5.55005C5.59916 4.61005 6.46917 3.95996 7.44917 3.95996H19.7492C20.6992 3.95996 21.4892 4.53997 21.8192 5.33997C22.0092 5.76997 22.0492 6.26001 21.9292 6.76001Z" stroke="#5956D6" stroke-width="1.5" stroke-miterlimit="10"/> <path opacity="0.4" d="M16 22H20.78C22.07 22 23.08 20.91 22.99 19.62L22 6" stroke="#5956D6" stroke-width="1.5" stroke-miterlimit="10" stroke-linecap="round" stroke-linejoin="round"/> <path d="M9.67969 6.38L10.7197 2.06006" stroke="#5956D6" stroke-width="1.5" stroke-miterlimit="10" stroke-linecap="round" stroke-linejoin="round"/> <path d="M16.3809 6.38977L17.3209 2.0498" stroke="#5956D6" stroke-width="1.5" stroke-miterlimit="10" stroke-linecap="round" stroke-linejoin="round"/> <path opacity="0.4" d="M7.69922 12H15.6992" stroke="#5956D6" stroke-width="1.5" stroke-miterlimit="10" stroke-linecap="round" stroke-linejoin="round"/> <path opacity="0.4" d="M6.69922 16H14.6992" stroke="#5956D6" stroke-width="1.5" stroke-miterlimit="10" stroke-linecap="round" stroke-linejoin="round"/> </g>
</svg>