<!DOCTYPE svg PUBLIC "-//W3C//DTD SVG 1.1//EN" "http://www.w3.org/Graphics/SVG/1.1/DTD/svg11.dtd">
<!-- Uploaded to: SVG Repo, www.svgrepo.com, Transformed by: SVG Repo Mixer Tools -->
<svg width="256px" height="256px" viewBox="0 0 24 24" fill="none" xmlns="http://www.w3.org/2000/svg">
<g id="SVGRepo_bgCarrier" stroke-width="0"/>
<g id="SVGRepo_tracerCarrier" stroke-linecap="round" stroke-linejoin="round"/>
<g id="SVGRepo_iconCarrier"> <g id="style=doutone"> <g id="wifi-threewave"> <path id="vector (Stroke)" fill-rule="evenodd" clip-rule="evenodd" d="M18.6417 12.4333C14.6117 9.32173 9.39841 9.32173 5.36842 12.4333C5.04056 12.6864 4.56956 12.6258 4.31642 12.298C4.06329 11.9701 4.12386 11.4991 4.45172 11.246C9.02173 7.71749 14.9884 7.71749 19.5584 11.246C19.8863 11.4991 19.9469 11.9701 19.6937 12.298C19.4406 12.6258 18.9696 12.6864 18.6417 12.4333Z" fill="#5956D6"/> <path id="vector (Stroke)_2" fill-rule="evenodd" clip-rule="evenodd" d="M21.5416 8.9532C15.7517 4.48174 8.24842 4.48174 2.45845 8.9532C2.13062 9.20638 1.65962 9.14586 1.40644 8.81803C1.15327 8.4902 1.21379 8.01919 1.54162 7.76602C7.87165 2.87747 16.1284 2.87747 22.4585 7.76602C22.7863 8.01919 22.8468 8.4902 22.5936 8.81803C22.3405 9.14586 21.8694 9.20638 21.5416 8.9532Z" fill="#000000"/> <path id="vector (Stroke)_3" fill-rule="evenodd" clip-rule="evenodd" d="M16.7408 16.0821C13.8612 13.8515 10.129 13.8515 7.24936 16.0821C6.92189 16.3358 6.4508 16.2759 6.19715 15.9485C5.9435 15.621 6.00333 15.1499 6.33079 14.8963C9.75117 12.2468 14.239 12.2468 17.6594 14.8963C17.9868 15.1499 18.0467 15.621 17.793 15.9485C17.5393 16.2759 17.0683 16.3358 16.7408 16.0821Z" fill="#000000"/> <path id="ellipse (Stroke)" fill-rule="evenodd" clip-rule="evenodd" d="M10 19C10 17.8954 10.8954 17 12 17H12.01C13.1146 17 14.01 17.8954 14.01 19C14.01 20.1046 13.1146 21 12.01 21H12C10.8954 21 10 20.1046 10 19Z" fill="#5956D6"/> </g> </g> </g>
</svg>