<svg xmlns="http://www.w3.org/2000/svg" xmlns:xlink="http://www.w3.org/1999/xlink" width="1080" zoomAndPan="magnify" viewBox="0 0 810 809.999993" height="1080" preserveAspectRatio="xMidYMid meet" version="1.0"><defs><g/><clipPath id="cce79d5eeb"><path d="M 0 144.894531 L 810 144.894531 L 810 684.894531 L 0 684.894531 Z M 0 144.894531 " clip-rule="nonzero"/></clipPath></defs><rect x="-81" width="972" fill="#ffffff" y="-80.999999" height="971.999992" fill-opacity="1"/><rect x="-81" width="972" fill="#ffffff" y="-80.999999" height="971.999992" fill-opacity="1"/><g clip-path="url(#cce79d5eeb)"><path fill="#ffffff" d="M 0 144.894531 L 810 144.894531 L 810 684.894531 L 0 684.894531 Z M 0 144.894531 " fill-opacity="1" fill-rule="nonzero"/></g><path stroke-linecap="round" transform="matrix(1.08, 0, 0, 1.08, 0.0000035, 144.895969)" fill="none" stroke-linejoin="miter" d="M 636.899624 157.290344 L 654.163079 152.248387 " stroke="#3e1a52" stroke-width="2.5" stroke-opacity="1" stroke-miterlimit="10"/><path stroke-linecap="round" transform="matrix(1.08, 0, 0, 1.08, 0.0000035, 144.895969)" fill="none" stroke-linejoin="miter" d="M 624.956625 122.123241 L 619.100867 138.486089 " stroke="#3e1a52" stroke-width="2.5" stroke-opacity="1" stroke-miterlimit="10"/><path stroke-linecap="round" transform="matrix(1.08, 0, 0, 1.08, 0.0000035, 144.895969)" fill="none" stroke-linejoin="miter" d="M 630.721961 145.285858 L 650.22066 123.942541 " stroke="#3e1a52" stroke-width="2.5" stroke-opacity="1" stroke-miterlimit="10"/><path fill="#cb6ce6" d="M 439.9375 567.523438 L 416.261719 553.855469 L 416.261719 581.191406 Z M 439.9375 567.523438 " fill-opacity="1" fill-rule="nonzero"/><path fill="#cb6ce6" d="M 471.898438 567.523438 L 448.21875 553.855469 L 448.21875 581.191406 Z M 471.898438 567.523438 " fill-opacity="1" fill-rule="nonzero"/><path fill="#cb6ce6" d="M 233.105469 210.078125 L 209.429688 196.40625 L 209.429688 223.746094 Z M 233.105469 210.078125 " fill-opacity="1" fill-rule="nonzero"/><path fill="#cb6ce6" d="M 265.070312 210.078125 L 241.390625 196.40625 L 241.390625 223.746094 Z M 265.070312 210.078125 " fill-opacity="1" fill-rule="nonzero"/><path stroke-linecap="round" transform="matrix(1.08, 0, 0, 1.08, 0.0000035, 144.895969)" fill="none" stroke-linejoin="miter" d="M 300.683606 119.189937 L 319.437223 119.189937 " stroke="#3e1a52" stroke-width="2.5" stroke-opacity="1" stroke-miterlimit="10"/><path stroke-linecap="round" transform="matrix(1.08, 0, 0, 1.08, 0.0000035, 144.895969)" fill="none" stroke-linejoin="miter" d="M 310.058606 128.568554 L 310.058606 109.814936 " stroke="#3e1a52" stroke-width="2.5" stroke-opacity="1" stroke-miterlimit="10"/><path stroke-linecap="round" transform="matrix(1.08, 0, 0, 1.08, 0.0000035, 144.895969)" fill="none" stroke-linejoin="miter" d="M 627.582494 257.228861 L 653.899046 257.228861 " stroke="#3e1a52" stroke-width="2.5" stroke-opacity="1" stroke-miterlimit="10"/><path stroke-linecap="round" transform="matrix(1.08, 0, 0, 1.08, 0.0000035, 144.895969)" fill="none" stroke-linejoin="miter" d="M 640.74077 270.387137 L 640.74077 244.070585 " stroke="#3e1a52" stroke-width="2.5" stroke-opacity="1" stroke-miterlimit="10"/><path stroke-linecap="round" transform="matrix(1.08, 0, 0, 1.08, 0.0000035, 144.895969)" fill="none" stroke-linejoin="miter" d="M 85.673468 343.607627 L 113.982931 343.607627 " stroke="#3e1a52" stroke-width="2.5" stroke-opacity="1" stroke-miterlimit="10"/><path stroke-linecap="round" transform="matrix(1.08, 0, 0, 1.08, 0.0000035, 144.895969)" fill="none" stroke-linejoin="miter" d="M 99.830008 357.76055 L 99.830008 329.451087 " stroke="#3e1a52" stroke-width="2.5" stroke-opacity="1" stroke-miterlimit="10"/><path stroke-linecap="round" transform="matrix(1.08, 0, 0, 1.08, 0.0000035, 144.895969)" fill="none" stroke-linejoin="miter" d="M 172.095636 94.410566 L 254.249865 94.410566 " stroke="#f74364" stroke-width="3.5" stroke-opacity="1" stroke-miterlimit="10"/><path stroke-linecap="round" transform="matrix(1.08, 0, 0, 1.08, 0.0000035, 144.895969)" fill="none" stroke-linejoin="miter" d="M 277.84651 392.128318 L 360.004355 392.128318 " stroke="#f74364" stroke-width="3.5" stroke-opacity="1" stroke-miterlimit="10"/><path stroke-linecap="round" transform="matrix(1.08, 0, 0, 1.08, 0.0000035, 144.895969)" fill="none" stroke-linejoin="miter" d="M 45.102719 130.771245 L 190.704578 130.771245 " stroke="#3e1a52" stroke-width="2.5" stroke-opacity="1" stroke-miterlimit="10"/><path stroke-linecap="round" transform="matrix(1.08, 0, 0, 1.08, 0.0000035, 144.895969)" fill="none" stroke-linejoin="miter" d="M 99.721501 212.075503 L 192.277929 212.075503 " stroke="#ffc300" stroke-width="3.5" stroke-opacity="1" stroke-miterlimit="10"/><path stroke-linecap="round" transform="matrix(1.08, 0, 0, 1.08, 0.0000035, 144.895969)" fill="none" stroke-linejoin="miter" d="M 123.998122 201.246509 L 168.554693 201.246509 " stroke="#3e1a52" stroke-width="2.5" stroke-opacity="1" stroke-miterlimit="10"/><path stroke-linecap="round" transform="matrix(1.08, 0, 0, 1.08, 0.0000035, 144.895969)" fill="none" stroke-linejoin="miter" d="M 546.34334 275.729296 L 582.895715 275.729296 " stroke="#3e1a52" stroke-width="2.5" stroke-opacity="1" stroke-miterlimit="10"/><path fill="#ffffff" d="M 562.609375 403.863281 L 604.167969 307.8125 C 604.167969 307.375 604.167969 307.15625 604.167969 307.1875 L 224.902344 307.1875 L 183.074219 403.863281 Z M 562.609375 403.863281 " fill-opacity="1" fill-rule="nonzero"/><path fill="#8c52ff" d="M 581.394531 455.296875 C 578.464844 452.976562 575.96875 450.085938 574.285156 446.734375 C 572.664062 443.507812 571.820312 439.964844 571.601562 436.367188 C 571.25 430.730469 572.269531 425.085938 573.953125 419.664062 L 219.644531 419.664062 L 177.8125 533.070312 L 553.027344 533.070312 L 583.953125 457.125 C 583.074219 456.550781 582.21875 455.949219 581.394531 455.296875 Z M 581.394531 455.296875 " fill-opacity="1" fill-rule="nonzero"/><path stroke-linecap="round" transform="matrix(1.08, 0, 0, 1.08, 0.0000035, 144.895969)" fill="none" stroke-linejoin="miter" d="M 143.800641 176.304378 L 212.434903 176.304378 " stroke="#ffc300" stroke-width="2.5" stroke-opacity="1" stroke-miterlimit="10"/><path stroke-linecap="butt" transform="matrix(1.08, 0, 0, 1.08, 0.0000035, 144.895969)" fill="none" stroke-linejoin="miter" d="M 539.619526 156.870783 C 539.619526 156.465691 539.619526 156.266761 539.619526 156.295697 L 188.447634 156.295697 L 149.714269 245.806696 L 188.447634 245.806696 L 149.714269 350.816106 L 501.135728 350.816106 L 539.619526 246.486673 C 539.619526 246.258809 539.619526 246.034561 539.619526 245.806696 " stroke="#3e1a52" stroke-width="2.5" stroke-opacity="1" stroke-miterlimit="10"/><g fill="#ffffff" fill-opacity="1"><g transform="translate(231.231232, 385.077159)"><g><path d="M 21.4375 0.546875 C 15.414062 0.546875 10.722656 -1.085938 7.359375 -4.359375 C 4.003906 -7.640625 2.328125 -12.234375 2.328125 -18.140625 C 2.328125 -24.535156 3.941406 -29.367188 7.171875 -32.640625 C 10.398438 -35.921875 15.191406 -37.5625 21.546875 -37.5625 C 25.410156 -37.5625 29.554688 -37.09375 33.984375 -36.15625 L 34.15625 -28.03125 L 32.328125 -28.03125 L 31.5 -32.859375 C 30.207031 -33.648438 28.707031 -34.257812 27 -34.6875 C 25.289062 -35.125 23.550781 -35.34375 21.78125 -35.34375 C 17.03125 -35.34375 13.5625 -33.945312 11.375 -31.15625 C 9.195312 -28.375 8.109375 -24.054688 8.109375 -18.203125 C 8.109375 -12.804688 9.25 -8.6875 11.53125 -5.84375 C 13.8125 -3 17.132812 -1.578125 21.5 -1.578125 C 23.601562 -1.578125 25.585938 -1.832031 27.453125 -2.34375 C 29.316406 -2.851562 30.796875 -3.53125 31.890625 -4.375 L 32.90625 -9.921875 L 34.71875 -9.921875 L 34.546875 -1.1875 C 30.484375 -0.03125 26.113281 0.546875 21.4375 0.546875 Z M 21.4375 0.546875 "/></g></g></g><g fill="#ffffff" fill-opacity="1"><g transform="translate(271.222194, 385.077159)"><g><path d="M 8.109375 -18.609375 C 8.109375 -12.648438 9.101562 -8.332031 11.09375 -5.65625 C 13.09375 -2.976562 16.21875 -1.640625 20.46875 -1.640625 C 24.695312 -1.640625 27.816406 -2.976562 29.828125 -5.65625 C 31.847656 -8.332031 32.859375 -12.648438 32.859375 -18.609375 C 32.859375 -24.546875 31.851562 -28.816406 29.84375 -31.421875 C 27.84375 -34.035156 24.71875 -35.34375 20.46875 -35.34375 C 16.207031 -35.34375 13.082031 -34.035156 11.09375 -31.421875 C 9.101562 -28.816406 8.109375 -24.546875 8.109375 -18.609375 Z M 2.328125 -18.609375 C 2.328125 -31.242188 8.375 -37.5625 20.46875 -37.5625 C 26.457031 -37.5625 30.984375 -35.957031 34.046875 -32.75 C 37.109375 -29.550781 38.640625 -24.835938 38.640625 -18.609375 C 38.640625 -12.296875 37.085938 -7.523438 33.984375 -4.296875 C 30.890625 -1.066406 26.382812 0.546875 20.46875 0.546875 C 14.582031 0.546875 10.085938 -1.0625 6.984375 -4.28125 C 3.878906 -7.5 2.328125 -12.273438 2.328125 -18.609375 Z M 2.328125 -18.609375 "/></g></g></g><g fill="#ffffff" fill-opacity="1"><g transform="translate(314.342657, 385.077159)"><g><path d="M 23.875 0 L 22.90625 0 L 9.3125 -31.9375 L 9.3125 -2.21875 L 14.296875 -1.46875 L 14.296875 0 L 1.640625 0 L 1.640625 -1.46875 L 6.40625 -2.21875 L 6.40625 -34.953125 L 1.640625 -35.6875 L 1.640625 -37.15625 L 12.875 -37.15625 L 24.953125 -8.890625 L 38.140625 -37.15625 L 48.78125 -37.15625 L 48.78125 -35.6875 L 44.015625 -34.953125 L 44.015625 -2.21875 L 48.78125 -1.46875 L 48.78125 0 L 33.71875 0 L 33.71875 -1.46875 L 38.703125 -2.21875 L 38.703125 -31.9375 Z M 23.875 0 "/></g></g></g><g fill="#ffffff" fill-opacity="1"><g transform="translate(366.934705, 385.077159)"><g><path d="M 12.140625 -2.21875 L 16.890625 -1.46875 L 16.890625 0 L 2.046875 0 L 2.046875 -1.46875 L 6.8125 -2.21875 L 6.8125 -34.953125 L 2.046875 -35.6875 L 2.046875 -37.15625 L 16.890625 -37.15625 L 16.890625 -35.6875 L 12.140625 -34.953125 Z M 12.140625 -2.21875 "/></g></g></g><g fill="#ffffff" fill-opacity="1"><g transform="translate(387.982494, 385.077159)"><g><path d="M 32 -34.953125 L 27.015625 -35.6875 L 27.015625 -37.15625 L 39.671875 -37.15625 L 39.671875 -35.6875 L 34.90625 -34.953125 L 34.90625 0 L 32.21875 0 L 9.3125 -33.40625 L 9.3125 -2.21875 L 14.296875 -1.46875 L 14.296875 0 L 1.640625 0 L 1.640625 -1.46875 L 6.40625 -2.21875 L 6.40625 -34.953125 L 1.640625 -35.6875 L 1.640625 -37.15625 L 12.875 -37.15625 L 32 -9.640625 Z M 32 -34.953125 "/></g></g></g><g fill="#ffffff" fill-opacity="1"><g transform="translate(431.102949, 385.077159)"><g><path d="M 35.5625 -1.9375 C 33.425781 -1.238281 31.203125 -0.648438 28.890625 -0.171875 C 26.585938 0.304688 24.101562 0.546875 21.4375 0.546875 C 15.414062 0.546875 10.722656 -1.078125 7.359375 -4.328125 C 4.003906 -7.578125 2.328125 -12.179688 2.328125 -18.140625 C 2.328125 -24.640625 3.957031 -29.5 7.21875 -32.71875 C 10.476562 -35.945312 15.253906 -37.5625 21.546875 -37.5625 C 26.054688 -37.5625 30.40625 -37.007812 34.59375 -35.90625 L 34.59375 -27.921875 L 32.75 -27.921875 L 32 -32.515625 C 30.71875 -33.421875 29.1875 -34.117188 27.40625 -34.609375 C 25.625 -35.097656 23.75 -35.34375 21.78125 -35.34375 C 17.050781 -35.34375 13.585938 -33.9375 11.390625 -31.125 C 9.203125 -28.3125 8.109375 -24.003906 8.109375 -18.203125 C 8.109375 -12.753906 9.234375 -8.617188 11.484375 -5.796875 C 13.742188 -2.984375 17.082031 -1.578125 21.5 -1.578125 C 23.050781 -1.578125 24.675781 -1.757812 26.375 -2.125 C 28.070312 -2.5 29.363281 -2.945312 30.25 -3.46875 L 30.25 -14.015625 L 25.484375 -14.734375 L 25.484375 -16.234375 L 39.203125 -16.234375 L 39.203125 -14.734375 L 35.5625 -14.015625 Z M 35.5625 -1.9375 "/></g></g></g><g fill="#3e1a52" fill-opacity="1"><g transform="translate(225.831218, 385.077159)"><g><path d="M 21.4375 0.546875 C 15.414062 0.546875 10.722656 -1.085938 7.359375 -4.359375 C 4.003906 -7.640625 2.328125 -12.234375 2.328125 -18.140625 C 2.328125 -24.535156 3.941406 -29.367188 7.171875 -32.640625 C 10.398438 -35.921875 15.191406 -37.5625 21.546875 -37.5625 C 25.410156 -37.5625 29.554688 -37.09375 33.984375 -36.15625 L 34.15625 -28.03125 L 32.328125 -28.03125 L 31.5 -32.859375 C 30.207031 -33.648438 28.707031 -34.257812 27 -34.6875 C 25.289062 -35.125 23.550781 -35.34375 21.78125 -35.34375 C 17.03125 -35.34375 13.5625 -33.945312 11.375 -31.15625 C 9.195312 -28.375 8.109375 -24.054688 8.109375 -18.203125 C 8.109375 -12.804688 9.25 -8.6875 11.53125 -5.84375 C 13.8125 -3 17.132812 -1.578125 21.5 -1.578125 C 23.601562 -1.578125 25.585938 -1.832031 27.453125 -2.34375 C 29.316406 -2.851562 30.796875 -3.53125 31.890625 -4.375 L 32.90625 -9.921875 L 34.71875 -9.921875 L 34.546875 -1.1875 C 30.484375 -0.03125 26.113281 0.546875 21.4375 0.546875 Z M 21.4375 0.546875 "/></g></g></g><g fill="#3e1a52" fill-opacity="1"><g transform="translate(265.822179, 385.077159)"><g><path d="M 8.109375 -18.609375 C 8.109375 -12.648438 9.101562 -8.332031 11.09375 -5.65625 C 13.09375 -2.976562 16.21875 -1.640625 20.46875 -1.640625 C 24.695312 -1.640625 27.816406 -2.976562 29.828125 -5.65625 C 31.847656 -8.332031 32.859375 -12.648438 32.859375 -18.609375 C 32.859375 -24.546875 31.851562 -28.816406 29.84375 -31.421875 C 27.84375 -34.035156 24.71875 -35.34375 20.46875 -35.34375 C 16.207031 -35.34375 13.082031 -34.035156 11.09375 -31.421875 C 9.101562 -28.816406 8.109375 -24.546875 8.109375 -18.609375 Z M 2.328125 -18.609375 C 2.328125 -31.242188 8.375 -37.5625 20.46875 -37.5625 C 26.457031 -37.5625 30.984375 -35.957031 34.046875 -32.75 C 37.109375 -29.550781 38.640625 -24.835938 38.640625 -18.609375 C 38.640625 -12.296875 37.085938 -7.523438 33.984375 -4.296875 C 30.890625 -1.066406 26.382812 0.546875 20.46875 0.546875 C 14.582031 0.546875 10.085938 -1.0625 6.984375 -4.28125 C 3.878906 -7.5 2.328125 -12.273438 2.328125 -18.609375 Z M 2.328125 -18.609375 "/></g></g></g><g fill="#3e1a52" fill-opacity="1"><g transform="translate(308.942643, 385.077159)"><g><path d="M 23.875 0 L 22.90625 0 L 9.3125 -31.9375 L 9.3125 -2.21875 L 14.296875 -1.46875 L 14.296875 0 L 1.640625 0 L 1.640625 -1.46875 L 6.40625 -2.21875 L 6.40625 -34.953125 L 1.640625 -35.6875 L 1.640625 -37.15625 L 12.875 -37.15625 L 24.953125 -8.890625 L 38.140625 -37.15625 L 48.78125 -37.15625 L 48.78125 -35.6875 L 44.015625 -34.953125 L 44.015625 -2.21875 L 48.78125 -1.46875 L 48.78125 0 L 33.71875 0 L 33.71875 -1.46875 L 38.703125 -2.21875 L 38.703125 -31.9375 Z M 23.875 0 "/></g></g></g><g fill="#3e1a52" fill-opacity="1"><g transform="translate(361.534691, 385.077159)"><g><path d="M 12.140625 -2.21875 L 16.890625 -1.46875 L 16.890625 0 L 2.046875 0 L 2.046875 -1.46875 L 6.8125 -2.21875 L 6.8125 -34.953125 L 2.046875 -35.6875 L 2.046875 -37.15625 L 16.890625 -37.15625 L 16.890625 -35.6875 L 12.140625 -34.953125 Z M 12.140625 -2.21875 "/></g></g></g><g fill="#3e1a52" fill-opacity="1"><g transform="translate(382.58248, 385.077159)"><g><path d="M 32 -34.953125 L 27.015625 -35.6875 L 27.015625 -37.15625 L 39.671875 -37.15625 L 39.671875 -35.6875 L 34.90625 -34.953125 L 34.90625 0 L 32.21875 0 L 9.3125 -33.40625 L 9.3125 -2.21875 L 14.296875 -1.46875 L 14.296875 0 L 1.640625 0 L 1.640625 -1.46875 L 6.40625 -2.21875 L 6.40625 -34.953125 L 1.640625 -35.6875 L 1.640625 -37.15625 L 12.875 -37.15625 L 32 -9.640625 Z M 32 -34.953125 "/></g></g></g><g fill="#3e1a52" fill-opacity="1"><g transform="translate(425.702935, 385.077159)"><g><path d="M 35.5625 -1.9375 C 33.425781 -1.238281 31.203125 -0.648438 28.890625 -0.171875 C 26.585938 0.304688 24.101562 0.546875 21.4375 0.546875 C 15.414062 0.546875 10.722656 -1.078125 7.359375 -4.328125 C 4.003906 -7.578125 2.328125 -12.179688 2.328125 -18.140625 C 2.328125 -24.640625 3.957031 -29.5 7.21875 -32.71875 C 10.476562 -35.945312 15.253906 -37.5625 21.546875 -37.5625 C 26.054688 -37.5625 30.40625 -37.007812 34.59375 -35.90625 L 34.59375 -27.921875 L 32.75 -27.921875 L 32 -32.515625 C 30.71875 -33.421875 29.1875 -34.117188 27.40625 -34.609375 C 25.625 -35.097656 23.75 -35.34375 21.78125 -35.34375 C 17.050781 -35.34375 13.585938 -33.9375 11.390625 -31.125 C 9.203125 -28.3125 8.109375 -24.003906 8.109375 -18.203125 C 8.109375 -12.753906 9.234375 -8.617188 11.484375 -5.796875 C 13.742188 -2.984375 17.082031 -1.578125 21.5 -1.578125 C 23.050781 -1.578125 24.675781 -1.757812 26.375 -2.125 C 28.070312 -2.5 29.363281 -2.945312 30.25 -3.46875 L 30.25 -14.015625 L 25.484375 -14.734375 L 25.484375 -16.234375 L 39.203125 -16.234375 L 39.203125 -14.734375 L 35.5625 -14.015625 Z M 35.5625 -1.9375 "/></g></g></g><g fill="#3e1a52" fill-opacity="1"><g transform="translate(226.189783, 497.444635)"><g><path d="M 4.953125 -12.84375 L 7.265625 -12.84375 L 8.515625 -6.40625 C 9.390625 -5.289062 10.898438 -4.304688 13.046875 -3.453125 C 15.191406 -2.597656 17.3125 -2.171875 19.40625 -2.171875 C 22.726562 -2.171875 25.316406 -3.019531 27.171875 -4.71875 C 29.035156 -6.414062 29.96875 -8.757812 29.96875 -11.75 C 29.96875 -13.457031 29.601562 -14.867188 28.875 -15.984375 C 28.15625 -17.097656 27.207031 -18.039062 26.03125 -18.8125 C 24.863281 -19.582031 23.53125 -20.234375 22.03125 -20.765625 C 20.539062 -21.304688 19.003906 -21.847656 17.421875 -22.390625 C 15.847656 -22.929688 14.3125 -23.535156 12.8125 -24.203125 C 11.320312 -24.867188 9.988281 -25.710938 8.8125 -26.734375 C 7.632812 -27.753906 6.679688 -29.015625 5.953125 -30.515625 C 5.234375 -32.023438 4.875 -33.882812 4.875 -36.09375 C 4.875 -39.894531 6.296875 -42.875 9.140625 -45.03125 C 11.992188 -47.1875 15.945312 -48.265625 21 -48.265625 C 24.84375 -48.265625 29.019531 -47.753906 33.53125 -46.734375 L 33.53125 -36.8125 L 31.21875 -36.8125 L 29.96875 -42.640625 C 27.550781 -44.398438 24.5625 -45.28125 21 -45.28125 C 17.820312 -45.28125 15.335938 -44.632812 13.546875 -43.34375 C 11.753906 -42.050781 10.859375 -40.265625 10.859375 -37.984375 C 10.859375 -36.441406 11.21875 -35.160156 11.9375 -34.140625 C 12.664062 -33.117188 13.613281 -32.242188 14.78125 -31.515625 C 15.957031 -30.796875 17.300781 -30.175781 18.8125 -29.65625 C 20.320312 -29.132812 21.863281 -28.59375 23.4375 -28.03125 C 25.019531 -27.476562 26.5625 -26.847656 28.0625 -26.140625 C 29.570312 -25.441406 30.914062 -24.550781 32.09375 -23.46875 C 33.269531 -22.394531 34.21875 -21.078125 34.9375 -19.515625 C 35.664062 -17.960938 36.03125 -16.050781 36.03125 -13.78125 C 36.03125 -9.175781 34.613281 -5.609375 31.78125 -3.078125 C 28.957031 -0.546875 24.890625 0.71875 19.578125 0.71875 C 17.015625 0.71875 14.4375 0.488281 11.84375 0.03125 C 9.257812 -0.414062 6.960938 -1.03125 4.953125 -1.8125 Z M 4.953125 -12.84375 "/></g></g></g><g fill="#3e1a52" fill-opacity="1"><g transform="translate(266.734595, 497.444635)"><g><path d="M 10.4375 -23.921875 C 10.4375 -16.253906 11.71875 -10.695312 14.28125 -7.25 C 16.84375 -3.8125 20.851562 -2.09375 26.3125 -2.09375 C 31.738281 -2.09375 35.742188 -3.8125 38.328125 -7.25 C 40.921875 -10.695312 42.21875 -16.253906 42.21875 -23.921875 C 42.21875 -31.535156 40.929688 -37.019531 38.359375 -40.375 C 35.785156 -43.738281 31.769531 -45.421875 26.3125 -45.421875 C 20.820312 -45.421875 16.800781 -43.738281 14.25 -40.375 C 11.707031 -37.019531 10.4375 -31.535156 10.4375 -23.921875 Z M 2.984375 -23.921875 C 2.984375 -40.148438 10.757812 -48.265625 26.3125 -48.265625 C 34 -48.265625 39.8125 -46.207031 43.75 -42.09375 C 47.6875 -37.976562 49.65625 -31.921875 49.65625 -23.921875 C 49.65625 -15.804688 47.660156 -9.671875 43.671875 -5.515625 C 39.691406 -1.359375 33.90625 0.71875 26.3125 0.71875 C 18.738281 0.71875 12.957031 -1.351562 8.96875 -5.5 C 4.976562 -9.644531 2.984375 -15.785156 2.984375 -23.921875 Z M 2.984375 -23.921875 "/></g></g></g><g fill="#3e1a52" fill-opacity="1"><g transform="translate(319.382336, 497.444635)"><g><path d="M 10.4375 -23.921875 C 10.4375 -16.253906 11.71875 -10.695312 14.28125 -7.25 C 16.84375 -3.8125 20.851562 -2.09375 26.3125 -2.09375 C 31.738281 -2.09375 35.742188 -3.8125 38.328125 -7.25 C 40.921875 -10.695312 42.21875 -16.253906 42.21875 -23.921875 C 42.21875 -31.535156 40.929688 -37.019531 38.359375 -40.375 C 35.785156 -43.738281 31.769531 -45.421875 26.3125 -45.421875 C 20.820312 -45.421875 16.800781 -43.738281 14.25 -40.375 C 11.707031 -37.019531 10.4375 -31.535156 10.4375 -23.921875 Z M 2.984375 -23.921875 C 2.984375 -40.148438 10.757812 -48.265625 26.3125 -48.265625 C 34 -48.265625 39.8125 -46.207031 43.75 -42.09375 C 47.6875 -37.976562 49.65625 -31.921875 49.65625 -23.921875 C 49.65625 -15.804688 47.660156 -9.671875 43.671875 -5.515625 C 39.691406 -1.359375 33.90625 0.71875 26.3125 0.71875 C 18.738281 0.71875 12.957031 -1.351562 8.96875 -5.5 C 4.976562 -9.644531 2.984375 -15.785156 2.984375 -23.921875 Z M 2.984375 -23.921875 "/></g></g></g><g fill="#3e1a52" fill-opacity="1"><g transform="translate(372.030076, 497.444635)"><g><path d="M 41.109375 -44.921875 L 34.703125 -45.84375 L 34.703125 -47.734375 L 50.984375 -47.734375 L 50.984375 -45.84375 L 44.859375 -44.921875 L 44.859375 0 L 41.40625 0 L 11.96875 -42.9375 L 11.96875 -2.84375 L 18.375 -1.890625 L 18.375 0 L 2.09375 0 L 2.09375 -1.890625 L 8.21875 -2.84375 L 8.21875 -44.921875 L 2.09375 -45.84375 L 2.09375 -47.734375 L 16.546875 -47.734375 L 41.109375 -12.390625 Z M 41.109375 -44.921875 "/></g></g></g><g fill="#ffffff" fill-opacity="1"><g transform="translate(218.629797, 497.444635)"><g><path d="M 4.953125 -12.84375 L 7.265625 -12.84375 L 8.515625 -6.40625 C 9.390625 -5.289062 10.898438 -4.304688 13.046875 -3.453125 C 15.191406 -2.597656 17.3125 -2.171875 19.40625 -2.171875 C 22.726562 -2.171875 25.316406 -3.019531 27.171875 -4.71875 C 29.035156 -6.414062 29.96875 -8.757812 29.96875 -11.75 C 29.96875 -13.457031 29.601562 -14.867188 28.875 -15.984375 C 28.15625 -17.097656 27.207031 -18.039062 26.03125 -18.8125 C 24.863281 -19.582031 23.53125 -20.234375 22.03125 -20.765625 C 20.539062 -21.304688 19.003906 -21.847656 17.421875 -22.390625 C 15.847656 -22.929688 14.3125 -23.535156 12.8125 -24.203125 C 11.320312 -24.867188 9.988281 -25.710938 8.8125 -26.734375 C 7.632812 -27.753906 6.679688 -29.015625 5.953125 -30.515625 C 5.234375 -32.023438 4.875 -33.882812 4.875 -36.09375 C 4.875 -39.894531 6.296875 -42.875 9.140625 -45.03125 C 11.992188 -47.1875 15.945312 -48.265625 21 -48.265625 C 24.84375 -48.265625 29.019531 -47.753906 33.53125 -46.734375 L 33.53125 -36.8125 L 31.21875 -36.8125 L 29.96875 -42.640625 C 27.550781 -44.398438 24.5625 -45.28125 21 -45.28125 C 17.820312 -45.28125 15.335938 -44.632812 13.546875 -43.34375 C 11.753906 -42.050781 10.859375 -40.265625 10.859375 -37.984375 C 10.859375 -36.441406 11.21875 -35.160156 11.9375 -34.140625 C 12.664062 -33.117188 13.613281 -32.242188 14.78125 -31.515625 C 15.957031 -30.796875 17.300781 -30.175781 18.8125 -29.65625 C 20.320312 -29.132812 21.863281 -28.59375 23.4375 -28.03125 C 25.019531 -27.476562 26.5625 -26.847656 28.0625 -26.140625 C 29.570312 -25.441406 30.914062 -24.550781 32.09375 -23.46875 C 33.269531 -22.394531 34.21875 -21.078125 34.9375 -19.515625 C 35.664062 -17.960938 36.03125 -16.050781 36.03125 -13.78125 C 36.03125 -9.175781 34.613281 -5.609375 31.78125 -3.078125 C 28.957031 -0.546875 24.890625 0.71875 19.578125 0.71875 C 17.015625 0.71875 14.4375 0.488281 11.84375 0.03125 C 9.257812 -0.414062 6.960938 -1.03125 4.953125 -1.8125 Z M 4.953125 -12.84375 "/></g></g></g><g fill="#ffffff" fill-opacity="1"><g transform="translate(259.17461, 497.444635)"><g><path d="M 10.4375 -23.921875 C 10.4375 -16.253906 11.71875 -10.695312 14.28125 -7.25 C 16.84375 -3.8125 20.851562 -2.09375 26.3125 -2.09375 C 31.738281 -2.09375 35.742188 -3.8125 38.328125 -7.25 C 40.921875 -10.695312 42.21875 -16.253906 42.21875 -23.921875 C 42.21875 -31.535156 40.929688 -37.019531 38.359375 -40.375 C 35.785156 -43.738281 31.769531 -45.421875 26.3125 -45.421875 C 20.820312 -45.421875 16.800781 -43.738281 14.25 -40.375 C 11.707031 -37.019531 10.4375 -31.535156 10.4375 -23.921875 Z M 2.984375 -23.921875 C 2.984375 -40.148438 10.757812 -48.265625 26.3125 -48.265625 C 34 -48.265625 39.8125 -46.207031 43.75 -42.09375 C 47.6875 -37.976562 49.65625 -31.921875 49.65625 -23.921875 C 49.65625 -15.804688 47.660156 -9.671875 43.671875 -5.515625 C 39.691406 -1.359375 33.90625 0.71875 26.3125 0.71875 C 18.738281 0.71875 12.957031 -1.351562 8.96875 -5.5 C 4.976562 -9.644531 2.984375 -15.785156 2.984375 -23.921875 Z M 2.984375 -23.921875 "/></g></g></g><g fill="#ffffff" fill-opacity="1"><g transform="translate(311.822351, 497.444635)"><g><path d="M 10.4375 -23.921875 C 10.4375 -16.253906 11.71875 -10.695312 14.28125 -7.25 C 16.84375 -3.8125 20.851562 -2.09375 26.3125 -2.09375 C 31.738281 -2.09375 35.742188 -3.8125 38.328125 -7.25 C 40.921875 -10.695312 42.21875 -16.253906 42.21875 -23.921875 C 42.21875 -31.535156 40.929688 -37.019531 38.359375 -40.375 C 35.785156 -43.738281 31.769531 -45.421875 26.3125 -45.421875 C 20.820312 -45.421875 16.800781 -43.738281 14.25 -40.375 C 11.707031 -37.019531 10.4375 -31.535156 10.4375 -23.921875 Z M 2.984375 -23.921875 C 2.984375 -40.148438 10.757812 -48.265625 26.3125 -48.265625 C 34 -48.265625 39.8125 -46.207031 43.75 -42.09375 C 47.6875 -37.976562 49.65625 -31.921875 49.65625 -23.921875 C 49.65625 -15.804688 47.660156 -9.671875 43.671875 -5.515625 C 39.691406 -1.359375 33.90625 0.71875 26.3125 0.71875 C 18.738281 0.71875 12.957031 -1.351562 8.96875 -5.5 C 4.976562 -9.644531 2.984375 -15.785156 2.984375 -23.921875 Z M 2.984375 -23.921875 "/></g></g></g><g fill="#ffffff" fill-opacity="1"><g transform="translate(364.470091, 497.444635)"><g><path d="M 41.109375 -44.921875 L 34.703125 -45.84375 L 34.703125 -47.734375 L 50.984375 -47.734375 L 50.984375 -45.84375 L 44.859375 -44.921875 L 44.859375 0 L 41.40625 0 L 11.96875 -42.9375 L 11.96875 -2.84375 L 18.375 -1.890625 L 18.375 0 L 2.09375 0 L 2.09375 -1.890625 L 8.21875 -2.84375 L 8.21875 -44.921875 L 2.09375 -45.84375 L 2.09375 -47.734375 L 16.546875 -47.734375 L 41.109375 -12.390625 Z M 41.109375 -44.921875 "/></g></g></g><path stroke-linecap="round" transform="matrix(1.08, 0, 0, 1.08, 0.0000035, 144.895969)" fill="none" stroke-linejoin="miter" d="M 543.453438 303.832596 L 616.250751 303.832596 " stroke="#f74364" stroke-width="3.5" stroke-opacity="1" stroke-miterlimit="10"/><path stroke-linecap="round" transform="matrix(1.08, 0, 0, 1.08, 0.0000035, 144.895969)" fill="none" stroke-linejoin="miter" d="M 537.930435 333.59967 L 677.289527 333.59967 " stroke="#f74364" stroke-width="3.5" stroke-opacity="1" stroke-miterlimit="10"/><path stroke-linecap="round" transform="matrix(1.08, 0, 0, 1.08, 0.0000035, 144.895969)" fill="none" stroke-linejoin="miter" d="M 387.633841 137.679521 L 461.469204 137.679521 " stroke="#ffc300" stroke-width="3.5" stroke-opacity="1" stroke-miterlimit="10"/><path fill="#ffffff" d="M 604.308594 542.785156 C 604.308594 542.785156 621.863281 507.101562 615.34375 476.871094 C 610.179688 452.9375 575.027344 439.410156 576.980469 426.554688 C 579.113281 412.539062 621.914062 407.605469 632.261719 389.675781 C 641.148438 374.269531 641.089844 330.34375 641.089844 330.34375 L 539.007812 313.691406 C 539.007812 313.691406 524.992188 355.320312 528.523438 372.753906 C 532.632812 393.042969 571.648438 411.324219 569.214844 425.289062 C 566.984375 438.101562 529.351562 439.753906 516.851562 460.804688 C 501.0625 487.394531 506.367188 526.808594 506.367188 526.808594 Z M 604.308594 542.785156 " fill-opacity="1" fill-rule="nonzero"/><path fill="#ffffff" d="M 590.015625 332.492188 C 590.015625 332.492188 616.941406 350.296875 625.617188 382.339844 C 635.410156 365.425781 632.292969 339.390625 632.292969 339.390625 Z M 590.015625 332.492188 " fill-opacity="1" fill-rule="nonzero"/><path fill="#ffffff" d="M 611.753906 543.800781 L 577.738281 538.253906 L 533 530.953125 L 498.980469 525.40625 C 490.695312 524.054688 482.878906 529.675781 481.527344 537.964844 L 480.464844 544.484375 L 529.488281 552.480469 L 574.226562 559.78125 L 623.25 567.777344 L 624.3125 561.257812 C 625.664062 552.96875 620.042969 545.152344 611.753906 543.800781 Z M 611.753906 543.800781 " fill-opacity="1" fill-rule="nonzero"/><path fill="#8c52ff" d="M 622.382812 310.59375 L 577.644531 303.296875 L 528.621094 295.296875 L 527.558594 301.816406 C 526.207031 310.105469 531.828125 317.921875 540.117188 319.273438 L 574.132812 324.820312 L 618.871094 332.121094 L 652.886719 337.667969 C 661.175781 339.019531 668.988281 333.398438 670.34375 325.109375 L 671.40625 318.589844 Z M 622.382812 310.59375 " fill-opacity="1" fill-rule="nonzero"/><path fill="#8c52ff" d="M 618.210938 550.253906 L 584.191406 544.707031 L 539.453125 537.40625 L 505.4375 531.859375 C 497.148438 530.507812 489.332031 536.128906 487.980469 544.417969 L 486.917969 550.9375 L 535.941406 558.933594 L 580.679688 566.234375 L 629.703125 574.230469 L 630.765625 567.710938 C 632.121094 559.421875 626.496094 551.609375 618.210938 550.253906 Z M 618.210938 550.253906 " fill-opacity="1" fill-rule="nonzero"/><path stroke-linecap="butt" transform="matrix(1.08, 0, 0, 1.08, 0.0000035, 144.895969)" fill="none" stroke-linejoin="miter" d="M 570.305292 147.448763 L 528.880955 140.68878 L 483.488881 133.284989 L 482.501468 139.321593 C 481.250021 146.996651 486.458355 154.230448 494.129796 155.481894 L 525.629363 160.621507 L 567.0537 167.377873 L 598.549651 172.517486 C 606.224709 173.768932 613.462123 168.564216 614.713569 160.889157 L 615.697366 154.852554 Z M 570.305292 147.448763 " stroke="#3e1a52" stroke-width="2.5" stroke-opacity="1" stroke-miterlimit="10"/><path stroke-linecap="butt" transform="matrix(1.08, 0, 0, 1.08, 0.0000035, 144.895969)" fill="none" stroke-linejoin="miter" d="M 566.438827 369.356326 L 534.942877 364.220331 L 493.51854 357.460348 L 462.018973 352.324352 C 454.347531 351.072905 447.110118 356.277622 445.858671 363.95268 L 444.874874 369.989284 L 490.266949 377.393075 L 531.691285 384.153058 L 577.083359 391.556848 L 578.067155 385.520245 C 579.318602 377.845187 574.113886 370.607773 566.438827 369.356326 Z M 566.438827 369.356326 " stroke="#3e1a52" stroke-width="2.5" stroke-opacity="1" stroke-miterlimit="10"/><path stroke-linecap="butt" transform="matrix(1.08, 0, 0, 1.08, 0.0000035, 144.895969)" fill="none" stroke-linejoin="miter" d="M 499.08133 156.29208 C 499.08133 156.29208 486.103899 194.837365 489.373575 210.979582 C 493.178552 229.765752 529.304132 246.692837 527.050805 259.623248 C 524.985556 271.486675 490.140357 273.016623 478.566282 292.508088 C 463.946779 317.128315 468.858527 353.622819 468.858527 353.622819 " stroke="#3e1a52" stroke-width="3.3" stroke-opacity="1" stroke-miterlimit="10"/><path stroke-linecap="butt" transform="matrix(1.08, 0, 0, 1.08, 0.0000035, 144.895969)" fill="none" stroke-linejoin="miter" d="M 593.601734 171.710917 C 593.601734 171.710917 593.655987 212.382939 585.423927 226.647986 C 575.84638 243.249549 536.216025 247.817692 534.241198 260.795123 C 532.429132 272.698336 564.981217 285.223654 569.762757 307.384391 C 575.79936 335.375567 559.541402 368.415933 559.541402 368.415933 " stroke="#3e1a52" stroke-width="3.3" stroke-opacity="1" stroke-miterlimit="10"/><path fill="#cb6ce6" d="M 536.996094 371.121094 C 536.46875 371.394531 536.292969 372.058594 536.609375 372.558594 C 538.308594 375.222656 543.640625 383.246094 550.996094 391.082031 C 559.378906 400.007812 570.214844 408.382812 576.207031 409.359375 C 592.351562 411.996094 624.539062 387.921875 625.082031 385.886719 C 603.210938 392.304688 595.585938 389.980469 575.363281 371.96875 C 561.480469 359.601562 541.566406 368.753906 536.996094 371.121094 Z M 536.996094 371.121094 " fill-opacity="1" fill-rule="nonzero"/><path fill="#cb6ce6" d="M 599.515625 536.621094 C 598.0625 522.507812 591.539062 480.355469 565.140625 476.046875 C 538.992188 471.78125 519.195312 509.164062 513.011719 522.507812 Z M 599.515625 536.621094 " fill-opacity="1" fill-rule="nonzero"/><path fill="#cb6ce6" d="M 583.402344 469.675781 C 582.933594 472.535156 580.238281 474.472656 577.382812 474.007812 C 574.523438 473.542969 572.585938 470.847656 573.050781 467.988281 C 573.519531 465.132812 576.210938 463.191406 579.070312 463.65625 C 581.929688 464.125 583.867188 466.820312 583.402344 469.675781 Z M 583.402344 469.675781 " fill-opacity="1" fill-rule="nonzero"/><path fill="#cb6ce6" d="M 562.84375 457.609375 C 562.488281 459.78125 560.441406 461.257812 558.269531 460.902344 C 556.097656 460.546875 554.625 458.5 554.980469 456.328125 C 555.332031 454.15625 557.382812 452.683594 559.554688 453.039062 C 561.726562 453.390625 563.199219 455.4375 562.84375 457.609375 Z M 562.84375 457.609375 " fill-opacity="1" fill-rule="nonzero"/><path fill="#cb6ce6" d="M 575.585938 443.328125 C 575.308594 445.042969 573.691406 446.207031 571.976562 445.925781 C 570.261719 445.648438 569.097656 444.03125 569.378906 442.316406 C 569.65625 440.601562 571.273438 439.4375 572.988281 439.714844 C 574.703125 439.996094 575.867188 441.613281 575.585938 443.328125 Z M 575.585938 443.328125 " fill-opacity="1" fill-rule="nonzero"/><path fill="#ffffff" d="M 586.304688 452.0625 C 586.304688 452.0625 603.070312 459.925781 608.261719 478.320312 C 612.59375 493.679688 608.707031 504.875 608.707031 504.875 C 608.707031 504.875 603.933594 485.253906 601.585938 479.210938 C 595.355469 463.1875 586.304688 452.0625 586.304688 452.0625 Z M 586.304688 452.0625 " fill-opacity="1" fill-rule="nonzero"/><path stroke-linecap="round" transform="matrix(1.08, 0, 0, 1.08, 0.0000035, 144.895969)" fill="none" stroke-linejoin="miter" d="M 40.154802 404.610235 L 141.030096 404.610235 " stroke="#ffc300" stroke-width="3.5" stroke-opacity="1" stroke-miterlimit="10"/><path stroke-linecap="round" transform="matrix(1.08, 0, 0, 1.08, 0.0000035, 144.895969)" fill="none" stroke-linejoin="miter" d="M 473.455605 448.074502 L 661.700696 448.074502 " stroke="#3e1a52" stroke-width="2.5" stroke-opacity="1" stroke-miterlimit="10"/><path stroke-linecap="butt" transform="matrix(1.08, 0, 0, 1.08, 0.0000035, 144.895969)" fill-opacity="1" fill="#ffffff" fill-rule="nonzero" stroke-linejoin="miter" d="M 189.341007 389.484366 C 189.102292 391.770245 187.058745 393.430402 184.772865 393.191686 C 182.486985 392.956588 180.826829 390.909424 181.065544 388.623544 C 181.300642 386.341281 183.347807 384.681125 185.633687 384.916223 C 187.919566 385.154938 189.579723 387.198486 189.341007 389.484366 Z M 189.341007 389.484366 " stroke="#3e1a52" stroke-width="2.5" stroke-opacity="1" stroke-miterlimit="10"/><path stroke-linecap="butt" transform="matrix(1.08, 0, 0, 1.08, 0.0000035, 144.895969)" fill-opacity="1" fill="#ffffff" fill-rule="nonzero" stroke-linejoin="miter" d="M 143.807874 61.536577 C 143.572776 63.822457 141.525612 65.482613 139.239732 65.247515 C 136.957469 65.0088 135.293696 62.965252 135.532411 60.679372 C 135.771126 58.393493 137.814674 56.733336 140.100554 56.972052 C 142.386433 57.20715 144.04659 59.254314 143.807874 61.536577 Z M 143.807874 61.536577 " stroke="#3e1a52" stroke-width="2.5" stroke-opacity="1" stroke-miterlimit="10"/><path stroke-linecap="butt" transform="matrix(1.08, 0, 0, 1.08, 0.0000035, 144.895969)" fill-opacity="1" fill="#ffffff" fill-rule="nonzero" stroke-linejoin="miter" d="M 662.706193 400.642497 C 662.467478 402.92476 660.42393 404.588533 658.138051 404.349818 C 655.852171 404.111103 654.192015 402.067555 654.43073 399.781675 C 654.665828 397.495795 656.709376 395.835639 658.995256 396.074354 C 661.281135 396.309453 662.941292 398.356617 662.706193 400.642497 Z M 662.706193 400.642497 " stroke="#3e1a52" stroke-width="2.5" stroke-opacity="1" stroke-miterlimit="10"/><path stroke-linecap="butt" transform="matrix(1.08, 0, 0, 1.08, 0.0000035, 144.895969)" fill-opacity="1" fill="#ffffff" fill-rule="nonzero" stroke-linejoin="miter" d="M 552.777802 90.160711 C 552.777802 92.461058 550.9151 94.323761 548.618369 94.323761 C 546.321639 94.323761 544.458936 92.457441 544.458936 90.160711 C 544.458936 87.86398 546.321639 86.001278 548.618369 86.001278 C 550.918717 86.001278 552.777802 87.86398 552.777802 90.160711 Z M 552.777802 90.160711 " stroke="#3e1a52" stroke-width="2.5" stroke-opacity="1" stroke-miterlimit="10"/><path stroke-linecap="butt" transform="matrix(1.08, 0, 0, 1.08, 0.0000035, 144.895969)" fill-opacity="1" fill="#ffffff" fill-rule="nonzero" stroke-linejoin="miter" d="M 210.427525 439.950948 C 210.087536 443.249559 207.136147 445.643946 203.841153 445.300341 C 200.546158 444.956735 198.151772 442.008963 198.495377 438.713969 C 198.835366 435.415358 201.786755 433.024588 205.081749 433.364576 C 208.376743 433.708182 210.77113 436.655954 210.427525 439.950948 Z M 210.427525 439.950948 " stroke="#3e1a52" stroke-width="2.5" stroke-opacity="1" stroke-miterlimit="10"/><path fill="#ffffff" d="M 166.039062 449.402344 C 166.039062 452.613281 163.4375 455.214844 160.226562 455.214844 C 157.019531 455.214844 154.417969 452.613281 154.417969 449.402344 C 154.417969 446.195312 157.019531 443.59375 160.226562 443.59375 C 163.4375 443.59375 166.039062 446.195312 166.039062 449.402344 Z M 166.039062 449.402344 " fill-opacity="1" fill-rule="nonzero"/><path fill="#8c52ff" d="M 687.566406 537.890625 C 687.566406 538.324219 687.523438 538.753906 687.441406 539.183594 C 687.355469 539.609375 687.230469 540.023438 687.0625 540.425781 C 686.894531 540.824219 686.691406 541.207031 686.449219 541.570312 C 686.207031 541.929688 685.933594 542.265625 685.625 542.574219 C 685.320312 542.878906 684.984375 543.15625 684.621094 543.398438 C 684.261719 543.636719 683.878906 543.84375 683.476562 544.007812 C 683.074219 544.175781 682.660156 544.300781 682.234375 544.386719 C 681.808594 544.472656 681.378906 544.511719 680.941406 544.511719 C 680.507812 544.511719 680.078125 544.472656 679.652344 544.386719 C 679.222656 544.300781 678.808594 544.175781 678.410156 544.007812 C 678.007812 543.84375 677.625 543.636719 677.261719 543.398438 C 676.902344 543.15625 676.566406 542.878906 676.257812 542.574219 C 675.953125 542.265625 675.675781 541.929688 675.4375 541.570312 C 675.195312 541.207031 674.988281 540.824219 674.824219 540.425781 C 674.65625 540.023438 674.53125 539.609375 674.445312 539.183594 C 674.363281 538.753906 674.320312 538.324219 674.320312 537.890625 C 674.320312 537.453125 674.363281 537.023438 674.445312 536.597656 C 674.53125 536.171875 674.65625 535.757812 674.824219 535.355469 C 674.988281 534.953125 675.195312 534.570312 675.4375 534.210938 C 675.675781 533.847656 675.953125 533.511719 676.257812 533.207031 C 676.566406 532.898438 676.902344 532.625 677.261719 532.382812 C 677.625 532.140625 678.007812 531.9375 678.410156 531.769531 C 678.808594 531.605469 679.222656 531.476562 679.652344 531.394531 C 680.078125 531.308594 680.507812 531.265625 680.941406 531.265625 C 681.378906 531.265625 681.808594 531.308594 682.234375 531.394531 C 682.660156 531.476562 683.074219 531.605469 683.476562 531.769531 C 683.878906 531.9375 684.261719 532.140625 684.621094 532.382812 C 684.984375 532.625 685.320312 532.898438 685.625 533.207031 C 685.933594 533.511719 686.207031 533.847656 686.449219 534.210938 C 686.691406 534.570312 686.894531 534.953125 687.0625 535.355469 C 687.230469 535.757812 687.355469 536.171875 687.441406 536.597656 C 687.523438 537.023438 687.566406 537.453125 687.566406 537.890625 Z M 687.566406 537.890625 " fill-opacity="1" fill-rule="nonzero"/><path stroke-linecap="butt" transform="matrix(0.247335, -1.051297, 1.051297, 0.247335, 306.54863, 762.838566)" fill-opacity="1" fill="#ffffff" fill-rule="nonzero" stroke-linejoin="miter" d="M 510.944216 106.902042 C 510.945859 107.414415 510.895727 107.927822 510.794854 108.430872 C 510.69481 108.937444 510.54589 109.425789 510.34623 109.903777 C 510.150091 110.380937 509.910461 110.831173 509.621127 111.259661 C 509.335313 111.687321 509.012222 112.082879 508.648332 112.447164 C 508.284443 112.811448 507.885968 113.139282 507.459121 113.425487 C 507.031446 113.708171 506.579748 113.951919 506.10237 114.14969 C 505.624992 114.347461 505.136018 114.495941 504.631927 114.595958 C 504.124315 114.696804 503.615668 114.745874 503.098946 114.744824 C 502.586573 114.746468 502.073166 114.696335 501.570116 114.595463 C 501.063545 114.495418 500.5752 114.346498 500.09804 114.150359 C 499.620051 113.950699 499.169816 113.711069 498.742156 113.425256 C 498.313667 113.135921 497.918109 112.81283 497.553824 112.448941 C 497.18954 112.085051 496.861706 111.686576 496.575501 111.259729 C 496.292817 110.832054 496.049069 110.380356 495.851298 109.902978 C 495.654356 109.429121 495.505048 108.936626 495.40503 108.432535 C 495.304185 107.924923 495.255115 107.416277 495.256164 106.899555 C 495.254521 106.387182 495.305482 105.877296 495.405526 105.370724 C 495.50557 104.864153 495.65449 104.375808 495.850629 103.898648 C 496.051117 103.42418 496.289919 102.970424 496.575733 102.542764 C 496.865067 102.114275 497.188158 101.718717 497.552048 101.354433 C 497.915937 100.990148 498.314412 100.662315 498.742088 100.379631 C 499.168934 100.093425 499.620633 99.849677 500.09801 99.651907 C 500.571867 99.454964 501.064362 99.305656 501.568453 99.205639 C 502.076065 99.104793 502.584712 99.055723 503.101434 99.056772 C 503.613807 99.055129 504.123693 99.10609 504.630264 99.206134 C 505.136835 99.306178 505.62518 99.455098 506.103169 99.654758 C 506.576808 99.851726 507.030564 100.090528 507.458224 100.376341 C 507.886713 100.665675 508.282271 100.988767 508.646556 101.352656 C 509.01084 101.716546 509.338674 102.115021 509.621358 102.542696 C 509.907563 102.969543 510.151311 103.421241 510.349082 103.898619 C 510.546853 104.375996 510.695332 104.86497 510.79535 105.369062 C 510.896195 105.876674 510.945265 106.38532 510.944216 106.902042 Z M 510.944216 106.902042 " stroke="#3e1a52" stroke-width="2.5" stroke-opacity="1" stroke-miterlimit="10"/><path stroke-linecap="butt" transform="matrix(1.08, 0, 0, 1.08, 0.0000035, 144.895969)" fill-opacity="1" fill="#ffffff" fill-rule="nonzero" stroke-linejoin="miter" d="M 149.837244 430.991891 C 149.540658 433.849241 146.983511 435.92534 144.129778 435.628755 C 141.272429 435.328552 139.196329 432.775022 139.492915 429.917672 C 139.7895 427.060322 142.346647 424.984223 145.203997 425.284425 C 148.05773 425.581011 150.13383 428.134541 149.837244 430.991891 Z M 149.837244 430.991891 " stroke="#3e1a52" stroke-width="2.5" stroke-opacity="1" stroke-miterlimit="10"/><path fill="#8c52ff" d="M 125.96875 314.742188 L 132.519531 321.292969 L 125.96875 327.84375 L 119.417969 321.292969 Z M 125.96875 314.742188 " fill-opacity="1" fill-rule="nonzero"/><path fill="#8c52ff" d="M 69.660156 433.570312 L 74.242188 438.152344 L 69.660156 442.734375 L 65.078125 438.152344 Z M 69.660156 433.570312 " fill-opacity="1" fill-rule="nonzero"/><path fill="#ffffff" d="M 263.015625 588.71875 L 267.597656 593.300781 L 263.015625 597.882812 L 258.433594 593.300781 Z M 263.015625 588.71875 " fill-opacity="1" fill-rule="nonzero"/><path fill="#8c52ff" d="M 727.894531 371.785156 L 732.476562 376.367188 L 727.894531 380.949219 L 723.3125 376.367188 Z M 727.894531 371.785156 " fill-opacity="1" fill-rule="nonzero"/><path fill="#ffffff" d="M 655.386719 586.296875 L 661.941406 592.851562 L 655.386719 599.402344 L 648.835938 592.851562 Z M 655.386719 586.296875 " fill-opacity="1" fill-rule="nonzero"/><path fill="#ffffff" d="M 604.144531 272.507812 L 610.695312 279.058594 L 604.144531 285.609375 L 597.59375 279.058594 Z M 604.144531 272.507812 " fill-opacity="1" fill-rule="nonzero"/></svg>