<svg xmlns="http://www.w3.org/2000/svg" xmlns:xlink="http://www.w3.org/1999/xlink" width="120" zoomAndPan="magnify" viewBox="0 0 90 30.000001" height="40" preserveAspectRatio="xMidYMid meet" version="1.0"><defs><g/></defs><path stroke-linecap="round" transform="matrix(0.907258, 0, 0, 0.907258, 6.325031, 3.592744)" fill="none" stroke-linejoin="round" d="M 2.001188 8.99972 L 2.001188 6.498193 C 2.001188 4.009582 4.011882 1.998887 6.500493 1.998887 L 9.002021 1.998887 " stroke="#5956d6" stroke-width="1.5" stroke-opacity="1" stroke-miterlimit="4"/><path stroke-linecap="round" transform="matrix(0.907258, 0, 0, 0.907258, 6.325031, 3.592744)" fill="none" stroke-linejoin="round" d="M 14.99966 1.998887 L 17.501188 1.998887 C 19.989799 1.998887 22.000493 4.009582 22.000493 6.498193 L 22.000493 8.99972 " stroke="#5956d6" stroke-width="1.5" stroke-opacity="1" stroke-miterlimit="4"/><path stroke-linecap="round" transform="matrix(0.907258, 0, 0, 0.907258, 6.325031, 3.592744)" fill="none" stroke-linejoin="round" d="M 22.000493 16.000554 L 22.000493 17.498887 C 22.000493 19.991804 19.989799 21.998193 17.501188 21.998193 L 15.998549 21.998193 " stroke="#5956d6" stroke-width="1.5" stroke-opacity="1" stroke-miterlimit="4"/><path stroke-linecap="round" transform="matrix(0.907258, 0, 0, 0.907258, 6.325031, 3.592744)" fill="none" stroke-linejoin="round" d="M 9.002021 21.998193 L 6.500493 21.998193 C 4.011882 21.998193 2.001188 19.991804 2.001188 17.498887 L 2.001188 15.001665 " stroke="#5956d6" stroke-width="1.5" stroke-opacity="1" stroke-miterlimit="4"/><path stroke-linecap="round" transform="matrix(0.907258, 0, 0, 0.907258, 6.325031, 3.592744)" fill="none" stroke-linejoin="round" d="M 10.500354 7.001943 L 10.500354 8.99972 C 10.500354 9.998609 10.00091 10.498054 9.002021 10.498054 L 6.999938 10.498054 C 6.001049 10.498054 5.501604 9.998609 5.501604 8.99972 L 5.501604 7.001943 C 5.501604 5.998748 6.001049 5.499304 6.999938 5.499304 L 9.002021 5.499304 C 10.00091 5.499304 10.500354 5.998748 10.500354 7.001943 Z M 10.500354 7.001943 " stroke="#5956d6" stroke-width="1.5" stroke-opacity="0.4" stroke-miterlimit="4"/><path stroke-linecap="round" transform="matrix(0.907258, 0, 0, 0.907258, 6.325031, 3.592744)" fill="none" stroke-linejoin="round" d="M 18.500077 7.001943 L 18.500077 8.99972 C 18.500077 9.998609 18.000632 10.498054 17.001743 10.498054 L 14.99966 10.498054 C 14.000771 10.498054 13.501327 9.998609 13.501327 8.99972 L 13.501327 7.001943 C 13.501327 5.998748 14.000771 5.499304 14.99966 5.499304 L 17.001743 5.499304 C 18.000632 5.499304 18.500077 5.998748 18.500077 7.001943 Z M 18.500077 7.001943 " stroke="#5956d6" stroke-width="1.5" stroke-opacity="0.4" stroke-miterlimit="4"/><path stroke-linecap="round" transform="matrix(0.907258, 0, 0, 0.907258, 6.325031, 3.592744)" fill="none" stroke-linejoin="round" d="M 10.500354 15.001665 L 10.500354 16.999443 C 10.500354 17.998332 10.00091 18.502082 9.002021 18.502082 L 6.999938 18.502082 C 6.001049 18.502082 5.501604 17.998332 5.501604 16.999443 L 5.501604 15.001665 C 5.501604 13.99847 6.001049 13.499026 6.999938 13.499026 L 9.002021 13.499026 C 10.00091 13.499026 10.500354 13.99847 10.500354 15.001665 Z M 10.500354 15.001665 " stroke="#5956d6" stroke-width="1.5" stroke-opacity="0.4" stroke-miterlimit="4"/><path stroke-linecap="round" transform="matrix(0.907258, 0, 0, 0.907258, 6.325031, 3.592744)" fill="none" stroke-linejoin="round" d="M 18.500077 15.001665 L 18.500077 16.999443 C 18.500077 17.998332 18.000632 18.502082 17.001743 18.502082 L 14.99966 18.502082 C 14.000771 18.502082 13.501327 17.998332 13.501327 16.999443 L 13.501327 15.001665 C 13.501327 13.99847 14.000771 13.499026 14.99966 13.499026 L 17.001743 13.499026 C 18.000632 13.499026 18.500077 13.99847 18.500077 15.001665 Z M 18.500077 15.001665 " stroke="#5956d6" stroke-width="1.5" stroke-opacity="0.4" stroke-miterlimit="4"/><g fill="#5956d6" fill-opacity="1"><g transform="translate(29.879884, 16.572659)"><g><path d="M 2.882812 -3.140625 C 2.703125 -3.140625 2.589844 -3.058594 2.546875 -2.925781 C 2.269531 -3.128906 1.929688 -3.203125 1.652344 -3.203125 C 0.746094 -3.203125 0.136719 -2.535156 0.136719 -1.578125 C 0.136719 -0.585938 0.734375 0.0625 1.628906 0.0625 C 1.914062 0.0625 2.269531 -0.0351562 2.546875 -0.246094 L 2.546875 -0.191406 C 2.546875 0.320312 2.128906 0.550781 1.683594 0.550781 C 1.402344 0.550781 1.210938 0.507812 0.957031 0.285156 C 0.625 -0.0078125 0.160156 0.433594 0.492188 0.765625 C 0.828125 1.078125 1.203125 1.183594 1.683594 1.183594 C 2.546875 1.183594 3.238281 0.714844 3.238281 -0.191406 L 3.238281 -2.789062 C 3.238281 -2.980469 3.097656 -3.140625 2.882812 -3.140625 Z M 1.648438 -0.5625 C 1.160156 -0.5625 0.839844 -0.960938 0.839844 -1.574219 C 0.839844 -2.160156 1.183594 -2.578125 1.703125 -2.578125 C 2.03125 -2.578125 2.386719 -2.398438 2.542969 -2.085938 L 2.542969 -1.054688 C 2.414062 -0.726562 2.023438 -0.5625 1.648438 -0.5625 Z M 1.648438 -0.5625 "/></g></g></g><g fill="#5956d6" fill-opacity="1"><g transform="translate(33.69271, 16.572659)"><g><path d="M 1.765625 -0.550781 C 1.328125 -0.550781 0.980469 -0.828125 0.871094 -1.226562 L 2.925781 -1.226562 C 3.277344 -1.226562 3.3125 -1.394531 3.3125 -1.597656 C 3.308594 -2.554688 2.75 -3.203125 1.765625 -3.203125 C 0.777344 -3.203125 0.152344 -2.511719 0.152344 -1.5 C 0.152344 -0.574219 0.8125 0.0625 1.78125 0.0625 C 2.191406 0.0664062 2.609375 -0.03125 2.898438 -0.308594 C 3.246094 -0.636719 2.8125 -1.105469 2.4375 -0.765625 C 2.238281 -0.609375 2 -0.550781 1.765625 -0.550781 Z M 1.769531 -2.589844 C 2.351562 -2.589844 2.617188 -2.265625 2.660156 -1.777344 L 0.863281 -1.777344 C 0.949219 -2.265625 1.289062 -2.589844 1.769531 -2.589844 Z M 1.769531 -2.589844 "/></g></g></g><g fill="#5956d6" fill-opacity="1"><g transform="translate(37.511711, 16.572659)"><g><path d="M 2.078125 -3.203125 C 1.765625 -3.203125 1.363281 -3.121094 1.011719 -2.792969 L 1.011719 -2.839844 C 1.011719 -3.027344 0.832031 -3.140625 0.660156 -3.140625 C 0.480469 -3.140625 0.308594 -3.027344 0.308594 -2.824219 L 0.308594 -0.316406 C 0.308594 -0.117188 0.457031 0 0.671875 0 C 0.894531 0 1.011719 -0.117188 1.011719 -0.316406 L 1.011719 -1.53125 C 1.011719 -2.25 1.652344 -2.585938 1.972656 -2.585938 C 2.5 -2.585938 2.734375 -2.238281 2.734375 -1.726562 L 2.734375 -0.320312 C 2.734375 -0.128906 2.875 0 3.085938 0 C 3.308594 0 3.4375 -0.128906 3.4375 -0.320312 L 3.4375 -1.714844 C 3.4375 -2.597656 2.9375 -3.203125 2.078125 -3.203125 Z M 2.078125 -3.203125 "/></g></g></g><g fill="#5956d6" fill-opacity="1"><g transform="translate(41.491119, 16.572659)"><g><path d="M 1.765625 -0.550781 C 1.328125 -0.550781 0.980469 -0.828125 0.871094 -1.226562 L 2.925781 -1.226562 C 3.277344 -1.226562 3.3125 -1.394531 3.3125 -1.597656 C 3.308594 -2.554688 2.75 -3.203125 1.765625 -3.203125 C 0.777344 -3.203125 0.152344 -2.511719 0.152344 -1.5 C 0.152344 -0.574219 0.8125 0.0625 1.78125 0.0625 C 2.191406 0.0664062 2.609375 -0.03125 2.898438 -0.308594 C 3.246094 -0.636719 2.8125 -1.105469 2.4375 -0.765625 C 2.238281 -0.609375 2 -0.550781 1.765625 -0.550781 Z M 1.769531 -2.589844 C 2.351562 -2.589844 2.617188 -2.265625 2.660156 -1.777344 L 0.863281 -1.777344 C 0.949219 -2.265625 1.289062 -2.589844 1.769531 -2.589844 Z M 1.769531 -2.589844 "/></g></g></g><g fill="#5956d6" fill-opacity="1"><g transform="translate(45.31012, 16.572659)"><g><path d="M 1.664062 -3.140625 C 1.382812 -3.140625 1.140625 -3.027344 0.960938 -2.789062 L 0.960938 -2.824219 C 0.960938 -3.027344 0.796875 -3.140625 0.625 -3.140625 C 0.449219 -3.140625 0.265625 -3.023438 0.265625 -2.824219 L 0.265625 -0.316406 C 0.265625 -0.128906 0.40625 0 0.625 0 C 0.808594 0 0.960938 -0.128906 0.960938 -0.316406 L 0.960938 -1.488281 C 0.960938 -2.121094 1.148438 -2.515625 1.664062 -2.515625 C 1.886719 -2.515625 2.03125 -2.640625 2.03125 -2.839844 C 2.03125 -3.046875 1.886719 -3.140625 1.664062 -3.140625 Z M 1.664062 -3.140625 "/></g></g></g><g fill="#5956d6" fill-opacity="1"><g transform="translate(47.389281, 16.572659)"><g><path d="M 2.867188 -3.140625 C 2.671875 -3.140625 2.554688 -3.042969 2.523438 -2.894531 C 2.25 -3.101562 1.90625 -3.203125 1.640625 -3.203125 C 0.734375 -3.203125 0.125 -2.535156 0.125 -1.578125 C 0.125 -0.585938 0.667969 0.0625 1.5625 0.0625 C 1.871094 0.0625 2.238281 -0.0351562 2.523438 -0.257812 C 2.546875 -0.105469 2.664062 0 2.867188 0 C 3.078125 0 3.21875 -0.128906 3.21875 -0.320312 L 3.21875 -2.820312 C 3.21875 -3.011719 3.078125 -3.140625 2.867188 -3.140625 Z M 1.636719 -0.5625 C 1.148438 -0.5625 0.828125 -0.960938 0.828125 -1.574219 C 0.828125 -2.160156 1.171875 -2.578125 1.691406 -2.578125 C 2.011719 -2.578125 2.363281 -2.40625 2.515625 -2.105469 L 2.515625 -1.035156 C 2.375 -0.722656 2 -0.5625 1.636719 -0.5625 Z M 1.636719 -0.5625 "/></g></g></g><g fill="#5956d6" fill-opacity="1"><g transform="translate(51.189776, 16.572659)"><g><path d="M 1.695312 -0.585938 C 1.652344 -0.566406 1.5625 -0.542969 1.5 -0.542969 C 1.234375 -0.542969 1.203125 -0.828125 1.203125 -1.097656 L 1.203125 -2.554688 L 1.683594 -2.554688 C 1.898438 -2.554688 2.015625 -2.695312 2.015625 -2.84375 C 2.015625 -2.992188 1.898438 -3.140625 1.683594 -3.140625 L 1.203125 -3.140625 L 1.203125 -3.671875 C 1.203125 -3.878906 1.023438 -3.992188 0.851562 -3.992188 C 0.671875 -3.992188 0.507812 -3.878906 0.507812 -3.671875 L 0.507812 -3.140625 L 0.269531 -3.140625 C 0.0507812 -3.140625 -0.0664062 -2.992188 -0.0664062 -2.84375 C -0.0664062 -2.703125 0.0429688 -2.554688 0.269531 -2.554688 L 0.507812 -2.554688 L 0.507812 -1.097656 C 0.507812 -0.5 0.695312 0.0625 1.5 0.0625 C 1.695312 0.0625 1.820312 0.0546875 2.003906 -0.0429688 C 2.148438 -0.117188 2.207031 -0.234375 2.207031 -0.339844 C 2.207031 -0.554688 1.972656 -0.742188 1.695312 -0.585938 Z M 1.695312 -0.585938 "/></g></g></g><g fill="#5956d6" fill-opacity="1"><g transform="translate(53.565079, 16.572659)"><g><path d="M 1.765625 -0.550781 C 1.328125 -0.550781 0.980469 -0.828125 0.871094 -1.226562 L 2.925781 -1.226562 C 3.277344 -1.226562 3.3125 -1.394531 3.3125 -1.597656 C 3.308594 -2.554688 2.75 -3.203125 1.765625 -3.203125 C 0.777344 -3.203125 0.152344 -2.511719 0.152344 -1.5 C 0.152344 -0.574219 0.8125 0.0625 1.78125 0.0625 C 2.191406 0.0664062 2.609375 -0.03125 2.898438 -0.308594 C 3.246094 -0.636719 2.8125 -1.105469 2.4375 -0.765625 C 2.238281 -0.609375 2 -0.550781 1.765625 -0.550781 Z M 1.769531 -2.589844 C 2.351562 -2.589844 2.617188 -2.265625 2.660156 -1.777344 L 0.863281 -1.777344 C 0.949219 -2.265625 1.289062 -2.589844 1.769531 -2.589844 Z M 1.769531 -2.589844 "/></g></g></g><g fill="#5956d6" fill-opacity="1"><g transform="translate(57.38408, 16.572659)"><g><path d="M 2.886719 -3.140625 C 2.703125 -3.140625 2.589844 -3.066406 2.558594 -2.925781 C 2.277344 -3.128906 1.945312 -3.203125 1.664062 -3.203125 C 0.757812 -3.203125 0.148438 -2.554688 0.148438 -1.605469 C 0.148438 -0.609375 0.746094 0.0625 1.640625 0.0625 C 1.917969 0.0625 2.277344 -0.0351562 2.546875 -0.222656 L 2.546875 0.722656 C 2.546875 0.925781 2.722656 1.035156 2.894531 1.035156 C 3.066406 1.035156 3.246094 0.925781 3.246094 0.722656 L 3.246094 -2.824219 C 3.246094 -3.023438 3.117188 -3.140625 2.886719 -3.140625 Z M 1.660156 -0.5625 C 1.171875 -0.5625 0.851562 -0.980469 0.851562 -1.597656 C 0.851562 -2.183594 1.195312 -2.578125 1.714844 -2.578125 C 2.042969 -2.578125 2.394531 -2.398438 2.546875 -2.089844 L 2.546875 -1.066406 C 2.417969 -0.746094 2.035156 -0.5625 1.660156 -0.5625 Z M 1.660156 -0.5625 "/></g></g></g><g fill="#5956d6" fill-opacity="1"><g transform="translate(61.215421, 16.572659)"><g><path d="M 1.664062 -3.140625 C 1.382812 -3.140625 1.140625 -3.027344 0.960938 -2.789062 L 0.960938 -2.824219 C 0.960938 -3.027344 0.796875 -3.140625 0.625 -3.140625 C 0.449219 -3.140625 0.265625 -3.023438 0.265625 -2.824219 L 0.265625 -0.316406 C 0.265625 -0.128906 0.40625 0 0.625 0 C 0.808594 0 0.960938 -0.128906 0.960938 -0.316406 L 0.960938 -1.488281 C 0.960938 -2.121094 1.148438 -2.515625 1.664062 -2.515625 C 1.886719 -2.515625 2.03125 -2.640625 2.03125 -2.839844 C 2.03125 -3.046875 1.886719 -3.140625 1.664062 -3.140625 Z M 1.664062 -3.140625 "/></g></g></g><g fill="#5956d6" fill-opacity="1"><g transform="translate(63.294582, 16.572659)"><g><path d="M 2.4375 -2.296875 C 2.722656 -1.960938 3.203125 -2.355469 2.898438 -2.703125 C 2.566406 -3.085938 2.179688 -3.203125 1.726562 -3.203125 C 0.757812 -3.203125 0.117188 -2.554688 0.117188 -1.554688 C 0.117188 -0.585938 0.765625 0.0625 1.746094 0.0625 C 2.191406 0.0625 2.621094 -0.0820312 2.941406 -0.433594 C 3.25 -0.769531 2.824219 -1.191406 2.46875 -0.828125 C 2.269531 -0.628906 2 -0.550781 1.753906 -0.550781 C 1.195312 -0.550781 0.828125 -0.949219 0.828125 -1.5625 C 0.828125 -2.191406 1.183594 -2.597656 1.726562 -2.597656 C 1.972656 -2.597656 2.246094 -2.515625 2.4375 -2.296875 Z M 2.4375 -2.296875 "/></g></g></g><g fill="#5956d6" fill-opacity="1"><g transform="translate(66.613838, 16.572659)"><g><path d="M 1.765625 -3.203125 C 0.785156 -3.203125 0.125 -2.535156 0.125 -1.554688 C 0.136719 -0.585938 0.796875 0.0625 1.765625 0.0625 C 2.734375 0.0625 3.394531 -0.585938 3.40625 -1.554688 C 3.40625 -2.535156 2.75 -3.203125 1.765625 -3.203125 Z M 1.765625 -0.554688 C 1.210938 -0.554688 0.84375 -0.960938 0.84375 -1.554688 C 0.84375 -2.160156 1.210938 -2.585938 1.765625 -2.585938 C 2.320312 -2.585938 2.683594 -2.160156 2.683594 -1.554688 C 2.683594 -0.960938 2.320312 -0.554688 1.765625 -0.554688 Z M 1.765625 -0.554688 "/></g></g></g><g fill="#5956d6" fill-opacity="1"><g transform="translate(70.272424, 16.572659)"><g><path d="M 2.875 -3.992188 C 2.703125 -3.992188 2.53125 -3.898438 2.53125 -3.683594 L 2.53125 -2.882812 C 2.257812 -3.097656 1.925781 -3.203125 1.652344 -3.203125 C 0.746094 -3.203125 0.136719 -2.535156 0.136719 -1.605469 C 0.136719 -0.625 0.703125 0.0546875 1.628906 0.0546875 C 1.925781 0.0546875 2.277344 -0.0625 2.542969 -0.296875 C 2.546875 -0.109375 2.652344 0 2.875 0 C 3.101562 0 3.234375 -0.117188 3.234375 -0.316406 L 3.234375 -3.683594 C 3.234375 -3.898438 3.046875 -3.992188 2.875 -3.992188 Z M 1.648438 -0.566406 C 1.160156 -0.566406 0.839844 -0.992188 0.839844 -1.597656 C 0.839844 -2.160156 1.183594 -2.578125 1.703125 -2.578125 C 2.042969 -2.578125 2.394531 -2.394531 2.535156 -2.0625 L 2.542969 -1.109375 C 2.425781 -0.757812 2.054688 -0.566406 1.648438 -0.566406 Z M 1.648438 -0.566406 "/></g></g></g><g fill="#5956d6" fill-opacity="1"><g transform="translate(74.079084, 16.572659)"><g><path d="M 1.765625 -0.550781 C 1.328125 -0.550781 0.980469 -0.828125 0.871094 -1.226562 L 2.925781 -1.226562 C 3.277344 -1.226562 3.3125 -1.394531 3.3125 -1.597656 C 3.308594 -2.554688 2.75 -3.203125 1.765625 -3.203125 C 0.777344 -3.203125 0.152344 -2.511719 0.152344 -1.5 C 0.152344 -0.574219 0.8125 0.0625 1.78125 0.0625 C 2.191406 0.0664062 2.609375 -0.03125 2.898438 -0.308594 C 3.246094 -0.636719 2.8125 -1.105469 2.4375 -0.765625 C 2.238281 -0.609375 2 -0.550781 1.765625 -0.550781 Z M 1.769531 -2.589844 C 2.351562 -2.589844 2.617188 -2.265625 2.660156 -1.777344 L 0.863281 -1.777344 C 0.949219 -2.265625 1.289062 -2.589844 1.769531 -2.589844 Z M 1.769531 -2.589844 "/></g></g></g><g fill="#5956d6" fill-opacity="1"><g transform="translate(77.898085, 16.572659)"><g><path d="M 0.445312 -0.660156 C 0.214844 -0.660156 0.0351562 -0.511719 0.0351562 -0.296875 C 0.0351562 -0.0859375 0.214844 0.0625 0.445312 0.0625 C 0.683594 0.0625 0.839844 -0.0859375 0.839844 -0.296875 C 0.839844 -0.511719 0.683594 -0.660156 0.445312 -0.660156 Z M 0.445312 -0.660156 "/></g></g></g><g fill="#5956d6" fill-opacity="1"><g transform="translate(78.768005, 16.572659)"><g><path d="M 0.925781 -3.601562 L 0.925781 -3.683594 C 0.925781 -3.894531 0.742188 -3.992188 0.566406 -3.992188 C 0.382812 -3.992188 0.210938 -3.894531 0.210938 -3.683594 L 0.210938 -3.601562 C 0.210938 -3.394531 0.382812 -3.292969 0.566406 -3.292969 C 0.742188 -3.292969 0.925781 -3.394531 0.925781 -3.601562 Z M 0.214844 -2.839844 L 0.214844 -0.300781 C 0.214844 -0.0976562 0.402344 0 0.566406 0 C 0.742188 0 0.917969 -0.0976562 0.917969 -0.300781 L 0.917969 -2.84375 C 0.917969 -3.035156 0.742188 -3.140625 0.566406 -3.140625 C 0.402344 -3.140625 0.214844 -3.035156 0.214844 -2.839844 Z M 0.214844 -2.839844 "/></g></g></g><g fill="#5956d6" fill-opacity="1"><g transform="translate(80.014267, 16.572659)"><g><path d="M 1.765625 -3.203125 C 0.785156 -3.203125 0.125 -2.535156 0.125 -1.554688 C 0.136719 -0.585938 0.796875 0.0625 1.765625 0.0625 C 2.734375 0.0625 3.394531 -0.585938 3.40625 -1.554688 C 3.40625 -2.535156 2.75 -3.203125 1.765625 -3.203125 Z M 1.765625 -0.554688 C 1.210938 -0.554688 0.84375 -0.960938 0.84375 -1.554688 C 0.84375 -2.160156 1.210938 -2.585938 1.765625 -2.585938 C 2.320312 -2.585938 2.683594 -2.160156 2.683594 -1.554688 C 2.683594 -0.960938 2.320312 -0.554688 1.765625 -0.554688 Z M 1.765625 -0.554688 "/></g></g></g></svg>