<svg xmlns="http://www.w3.org/2000/svg" xmlns:xlink="http://www.w3.org/1999/xlink" width="120" zoomAndPan="magnify" viewBox="0 0 90 30.000001" height="40" preserveAspectRatio="xMidYMid meet" version="1.0"><defs><g/></defs><path stroke-linecap="round" transform="matrix(0.78629, 0, 0, 0.78629, 2.758063, 5.225808)" fill="none" stroke-linejoin="round" d="M 2.001765 8.997915 L 2.001765 6.499036 C 2.001765 4.010094 4.008816 1.998075 6.497759 1.998075 L 9.001605 1.998075 " stroke="#5956d6" stroke-width="1.5" stroke-opacity="1" stroke-miterlimit="4"/><path stroke-linecap="round" transform="matrix(0.78629, 0, 0, 0.78629, 2.758063, 5.225808)" fill="none" stroke-linejoin="round" d="M 14.997919 1.998075 L 17.501766 1.998075 C 19.990708 1.998075 21.99776 4.010094 21.99776 6.499036 L 21.99776 8.997915 " stroke="#5956d6" stroke-width="1.5" stroke-opacity="1" stroke-miterlimit="4"/><path stroke-linecap="round" transform="matrix(0.78629, 0, 0, 0.78629, 2.758063, 5.225808)" fill="none" stroke-linejoin="round" d="M 21.99776 15.997755 L 21.99776 17.498076 C 21.99776 19.991986 19.990708 21.999037 17.501766 21.999037 L 16.001445 21.999037 " stroke="#5956d6" stroke-width="1.5" stroke-opacity="1" stroke-miterlimit="4"/><path stroke-linecap="round" transform="matrix(0.78629, 0, 0, 0.78629, 2.758063, 5.225808)" fill="none" stroke-linejoin="round" d="M 9.001605 21.999037 L 6.497759 21.999037 C 4.008816 21.999037 2.001765 19.991986 2.001765 17.498076 L 2.001765 14.999197 " stroke="#5956d6" stroke-width="1.5" stroke-opacity="1" stroke-miterlimit="4"/><path stroke-linecap="round" transform="matrix(0.78629, 0, 0, 0.78629, 2.758063, 5.225808)" fill="none" stroke-linejoin="round" d="M 10.501926 7.000799 L 10.501926 8.997915 C 10.501926 10.00144 10.000163 10.498235 9.001605 10.498235 L 6.999521 10.498235 C 6.000964 10.498235 5.499201 10.00144 5.499201 8.997915 L 5.499201 7.000799 C 5.499201 6.002242 6.000964 5.500479 6.999521 5.500479 L 9.001605 5.500479 C 10.000163 5.500479 10.501926 6.002242 10.501926 7.000799 Z M 10.501926 7.000799 " stroke="#5956d6" stroke-width="1.5" stroke-opacity="0.4" stroke-miterlimit="4"/><path stroke-linecap="round" transform="matrix(0.78629, 0, 0, 0.78629, 2.758063, 5.225808)" fill="none" stroke-linejoin="round" d="M 18.500323 7.000799 L 18.500323 8.997915 C 18.500323 10.00144 17.998561 10.498235 17.000003 10.498235 L 14.997919 10.498235 C 13.999362 10.498235 13.497599 10.00144 13.497599 8.997915 L 13.497599 7.000799 C 13.497599 6.002242 13.999362 5.500479 14.997919 5.500479 L 17.000003 5.500479 C 17.998561 5.500479 18.500323 6.002242 18.500323 7.000799 Z M 18.500323 7.000799 " stroke="#5956d6" stroke-width="1.5" stroke-opacity="0.4" stroke-miterlimit="4"/><path stroke-linecap="round" transform="matrix(0.78629, 0, 0, 0.78629, 2.758063, 5.225808)" fill="none" stroke-linejoin="round" d="M 10.501926 14.999197 L 10.501926 17.001281 C 10.501926 17.999838 10.000163 18.501601 9.001605 18.501601 L 6.999521 18.501601 C 6.000964 18.501601 5.499201 17.999838 5.499201 17.001281 L 5.499201 14.999197 C 5.499201 14.000639 6.000964 13.498877 6.999521 13.498877 L 9.001605 13.498877 C 10.000163 13.498877 10.501926 14.000639 10.501926 14.999197 Z M 10.501926 14.999197 " stroke="#5956d6" stroke-width="1.5" stroke-opacity="0.4" stroke-miterlimit="4"/><path stroke-linecap="round" transform="matrix(0.78629, 0, 0, 0.78629, 2.758063, 5.225808)" fill="none" stroke-linejoin="round" d="M 18.500323 14.999197 L 18.500323 17.001281 C 18.500323 17.999838 17.998561 18.501601 17.000003 18.501601 L 14.997919 18.501601 C 13.999362 18.501601 13.497599 17.999838 13.497599 17.001281 L 13.497599 14.999197 C 13.497599 14.000639 13.999362 13.498877 14.997919 13.498877 L 17.000003 13.498877 C 17.998561 13.498877 18.500323 14.000639 18.500323 14.999197 Z M 18.500323 14.999197 " stroke="#5956d6" stroke-width="1.5" stroke-opacity="0.4" stroke-miterlimit="4"/><g fill="#5956d6" fill-opacity="1"><g transform="translate(29.503264, 16.838715)"><g><path d="M 1.992188 -0.621094 C 1.5 -0.621094 1.109375 -0.933594 0.984375 -1.386719 L 3.300781 -1.386719 C 3.699219 -1.386719 3.742188 -1.574219 3.742188 -1.804688 C 3.734375 -2.882812 3.109375 -3.617188 1.992188 -3.617188 C 0.878906 -3.617188 0.175781 -2.835938 0.175781 -1.691406 C 0.175781 -0.648438 0.917969 0.0703125 2.015625 0.0703125 C 2.472656 0.078125 2.949219 -0.0351562 3.273438 -0.347656 C 3.664062 -0.71875 3.175781 -1.246094 2.753906 -0.863281 C 2.527344 -0.691406 2.257812 -0.621094 1.992188 -0.621094 Z M 2 -2.925781 C 2.65625 -2.925781 2.953125 -2.558594 3.003906 -2.007812 L 0.976562 -2.007812 C 1.074219 -2.558594 1.457031 -2.925781 2 -2.925781 Z M 2 -2.925781 "/></g></g></g><g fill="#5956d6" fill-opacity="1"><g transform="translate(33.816335, 16.838715)"><g><path d="M 2.347656 -3.617188 C 1.992188 -3.617188 1.539062 -3.527344 1.144531 -3.15625 L 1.144531 -3.207031 C 1.144531 -3.421875 0.941406 -3.546875 0.746094 -3.546875 C 0.542969 -3.546875 0.347656 -3.421875 0.347656 -3.191406 L 0.347656 -0.355469 C 0.347656 -0.132812 0.515625 0 0.757812 0 C 1.011719 0 1.144531 -0.132812 1.144531 -0.355469 L 1.144531 -1.726562 C 1.144531 -2.542969 1.867188 -2.917969 2.230469 -2.917969 C 2.820312 -2.917969 3.085938 -2.527344 3.085938 -1.949219 L 3.085938 -0.363281 C 3.085938 -0.144531 3.246094 0 3.484375 0 C 3.734375 0 3.882812 -0.144531 3.882812 -0.363281 L 3.882812 -1.9375 C 3.882812 -2.933594 3.316406 -3.617188 2.347656 -3.617188 Z M 2.347656 -3.617188 "/></g></g></g><g fill="#5956d6" fill-opacity="1"><g transform="translate(38.310565, 16.838715)"><g><path d="M 1.992188 -0.621094 C 1.5 -0.621094 1.109375 -0.933594 0.984375 -1.386719 L 3.300781 -1.386719 C 3.699219 -1.386719 3.742188 -1.574219 3.742188 -1.804688 C 3.734375 -2.882812 3.109375 -3.617188 1.992188 -3.617188 C 0.878906 -3.617188 0.175781 -2.835938 0.175781 -1.691406 C 0.175781 -0.648438 0.917969 0.0703125 2.015625 0.0703125 C 2.472656 0.078125 2.949219 -0.0351562 3.273438 -0.347656 C 3.664062 -0.71875 3.175781 -1.246094 2.753906 -0.863281 C 2.527344 -0.691406 2.257812 -0.621094 1.992188 -0.621094 Z M 2 -2.925781 C 2.65625 -2.925781 2.953125 -2.558594 3.003906 -2.007812 L 0.976562 -2.007812 C 1.074219 -2.558594 1.457031 -2.925781 2 -2.925781 Z M 2 -2.925781 "/></g></g></g><g fill="#5956d6" fill-opacity="1"><g transform="translate(42.623636, 16.838715)"><g><path d="M 1.882812 -3.546875 C 1.5625 -3.546875 1.289062 -3.421875 1.085938 -3.148438 L 1.085938 -3.191406 C 1.085938 -3.421875 0.898438 -3.546875 0.703125 -3.546875 C 0.507812 -3.546875 0.300781 -3.414062 0.300781 -3.191406 L 0.300781 -0.355469 C 0.300781 -0.144531 0.460938 0 0.703125 0 C 0.914062 0 1.085938 -0.144531 1.085938 -0.355469 L 1.085938 -1.679688 C 1.085938 -2.398438 1.296875 -2.84375 1.882812 -2.84375 C 2.132812 -2.84375 2.292969 -2.980469 2.292969 -3.207031 C 2.292969 -3.441406 2.132812 -3.546875 1.882812 -3.546875 Z M 1.882812 -3.546875 "/></g></g></g><g fill="#5956d6" fill-opacity="1"><g transform="translate(44.971782, 16.838715)"><g><path d="M 3.238281 -3.546875 C 3.015625 -3.546875 2.882812 -3.433594 2.851562 -3.269531 C 2.542969 -3.503906 2.152344 -3.617188 1.851562 -3.617188 C 0.828125 -3.617188 0.140625 -2.863281 0.140625 -1.785156 C 0.140625 -0.660156 0.753906 0.0703125 1.761719 0.0703125 C 2.109375 0.0703125 2.527344 -0.0429688 2.851562 -0.292969 C 2.878906 -0.117188 3.011719 0 3.238281 0 C 3.476562 0 3.636719 -0.144531 3.636719 -0.363281 L 3.636719 -3.183594 C 3.636719 -3.398438 3.476562 -3.546875 3.238281 -3.546875 Z M 1.847656 -0.632812 C 1.296875 -0.632812 0.933594 -1.085938 0.933594 -1.777344 C 0.933594 -2.4375 1.324219 -2.914062 1.910156 -2.914062 C 2.273438 -2.914062 2.667969 -2.71875 2.84375 -2.375 L 2.84375 -1.171875 C 2.683594 -0.816406 2.257812 -0.632812 1.847656 -0.632812 Z M 1.847656 -0.632812 "/></g></g></g><g fill="#5956d6" fill-opacity="1"><g transform="translate(49.263952, 16.838715)"><g><path d="M 1.917969 -0.660156 C 1.867188 -0.640625 1.761719 -0.613281 1.691406 -0.613281 C 1.394531 -0.613281 1.359375 -0.933594 1.359375 -1.242188 L 1.359375 -2.882812 L 1.902344 -2.882812 C 2.144531 -2.882812 2.277344 -3.042969 2.277344 -3.210938 C 2.277344 -3.378906 2.144531 -3.546875 1.902344 -3.546875 L 1.359375 -3.546875 L 1.359375 -4.144531 C 1.359375 -4.382812 1.15625 -4.507812 0.960938 -4.507812 C 0.757812 -4.507812 0.570312 -4.382812 0.570312 -4.144531 L 0.570312 -3.546875 L 0.304688 -3.546875 C 0.0546875 -3.546875 -0.078125 -3.378906 -0.078125 -3.210938 C -0.078125 -3.050781 0.046875 -2.882812 0.304688 -2.882812 L 0.570312 -2.882812 L 0.570312 -1.242188 C 0.570312 -0.5625 0.789062 0.0703125 1.691406 0.0703125 C 1.917969 0.0703125 2.054688 0.0625 2.265625 -0.046875 C 2.425781 -0.132812 2.496094 -0.265625 2.496094 -0.382812 C 2.496094 -0.628906 2.230469 -0.835938 1.917969 -0.660156 Z M 1.917969 -0.660156 "/></g></g></g><g fill="#5956d6" fill-opacity="1"><g transform="translate(51.946552, 16.838715)"><g><path d="M 1.992188 -0.621094 C 1.5 -0.621094 1.109375 -0.933594 0.984375 -1.386719 L 3.300781 -1.386719 C 3.699219 -1.386719 3.742188 -1.574219 3.742188 -1.804688 C 3.734375 -2.882812 3.109375 -3.617188 1.992188 -3.617188 C 0.878906 -3.617188 0.175781 -2.835938 0.175781 -1.691406 C 0.175781 -0.648438 0.917969 0.0703125 2.015625 0.0703125 C 2.472656 0.078125 2.949219 -0.0351562 3.273438 -0.347656 C 3.664062 -0.71875 3.175781 -1.246094 2.753906 -0.863281 C 2.527344 -0.691406 2.257812 -0.621094 1.992188 -0.621094 Z M 2 -2.925781 C 2.65625 -2.925781 2.953125 -2.558594 3.003906 -2.007812 L 0.976562 -2.007812 C 1.074219 -2.558594 1.457031 -2.925781 2 -2.925781 Z M 2 -2.925781 "/></g></g></g><g fill="#5956d6" fill-opacity="1"><g transform="translate(56.259623, 16.838715)"><g><path d="M 4.453125 -0.648438 L 4.292969 -0.816406 C 4.558594 -1.183594 4.703125 -1.664062 4.703125 -2.214844 C 4.703125 -3.589844 3.796875 -4.507812 2.4375 -4.507812 C 1.074219 -4.507812 0.152344 -3.589844 0.152344 -2.214844 C 0.152344 -0.84375 1.074219 0.0703125 2.4375 0.0703125 C 2.949219 0.0703125 3.394531 -0.0546875 3.75 -0.292969 L 3.910156 -0.125 C 3.984375 -0.0429688 4.082031 0 4.179688 0 C 4.464844 0.0078125 4.722656 -0.363281 4.453125 -0.648438 Z M 2.4375 -0.640625 C 1.5625 -0.640625 0.976562 -1.273438 0.976562 -2.214844 C 0.976562 -3.164062 1.5625 -3.796875 2.4375 -3.796875 C 3.308594 -3.796875 3.886719 -3.164062 3.886719 -2.214844 C 3.886719 -1.917969 3.824219 -1.644531 3.722656 -1.414062 L 3.511719 -1.628906 C 3.414062 -1.722656 3.300781 -1.761719 3.191406 -1.761719 C 2.980469 -1.761719 2.816406 -1.609375 2.816406 -1.414062 C 2.816406 -1.324219 2.855469 -1.242188 2.933594 -1.148438 L 3.21875 -0.851562 C 3.003906 -0.71875 2.738281 -0.640625 2.4375 -0.640625 Z M 2.4375 -0.640625 "/></g></g></g><g fill="#5956d6" fill-opacity="1"><g transform="translate(61.506374, 16.838715)"><g><path d="M 1.882812 -3.546875 C 1.5625 -3.546875 1.289062 -3.421875 1.085938 -3.148438 L 1.085938 -3.191406 C 1.085938 -3.421875 0.898438 -3.546875 0.703125 -3.546875 C 0.507812 -3.546875 0.300781 -3.414062 0.300781 -3.191406 L 0.300781 -0.355469 C 0.300781 -0.144531 0.460938 0 0.703125 0 C 0.914062 0 1.085938 -0.144531 1.085938 -0.355469 L 1.085938 -1.679688 C 1.085938 -2.398438 1.296875 -2.84375 1.882812 -2.84375 C 2.132812 -2.84375 2.292969 -2.980469 2.292969 -3.207031 C 2.292969 -3.441406 2.132812 -3.546875 1.882812 -3.546875 Z M 1.882812 -3.546875 "/></g></g></g><g fill="#5956d6" fill-opacity="1"><g transform="translate(63.85452, 16.838715)"><g><path d="M 2.4375 -4.507812 C 1.148438 -4.507812 0.160156 -3.617188 0.160156 -2.273438 C 0.160156 -0.863281 1.078125 0.0703125 2.453125 0.0703125 C 3.136719 0.0703125 3.894531 -0.257812 4.277344 -0.792969 C 4.621094 -1.269531 4.019531 -1.664062 3.644531 -1.210938 C 3.378906 -0.890625 2.90625 -0.640625 2.464844 -0.640625 C 1.5625 -0.640625 0.960938 -1.289062 0.960938 -2.273438 C 0.960938 -3.183594 1.546875 -3.796875 2.433594 -3.796875 C 2.863281 -3.796875 3.246094 -3.722656 3.59375 -3.34375 C 3.957031 -2.953125 4.550781 -3.394531 4.171875 -3.816406 C 3.722656 -4.328125 3.121094 -4.507812 2.4375 -4.507812 Z M 2.4375 -4.507812 "/></g></g></g><g fill="#5956d6" fill-opacity="1"><g transform="translate(68.502045, 16.838715)"><g><path d="M 1.992188 -3.617188 C 0.886719 -3.617188 0.140625 -2.863281 0.140625 -1.757812 C 0.152344 -0.660156 0.898438 0.0703125 1.992188 0.0703125 C 3.085938 0.0703125 3.832031 -0.660156 3.847656 -1.757812 C 3.847656 -2.863281 3.109375 -3.617188 1.992188 -3.617188 Z M 1.992188 -0.628906 C 1.367188 -0.628906 0.953125 -1.085938 0.953125 -1.757812 C 0.953125 -2.4375 1.367188 -2.917969 1.992188 -2.917969 C 2.621094 -2.917969 3.03125 -2.4375 3.03125 -1.757812 C 3.03125 -1.085938 2.621094 -0.628906 1.992188 -0.628906 Z M 1.992188 -0.628906 "/></g></g></g><g fill="#5956d6" fill-opacity="1"><g transform="translate(72.633948, 16.838715)"><g><path d="M 3.246094 -4.507812 C 3.050781 -4.507812 2.855469 -4.402344 2.855469 -4.160156 L 2.855469 -3.253906 C 2.550781 -3.496094 2.175781 -3.617188 1.867188 -3.617188 C 0.84375 -3.617188 0.152344 -2.863281 0.152344 -1.8125 C 0.152344 -0.703125 0.792969 0.0625 1.839844 0.0625 C 2.175781 0.0625 2.570312 -0.0703125 2.871094 -0.335938 C 2.878906 -0.125 2.996094 0 3.246094 0 C 3.503906 0 3.652344 -0.132812 3.652344 -0.355469 L 3.652344 -4.160156 C 3.652344 -4.402344 3.441406 -4.507812 3.246094 -4.507812 Z M 1.859375 -0.640625 C 1.308594 -0.640625 0.949219 -1.121094 0.949219 -1.804688 C 0.949219 -2.4375 1.335938 -2.914062 1.921875 -2.914062 C 2.304688 -2.914062 2.703125 -2.703125 2.863281 -2.328125 L 2.871094 -1.253906 C 2.738281 -0.855469 2.320312 -0.640625 1.859375 -0.640625 Z M 1.859375 -0.640625 "/></g></g></g><g fill="#5956d6" fill-opacity="1"><g transform="translate(76.933083, 16.838715)"><g><path d="M 1.992188 -0.621094 C 1.5 -0.621094 1.109375 -0.933594 0.984375 -1.386719 L 3.300781 -1.386719 C 3.699219 -1.386719 3.742188 -1.574219 3.742188 -1.804688 C 3.734375 -2.882812 3.109375 -3.617188 1.992188 -3.617188 C 0.878906 -3.617188 0.175781 -2.835938 0.175781 -1.691406 C 0.175781 -0.648438 0.917969 0.0703125 2.015625 0.0703125 C 2.472656 0.078125 2.949219 -0.0351562 3.273438 -0.347656 C 3.664062 -0.71875 3.175781 -1.246094 2.753906 -0.863281 C 2.527344 -0.691406 2.257812 -0.621094 1.992188 -0.621094 Z M 2 -2.925781 C 2.65625 -2.925781 2.953125 -2.558594 3.003906 -2.007812 L 0.976562 -2.007812 C 1.074219 -2.558594 1.457031 -2.925781 2 -2.925781 Z M 2 -2.925781 "/></g></g></g><g fill="#5956d6" fill-opacity="1"><g transform="translate(81.246154, 16.838715)"><g><path d="M 0.5 -0.746094 C 0.242188 -0.746094 0.0429688 -0.578125 0.0429688 -0.335938 C 0.0429688 -0.0976562 0.242188 0.0703125 0.5 0.0703125 C 0.773438 0.0703125 0.949219 -0.0976562 0.949219 -0.335938 C 0.949219 -0.578125 0.773438 -0.746094 0.5 -0.746094 Z M 0.5 -0.746094 "/></g></g></g><g fill="#5956d6" fill-opacity="1"><g transform="translate(82.228616, 16.838715)"><g><path d="M 1.046875 -4.070312 L 1.046875 -4.160156 C 1.046875 -4.398438 0.835938 -4.507812 0.640625 -4.507812 C 0.433594 -4.507812 0.238281 -4.398438 0.238281 -4.160156 L 0.238281 -4.070312 C 0.238281 -3.832031 0.433594 -3.722656 0.640625 -3.722656 C 0.835938 -3.722656 1.046875 -3.832031 1.046875 -4.070312 Z M 0.242188 -3.207031 L 0.242188 -0.339844 C 0.242188 -0.113281 0.453125 0 0.640625 0 C 0.835938 0 1.039062 -0.113281 1.039062 -0.339844 L 1.039062 -3.210938 C 1.039062 -3.429688 0.835938 -3.546875 0.640625 -3.546875 C 0.453125 -3.546875 0.242188 -3.429688 0.242188 -3.207031 Z M 0.242188 -3.207031 "/></g></g></g><g fill="#5956d6" fill-opacity="1"><g transform="translate(83.636109, 16.838715)"><g><path d="M 1.992188 -3.617188 C 0.886719 -3.617188 0.140625 -2.863281 0.140625 -1.757812 C 0.152344 -0.660156 0.898438 0.0703125 1.992188 0.0703125 C 3.085938 0.0703125 3.832031 -0.660156 3.847656 -1.757812 C 3.847656 -2.863281 3.109375 -3.617188 1.992188 -3.617188 Z M 1.992188 -0.628906 C 1.367188 -0.628906 0.953125 -1.085938 0.953125 -1.757812 C 0.953125 -2.4375 1.367188 -2.917969 1.992188 -2.917969 C 2.621094 -2.917969 3.03125 -2.4375 3.03125 -1.757812 C 3.03125 -1.085938 2.621094 -0.628906 1.992188 -0.628906 Z M 1.992188 -0.628906 "/></g></g></g><g fill="#5956d6" fill-opacity="1"><g transform="translate(23.422358, 17.056453)"><g><path d="M 5.464844 -1.371094 L 5.464844 -2.765625 C 5.464844 -3.050781 5.339844 -3.246094 4.929688 -3.246094 L 3.160156 -3.246094 C 2.828125 -3.246094 2.667969 -3.027344 2.667969 -2.792969 C 2.667969 -2.582031 2.820312 -2.367188 3.160156 -2.367188 L 4.457031 -2.367188 L 4.457031 -1.460938 C 4.109375 -1.058594 3.550781 -0.808594 3.035156 -0.808594 C 1.941406 -0.808594 1.210938 -1.664062 1.191406 -2.855469 C 1.191406 -4.058594 1.941406 -4.875 3.050781 -4.875 C 3.53125 -4.875 4.039062 -4.707031 4.421875 -4.308594 C 4.9375 -3.765625 5.6875 -4.378906 5.179688 -4.910156 C 4.652344 -5.472656 3.835938 -5.757812 3.050781 -5.757812 C 1.324219 -5.757812 0.167969 -4.609375 0.167969 -2.882812 C 0.132812 -1.113281 1.273438 0.0898438 3.027344 0.0898438 C 3.863281 0.0898438 4.789062 -0.363281 5.332031 -0.996094 C 5.4375 -1.113281 5.464844 -1.253906 5.464844 -1.371094 Z M 5.464844 -1.371094 "/></g></g></g></svg>