<svg xmlns="http://www.w3.org/2000/svg" xmlns:xlink="http://www.w3.org/1999/xlink" width="120" zoomAndPan="magnify" viewBox="0 0 90 30.000001" height="40" preserveAspectRatio="xMidYMid meet" version="1.0"><defs><g/><clipPath id="46fa2f560e"><path d="M 4.355469 9 L 10 9 L 10 14 L 4.355469 14 Z M 4.355469 9 " clip-rule="nonzero"/></clipPath><clipPath id="b065cad8fb"><path d="M 11 9 L 16.695312 9 L 16.695312 14 L 11 14 Z M 11 9 " clip-rule="nonzero"/></clipPath><clipPath id="15f0f52d98"><path d="M 12 16 L 16.695312 16 L 16.695312 20.792969 L 12 20.792969 Z M 12 16 " clip-rule="nonzero"/></clipPath><clipPath id="1755f973ad"><path d="M 4.355469 15 L 10 15 L 10 20.792969 L 4.355469 20.792969 Z M 4.355469 15 " clip-rule="nonzero"/></clipPath><clipPath id="b66c4a13e1"><path d="M 84 13 L 88.546875 13 L 88.546875 18 L 84 18 Z M 84 13 " clip-rule="nonzero"/></clipPath></defs><g clip-path="url(#46fa2f560e)"><path stroke-linecap="round" transform="matrix(0.514113, 0, 0, 0.514113, 4.354837, 8.455647)" fill="none" stroke-linejoin="round" d="M 1.999513 8.998772 L 1.999513 6.499017 C 1.999513 4.006859 4.012993 2.000977 6.497552 2.000977 L 8.997308 2.000977 " stroke="#5956d6" stroke-width="1.5" stroke-opacity="1" stroke-miterlimit="4"/></g><g clip-path="url(#b065cad8fb)"><path stroke-linecap="round" transform="matrix(0.514113, 0, 0, 0.514113, 4.354837, 8.455647)" fill="none" stroke-linejoin="round" d="M 14.999759 2.000977 L 17.499514 2.000977 C 19.991671 2.000977 21.997554 4.006859 21.997554 6.499017 L 21.997554 8.998772 " stroke="#5956d6" stroke-width="1.5" stroke-opacity="1" stroke-miterlimit="4"/></g><g clip-path="url(#15f0f52d98)"><path stroke-linecap="round" transform="matrix(0.514113, 0, 0, 0.514113, 4.354837, 8.455647)" fill="none" stroke-linejoin="round" d="M 21.997554 15.996566 L 21.997554 17.500978 C 21.997554 19.993135 19.991671 21.999018 17.499514 21.999018 L 16.0027 21.999018 " stroke="#5956d6" stroke-width="1.5" stroke-opacity="1" stroke-miterlimit="4"/></g><g clip-path="url(#1755f973ad)"><path stroke-linecap="round" transform="matrix(0.514113, 0, 0, 0.514113, 4.354837, 8.455647)" fill="none" stroke-linejoin="round" d="M 8.997308 21.999018 L 6.497552 21.999018 C 4.012993 21.999018 1.999513 19.993135 1.999513 17.500978 L 1.999513 15.001223 " stroke="#5956d6" stroke-width="1.5" stroke-opacity="1" stroke-miterlimit="4"/></g><path stroke-linecap="round" transform="matrix(0.514113, 0, 0, 0.514113, 4.354837, 8.455647)" fill="none" stroke-linejoin="round" d="M 10.501719 7.000487 L 10.501719 8.998772 C 10.501719 10.001713 10.000249 10.503184 8.997308 10.503184 L 6.999023 10.503184 C 6.00368 10.503184 5.502209 10.001713 5.502209 8.998772 L 5.502209 7.000487 C 5.502209 5.997546 6.00368 5.503673 6.999023 5.503673 L 8.997308 5.503673 C 10.000249 5.503673 10.501719 5.997546 10.501719 7.000487 Z M 10.501719 7.000487 " stroke="#5956d6" stroke-width="1.5" stroke-opacity="0.4" stroke-miterlimit="4"/><path stroke-linecap="round" transform="matrix(0.514113, 0, 0, 0.514113, 4.354837, 8.455647)" fill="none" stroke-linejoin="round" d="M 18.502455 7.000487 L 18.502455 8.998772 C 18.502455 10.001713 18.000985 10.503184 16.998044 10.503184 L 14.999759 10.503184 C 13.996818 10.503184 13.502945 10.001713 13.502945 8.998772 L 13.502945 7.000487 C 13.502945 5.997546 13.996818 5.503673 14.999759 5.503673 L 16.998044 5.503673 C 18.000985 5.503673 18.502455 5.997546 18.502455 7.000487 Z M 18.502455 7.000487 " stroke="#5956d6" stroke-width="1.5" stroke-opacity="0.4" stroke-miterlimit="4"/><path stroke-linecap="round" transform="matrix(0.514113, 0, 0, 0.514113, 4.354837, 8.455647)" fill="none" stroke-linejoin="round" d="M 10.501719 15.001223 L 10.501719 16.999508 C 10.501719 18.002449 10.000249 18.496321 8.997308 18.496321 L 6.999023 18.496321 C 6.00368 18.496321 5.502209 18.002449 5.502209 16.999508 L 5.502209 15.001223 C 5.502209 13.998282 6.00368 13.496811 6.999023 13.496811 L 8.997308 13.496811 C 10.000249 13.496811 10.501719 13.998282 10.501719 15.001223 Z M 10.501719 15.001223 " stroke="#5956d6" stroke-width="1.5" stroke-opacity="0.4" stroke-miterlimit="4"/><path stroke-linecap="round" transform="matrix(0.514113, 0, 0, 0.514113, 4.354837, 8.455647)" fill="none" stroke-linejoin="round" d="M 18.502455 15.001223 L 18.502455 16.999508 C 18.502455 18.002449 18.000985 18.496321 16.998044 18.496321 L 14.999759 18.496321 C 13.996818 18.496321 13.502945 18.002449 13.502945 16.999508 L 13.502945 15.001223 C 13.502945 13.998282 13.996818 13.496811 14.999759 13.496811 L 16.998044 13.496811 C 18.000985 13.496811 18.502455 13.998282 18.502455 15.001223 Z M 18.502455 15.001223 " stroke="#5956d6" stroke-width="1.5" stroke-opacity="0.4" stroke-miterlimit="4"/><g fill="#5956d6" fill-opacity="1"><g transform="translate(19.355596, 17.161294)"><g><path d="M 3.707031 -4.039062 C 3.476562 -4.039062 3.332031 -3.9375 3.277344 -3.761719 C 2.921875 -4.023438 2.484375 -4.117188 2.125 -4.117188 C 0.960938 -4.117188 0.175781 -3.261719 0.175781 -2.03125 C 0.175781 -0.753906 0.945312 0.078125 2.09375 0.078125 C 2.460938 0.078125 2.921875 -0.046875 3.277344 -0.316406 L 3.277344 -0.246094 C 3.277344 0.414062 2.738281 0.707031 2.167969 0.707031 C 1.800781 0.707031 1.554688 0.652344 1.230469 0.363281 C 0.800781 -0.0078125 0.207031 0.554688 0.636719 0.984375 C 1.0625 1.390625 1.546875 1.523438 2.167969 1.523438 C 3.277344 1.523438 4.167969 0.921875 4.167969 -0.246094 L 4.167969 -3.585938 C 4.167969 -3.832031 3.984375 -4.039062 3.707031 -4.039062 Z M 2.117188 -0.722656 C 1.492188 -0.722656 1.078125 -1.238281 1.078125 -2.023438 C 1.078125 -2.777344 1.523438 -3.316406 2.191406 -3.316406 C 2.609375 -3.316406 3.070312 -3.085938 3.269531 -2.683594 L 3.269531 -1.355469 C 3.101562 -0.9375 2.601562 -0.722656 2.117188 -0.722656 Z M 2.117188 -0.722656 "/></g></g></g><g fill="#5956d6" fill-opacity="1"><g transform="translate(24.259764, 17.161294)"><g><path d="M 2.269531 -0.707031 C 1.707031 -0.707031 1.261719 -1.0625 1.117188 -1.578125 L 3.761719 -1.578125 C 4.214844 -1.578125 4.261719 -1.792969 4.261719 -2.054688 C 4.253906 -3.285156 3.539062 -4.117188 2.269531 -4.117188 C 1 -4.117188 0.199219 -3.230469 0.199219 -1.929688 C 0.199219 -0.738281 1.046875 0.078125 2.292969 0.078125 C 2.816406 0.0859375 3.355469 -0.0390625 3.730469 -0.398438 C 4.175781 -0.816406 3.617188 -1.421875 3.132812 -0.984375 C 2.878906 -0.785156 2.570312 -0.707031 2.269531 -0.707031 Z M 2.277344 -3.332031 C 3.023438 -3.332031 3.363281 -2.914062 3.421875 -2.285156 L 1.109375 -2.285156 C 1.222656 -2.914062 1.660156 -3.332031 2.277344 -3.332031 Z M 2.277344 -3.332031 "/></g></g></g><g fill="#5956d6" fill-opacity="1"><g transform="translate(29.171874, 17.161294)"><g><path d="M 2.675781 -4.117188 C 2.269531 -4.117188 1.753906 -4.015625 1.300781 -3.59375 L 1.300781 -3.648438 C 1.300781 -3.894531 1.070312 -4.039062 0.847656 -4.039062 C 0.617188 -4.039062 0.398438 -3.894531 0.398438 -3.632812 L 0.398438 -0.40625 C 0.398438 -0.152344 0.585938 0 0.863281 0 C 1.152344 0 1.300781 -0.152344 1.300781 -0.40625 L 1.300781 -1.96875 C 1.300781 -2.894531 2.125 -3.324219 2.539062 -3.324219 C 3.214844 -3.324219 3.515625 -2.878906 3.515625 -2.222656 L 3.515625 -0.414062 C 3.515625 -0.167969 3.699219 0 3.96875 0 C 4.253906 0 4.421875 -0.167969 4.421875 -0.414062 L 4.421875 -2.207031 C 4.421875 -3.339844 3.777344 -4.117188 2.675781 -4.117188 Z M 2.675781 -4.117188 "/></g></g></g><g fill="#5956d6" fill-opacity="1"><g transform="translate(34.290304, 17.161294)"><g><path d="M 2.269531 -0.707031 C 1.707031 -0.707031 1.261719 -1.0625 1.117188 -1.578125 L 3.761719 -1.578125 C 4.214844 -1.578125 4.261719 -1.792969 4.261719 -2.054688 C 4.253906 -3.285156 3.539062 -4.117188 2.269531 -4.117188 C 1 -4.117188 0.199219 -3.230469 0.199219 -1.929688 C 0.199219 -0.738281 1.046875 0.078125 2.292969 0.078125 C 2.816406 0.0859375 3.355469 -0.0390625 3.730469 -0.398438 C 4.175781 -0.816406 3.617188 -1.421875 3.132812 -0.984375 C 2.878906 -0.785156 2.570312 -0.707031 2.269531 -0.707031 Z M 2.277344 -3.332031 C 3.023438 -3.332031 3.363281 -2.914062 3.421875 -2.285156 L 1.109375 -2.285156 C 1.222656 -2.914062 1.660156 -3.332031 2.277344 -3.332031 Z M 2.277344 -3.332031 "/></g></g></g><g fill="#5956d6" fill-opacity="1"><g transform="translate(39.202413, 17.161294)"><g><path d="M 2.144531 -4.039062 C 1.777344 -4.039062 1.46875 -3.894531 1.238281 -3.585938 L 1.238281 -3.632812 C 1.238281 -3.894531 1.023438 -4.039062 0.800781 -4.039062 C 0.578125 -4.039062 0.339844 -3.886719 0.339844 -3.632812 L 0.339844 -0.40625 C 0.339844 -0.167969 0.523438 0 0.800781 0 C 1.039062 0 1.238281 -0.167969 1.238281 -0.40625 L 1.238281 -1.914062 C 1.238281 -2.730469 1.476562 -3.238281 2.144531 -3.238281 C 2.429688 -3.238281 2.609375 -3.394531 2.609375 -3.648438 C 2.609375 -3.921875 2.429688 -4.039062 2.144531 -4.039062 Z M 2.144531 -4.039062 "/></g></g></g><g fill="#5956d6" fill-opacity="1"><g transform="translate(41.87669, 17.161294)"><g><path d="M 3.691406 -4.039062 C 3.4375 -4.039062 3.285156 -3.914062 3.246094 -3.722656 C 2.894531 -3.992188 2.453125 -4.117188 2.109375 -4.117188 C 0.945312 -4.117188 0.160156 -3.261719 0.160156 -2.03125 C 0.160156 -0.753906 0.855469 0.078125 2.007812 0.078125 C 2.40625 0.078125 2.878906 -0.046875 3.246094 -0.332031 C 3.277344 -0.136719 3.429688 0 3.691406 0 C 3.960938 0 4.140625 -0.167969 4.140625 -0.414062 L 4.140625 -3.625 C 4.140625 -3.871094 3.960938 -4.039062 3.691406 -4.039062 Z M 2.101562 -0.722656 C 1.476562 -0.722656 1.0625 -1.238281 1.0625 -2.023438 C 1.0625 -2.777344 1.507812 -3.316406 2.175781 -3.316406 C 2.585938 -3.316406 3.039062 -3.09375 3.238281 -2.707031 L 3.238281 -1.332031 C 3.054688 -0.929688 2.570312 -0.722656 2.101562 -0.722656 Z M 2.101562 -0.722656 "/></g></g></g><g fill="#5956d6" fill-opacity="1"><g transform="translate(46.764996, 17.161294)"><g><path d="M 2.183594 -0.753906 C 2.125 -0.730469 2.007812 -0.699219 1.929688 -0.699219 C 1.585938 -0.699219 1.546875 -1.0625 1.546875 -1.414062 L 1.546875 -3.285156 L 2.167969 -3.285156 C 2.445312 -3.285156 2.59375 -3.46875 2.59375 -3.660156 C 2.59375 -3.847656 2.445312 -4.039062 2.167969 -4.039062 L 1.546875 -4.039062 L 1.546875 -4.722656 C 1.546875 -4.992188 1.316406 -5.132812 1.09375 -5.132812 C 0.863281 -5.132812 0.652344 -4.992188 0.652344 -4.722656 L 0.652344 -4.039062 L 0.347656 -4.039062 C 0.0625 -4.039062 -0.0859375 -3.847656 -0.0859375 -3.660156 C -0.0859375 -3.476562 0.0546875 -3.285156 0.347656 -3.285156 L 0.652344 -3.285156 L 0.652344 -1.414062 C 0.652344 -0.644531 0.898438 0.078125 1.929688 0.078125 C 2.183594 0.078125 2.339844 0.0703125 2.578125 -0.0546875 C 2.761719 -0.152344 2.839844 -0.300781 2.839844 -0.4375 C 2.839844 -0.714844 2.539062 -0.953125 2.183594 -0.753906 Z M 2.183594 -0.753906 "/></g></g></g><g fill="#5956d6" fill-opacity="1"><g transform="translate(49.82018, 17.161294)"><g><path d="M 2.269531 -0.707031 C 1.707031 -0.707031 1.261719 -1.0625 1.117188 -1.578125 L 3.761719 -1.578125 C 4.214844 -1.578125 4.261719 -1.792969 4.261719 -2.054688 C 4.253906 -3.285156 3.539062 -4.117188 2.269531 -4.117188 C 1 -4.117188 0.199219 -3.230469 0.199219 -1.929688 C 0.199219 -0.738281 1.046875 0.078125 2.292969 0.078125 C 2.816406 0.0859375 3.355469 -0.0390625 3.730469 -0.398438 C 4.175781 -0.816406 3.617188 -1.421875 3.132812 -0.984375 C 2.878906 -0.785156 2.570312 -0.707031 2.269531 -0.707031 Z M 2.277344 -3.332031 C 3.023438 -3.332031 3.363281 -2.914062 3.421875 -2.285156 L 1.109375 -2.285156 C 1.222656 -2.914062 1.660156 -3.332031 2.277344 -3.332031 Z M 2.277344 -3.332031 "/></g></g></g><g fill="#5956d6" fill-opacity="1"><g transform="translate(54.732289, 17.161294)"><g><path d="M 3.714844 -4.039062 C 3.476562 -4.039062 3.332031 -3.945312 3.292969 -3.761719 C 2.929688 -4.023438 2.5 -4.117188 2.144531 -4.117188 C 0.976562 -4.117188 0.191406 -3.285156 0.191406 -2.0625 C 0.191406 -0.785156 0.960938 0.078125 2.109375 0.078125 C 2.46875 0.078125 2.929688 -0.046875 3.277344 -0.285156 L 3.277344 0.929688 C 3.277344 1.191406 3.5 1.332031 3.722656 1.332031 C 3.945312 1.332031 4.175781 1.191406 4.175781 0.929688 L 4.175781 -3.632812 C 4.175781 -3.886719 4.007812 -4.039062 3.714844 -4.039062 Z M 2.132812 -0.722656 C 1.507812 -0.722656 1.09375 -1.261719 1.09375 -2.054688 C 1.09375 -2.808594 1.539062 -3.316406 2.207031 -3.316406 C 2.625 -3.316406 3.078125 -3.085938 3.277344 -2.691406 L 3.277344 -1.371094 C 3.109375 -0.960938 2.617188 -0.722656 2.132812 -0.722656 Z M 2.132812 -0.722656 "/></g></g></g><g fill="#5956d6" fill-opacity="1"><g transform="translate(59.660271, 17.161294)"><g><path d="M 2.144531 -4.039062 C 1.777344 -4.039062 1.46875 -3.894531 1.238281 -3.585938 L 1.238281 -3.632812 C 1.238281 -3.894531 1.023438 -4.039062 0.800781 -4.039062 C 0.578125 -4.039062 0.339844 -3.886719 0.339844 -3.632812 L 0.339844 -0.40625 C 0.339844 -0.167969 0.523438 0 0.800781 0 C 1.039062 0 1.238281 -0.167969 1.238281 -0.40625 L 1.238281 -1.914062 C 1.238281 -2.730469 1.476562 -3.238281 2.144531 -3.238281 C 2.429688 -3.238281 2.609375 -3.394531 2.609375 -3.648438 C 2.609375 -3.921875 2.429688 -4.039062 2.144531 -4.039062 Z M 2.144531 -4.039062 "/></g></g></g><g fill="#5956d6" fill-opacity="1"><g transform="translate(62.334548, 17.161294)"><g><path d="M 3.132812 -2.953125 C 3.5 -2.523438 4.117188 -3.03125 3.730469 -3.476562 C 3.300781 -3.96875 2.800781 -4.117188 2.222656 -4.117188 C 0.976562 -4.117188 0.152344 -3.285156 0.152344 -2 C 0.152344 -0.753906 0.984375 0.078125 2.246094 0.078125 C 2.816406 0.078125 3.371094 -0.101562 3.785156 -0.554688 C 4.183594 -0.992188 3.632812 -1.53125 3.175781 -1.0625 C 2.921875 -0.808594 2.570312 -0.707031 2.253906 -0.707031 C 1.539062 -0.707031 1.0625 -1.222656 1.0625 -2.007812 C 1.0625 -2.816406 1.523438 -3.339844 2.222656 -3.339844 C 2.539062 -3.339844 2.886719 -3.238281 3.132812 -2.953125 Z M 3.132812 -2.953125 "/></g></g></g><g fill="#5956d6" fill-opacity="1"><g transform="translate(66.603872, 17.161294)"><g><path d="M 2.269531 -4.117188 C 1.007812 -4.117188 0.160156 -3.261719 0.160156 -2 C 0.175781 -0.753906 1.023438 0.078125 2.269531 0.078125 C 3.515625 0.078125 4.363281 -0.753906 4.378906 -2 C 4.378906 -3.261719 3.539062 -4.117188 2.269531 -4.117188 Z M 2.269531 -0.714844 C 1.554688 -0.714844 1.085938 -1.238281 1.085938 -2 C 1.085938 -2.777344 1.554688 -3.324219 2.269531 -3.324219 C 2.984375 -3.324219 3.453125 -2.777344 3.453125 -2 C 3.453125 -1.238281 2.984375 -0.714844 2.269531 -0.714844 Z M 2.269531 -0.714844 "/></g></g></g><g fill="#5956d6" fill-opacity="1"><g transform="translate(71.309651, 17.161294)"><g><path d="M 3.699219 -5.132812 C 3.476562 -5.132812 3.253906 -5.015625 3.253906 -4.738281 L 3.253906 -3.707031 C 2.90625 -3.984375 2.476562 -4.117188 2.125 -4.117188 C 0.960938 -4.117188 0.175781 -3.261719 0.175781 -2.0625 C 0.175781 -0.800781 0.90625 0.0703125 2.09375 0.0703125 C 2.476562 0.0703125 2.929688 -0.078125 3.269531 -0.382812 C 3.277344 -0.144531 3.414062 0 3.699219 0 C 3.992188 0 4.15625 -0.152344 4.15625 -0.40625 L 4.15625 -4.738281 C 4.15625 -5.015625 3.921875 -5.132812 3.699219 -5.132812 Z M 2.117188 -0.730469 C 1.492188 -0.730469 1.078125 -1.277344 1.078125 -2.054688 C 1.078125 -2.777344 1.523438 -3.316406 2.191406 -3.316406 C 2.625 -3.316406 3.078125 -3.078125 3.261719 -2.652344 L 3.269531 -1.429688 C 3.117188 -0.976562 2.640625 -0.730469 2.117188 -0.730469 Z M 2.117188 -0.730469 "/></g></g></g><g fill="#5956d6" fill-opacity="1"><g transform="translate(76.205888, 17.161294)"><g><path d="M 2.269531 -0.707031 C 1.707031 -0.707031 1.261719 -1.0625 1.117188 -1.578125 L 3.761719 -1.578125 C 4.214844 -1.578125 4.261719 -1.792969 4.261719 -2.054688 C 4.253906 -3.285156 3.539062 -4.117188 2.269531 -4.117188 C 1 -4.117188 0.199219 -3.230469 0.199219 -1.929688 C 0.199219 -0.738281 1.046875 0.078125 2.292969 0.078125 C 2.816406 0.0859375 3.355469 -0.0390625 3.730469 -0.398438 C 4.175781 -0.816406 3.617188 -1.421875 3.132812 -0.984375 C 2.878906 -0.785156 2.570312 -0.707031 2.269531 -0.707031 Z M 2.277344 -3.332031 C 3.023438 -3.332031 3.363281 -2.914062 3.421875 -2.285156 L 1.109375 -2.285156 C 1.222656 -2.914062 1.660156 -3.332031 2.277344 -3.332031 Z M 2.277344 -3.332031 "/></g></g></g><g fill="#5956d6" fill-opacity="1"><g transform="translate(81.117998, 17.161294)"><g><path d="M 0.570312 -0.847656 C 0.277344 -0.847656 0.046875 -0.660156 0.046875 -0.382812 C 0.046875 -0.109375 0.277344 0.078125 0.570312 0.078125 C 0.878906 0.078125 1.078125 -0.109375 1.078125 -0.382812 C 1.078125 -0.660156 0.878906 -0.847656 0.570312 -0.847656 Z M 0.570312 -0.847656 "/></g></g></g><g fill="#5956d6" fill-opacity="1"><g transform="translate(82.236914, 17.161294)"><g><path d="M 1.191406 -4.632812 L 1.191406 -4.738281 C 1.191406 -5.007812 0.953125 -5.132812 0.730469 -5.132812 C 0.492188 -5.132812 0.269531 -5.007812 0.269531 -4.738281 L 0.269531 -4.632812 C 0.269531 -4.363281 0.492188 -4.238281 0.730469 -4.238281 C 0.953125 -4.238281 1.191406 -4.363281 1.191406 -4.632812 Z M 0.277344 -3.648438 L 0.277344 -0.390625 C 0.277344 -0.128906 0.515625 0 0.730469 0 C 0.953125 0 1.183594 -0.128906 1.183594 -0.390625 L 1.183594 -3.660156 C 1.183594 -3.902344 0.953125 -4.039062 0.730469 -4.039062 C 0.515625 -4.039062 0.277344 -3.902344 0.277344 -3.648438 Z M 0.277344 -3.648438 "/></g></g></g><g clip-path="url(#b66c4a13e1)"><g fill="#5956d6" fill-opacity="1"><g transform="translate(83.839892, 17.161294)"><g><path d="M 2.269531 -4.117188 C 1.007812 -4.117188 0.160156 -3.261719 0.160156 -2 C 0.175781 -0.753906 1.023438 0.078125 2.269531 0.078125 C 3.515625 0.078125 4.363281 -0.753906 4.378906 -2 C 4.378906 -3.261719 3.539062 -4.117188 2.269531 -4.117188 Z M 2.269531 -0.714844 C 1.554688 -0.714844 1.085938 -1.238281 1.085938 -2 C 1.085938 -2.777344 1.554688 -3.324219 2.269531 -3.324219 C 2.984375 -3.324219 3.453125 -2.777344 3.453125 -2 C 3.453125 -1.238281 2.984375 -0.714844 2.269531 -0.714844 Z M 2.269531 -0.714844 "/></g></g></g></g></svg>