<svg xmlns="http://www.w3.org/2000/svg" xmlns:xlink="http://www.w3.org/1999/xlink" width="120" zoomAndPan="magnify" viewBox="0 0 90 30.000001" height="40" preserveAspectRatio="xMidYMid meet" version="1.0"><defs><g/><clipPath id="a01b16f6cc"><path d="M 1.453125 0 L 88.546875 0 L 88.546875 29.03125 L 1.453125 29.03125 Z M 1.453125 0 " clip-rule="nonzero"/></clipPath></defs><g clip-path="url(#a01b16f6cc)"><path fill="#ffffff" d="M 1.453125 0 L 88.546875 0 L 88.546875 29.03125 L 1.453125 29.03125 Z M 1.453125 0 " fill-opacity="1" fill-rule="nonzero"/><path fill="#ffffff" d="M 1.453125 0 L 88.546875 0 L 88.546875 29.03125 L 1.453125 29.03125 Z M 1.453125 0 " fill-opacity="1" fill-rule="nonzero"/></g><path stroke-linecap="round" transform="matrix(0.78629, 0, 0, 0.78629, 2.848013, 5.225808)" fill="none" stroke-linejoin="round" d="M 2.00163 8.997915 L 2.00163 6.499036 C 2.00163 4.010094 4.008681 1.998075 6.497623 1.998075 L 9.00147 1.998075 " stroke="#5956d6" stroke-width="1.5" stroke-opacity="1" stroke-miterlimit="4"/><path stroke-linecap="round" transform="matrix(0.78629, 0, 0, 0.78629, 2.848013, 5.225808)" fill="none" stroke-linejoin="round" d="M 14.997784 1.998075 L 17.50163 1.998075 C 19.990573 1.998075 21.997624 4.010094 21.997624 6.499036 L 21.997624 8.997915 " stroke="#5956d6" stroke-width="1.5" stroke-opacity="1" stroke-miterlimit="4"/><path stroke-linecap="round" transform="matrix(0.78629, 0, 0, 0.78629, 2.848013, 5.225808)" fill="none" stroke-linejoin="round" d="M 21.997624 15.997755 L 21.997624 17.498076 C 21.997624 19.991986 19.990573 21.999037 17.50163 21.999037 L 16.00131 21.999037 " stroke="#5956d6" stroke-width="1.5" stroke-opacity="1" stroke-miterlimit="4"/><path stroke-linecap="round" transform="matrix(0.78629, 0, 0, 0.78629, 2.848013, 5.225808)" fill="none" stroke-linejoin="round" d="M 9.00147 21.999037 L 6.497623 21.999037 C 4.008681 21.999037 2.00163 19.991986 2.00163 17.498076 L 2.00163 14.999197 " stroke="#5956d6" stroke-width="1.5" stroke-opacity="1" stroke-miterlimit="4"/><path stroke-linecap="round" transform="matrix(0.78629, 0, 0, 0.78629, 2.848013, 5.225808)" fill="none" stroke-linejoin="round" d="M 10.50179 7.000799 L 10.50179 8.997915 C 10.50179 10.00144 10.000027 10.498235 9.00147 10.498235 L 6.999386 10.498235 C 6.000828 10.498235 5.499066 10.00144 5.499066 8.997915 L 5.499066 7.000799 C 5.499066 6.002242 6.000828 5.500479 6.999386 5.500479 L 9.00147 5.500479 C 10.000027 5.500479 10.50179 6.002242 10.50179 7.000799 Z M 10.50179 7.000799 " stroke="#5956d6" stroke-width="1.5" stroke-opacity="0.4" stroke-miterlimit="4"/><path stroke-linecap="round" transform="matrix(0.78629, 0, 0, 0.78629, 2.848013, 5.225808)" fill="none" stroke-linejoin="round" d="M 18.500188 7.000799 L 18.500188 8.997915 C 18.500188 10.00144 17.998425 10.498235 16.999868 10.498235 L 14.997784 10.498235 C 13.999226 10.498235 13.502431 10.00144 13.502431 8.997915 L 13.502431 7.000799 C 13.502431 6.002242 13.999226 5.500479 14.997784 5.500479 L 16.999868 5.500479 C 17.998425 5.500479 18.500188 6.002242 18.500188 7.000799 Z M 18.500188 7.000799 " stroke="#5956d6" stroke-width="1.5" stroke-opacity="0.4" stroke-miterlimit="4"/><path stroke-linecap="round" transform="matrix(0.78629, 0, 0, 0.78629, 2.848013, 5.225808)" fill="none" stroke-linejoin="round" d="M 10.50179 14.999197 L 10.50179 17.001281 C 10.50179 17.999838 10.000027 18.501601 9.00147 18.501601 L 6.999386 18.501601 C 6.000828 18.501601 5.499066 17.999838 5.499066 17.001281 L 5.499066 14.999197 C 5.499066 14.000639 6.000828 13.498877 6.999386 13.498877 L 9.00147 13.498877 C 10.000027 13.498877 10.50179 14.000639 10.50179 14.999197 Z M 10.50179 14.999197 " stroke="#5956d6" stroke-width="1.5" stroke-opacity="0.4" stroke-miterlimit="4"/><path stroke-linecap="round" transform="matrix(0.78629, 0, 0, 0.78629, 2.848013, 5.225808)" fill="none" stroke-linejoin="round" d="M 18.500188 14.999197 L 18.500188 17.001281 C 18.500188 17.999838 17.998425 18.501601 16.999868 18.501601 L 14.997784 18.501601 C 13.999226 18.501601 13.502431 17.999838 13.502431 17.001281 L 13.502431 14.999197 C 13.502431 14.000639 13.999226 13.498877 14.997784 13.498877 L 16.999868 13.498877 C 17.998425 13.498877 18.500188 14.000639 18.500188 14.999197 Z M 18.500188 14.999197 " stroke="#5956d6" stroke-width="1.5" stroke-opacity="0.4" stroke-miterlimit="4"/><g fill="#5956d6" fill-opacity="1"><g transform="translate(24.311727, 17.096781)"><g><path d="M 1.9375 -2.21875 C 2.132812 -2.21875 2.273438 -2.265625 2.359375 -2.359375 C 2.453125 -2.460938 2.5 -2.59375 2.5 -2.75 C 2.5 -2.914062 2.453125 -3.039062 2.359375 -3.125 C 2.273438 -3.21875 2.132812 -3.265625 1.9375 -3.265625 C 1.738281 -3.265625 1.59375 -3.21875 1.5 -3.125 C 1.414062 -3.039062 1.375 -2.914062 1.375 -2.75 C 1.375 -2.675781 1.382812 -2.601562 1.40625 -2.53125 C 1.425781 -2.46875 1.457031 -2.410156 1.5 -2.359375 C 1.550781 -2.316406 1.609375 -2.28125 1.671875 -2.25 C 1.742188 -2.226562 1.832031 -2.21875 1.9375 -2.21875 Z M 2.859375 0.140625 C 2.859375 0.046875 2.816406 -0.0195312 2.734375 -0.0625 C 2.648438 -0.101562 2.539062 -0.128906 2.40625 -0.140625 C 2.269531 -0.160156 2.113281 -0.171875 1.9375 -0.171875 C 1.769531 -0.179688 1.601562 -0.195312 1.4375 -0.21875 C 1.363281 -0.164062 1.300781 -0.109375 1.25 -0.046875 C 1.207031 0.015625 1.1875 0.0859375 1.1875 0.171875 C 1.1875 0.234375 1.195312 0.285156 1.21875 0.328125 C 1.238281 0.367188 1.28125 0.40625 1.34375 0.4375 C 1.40625 0.476562 1.488281 0.507812 1.59375 0.53125 C 1.695312 0.550781 1.832031 0.5625 2 0.5625 C 2.164062 0.5625 2.304688 0.550781 2.421875 0.53125 C 2.535156 0.507812 2.625 0.476562 2.6875 0.4375 C 2.75 0.40625 2.789062 0.363281 2.8125 0.3125 C 2.84375 0.257812 2.859375 0.203125 2.859375 0.140625 Z M 4.046875 -3.890625 L 4.046875 -3.453125 C 4.046875 -3.378906 4.023438 -3.320312 3.984375 -3.28125 C 3.953125 -3.25 3.890625 -3.222656 3.796875 -3.203125 L 3.5 -3.140625 C 3.519531 -3.078125 3.535156 -3.015625 3.546875 -2.953125 C 3.554688 -2.898438 3.5625 -2.84375 3.5625 -2.78125 C 3.5625 -2.570312 3.519531 -2.390625 3.4375 -2.234375 C 3.351562 -2.078125 3.238281 -1.941406 3.09375 -1.828125 C 2.945312 -1.710938 2.773438 -1.625 2.578125 -1.5625 C 2.378906 -1.507812 2.164062 -1.484375 1.9375 -1.484375 C 1.875 -1.484375 1.8125 -1.484375 1.75 -1.484375 C 1.6875 -1.484375 1.628906 -1.488281 1.578125 -1.5 C 1.492188 -1.445312 1.453125 -1.390625 1.453125 -1.328125 C 1.453125 -1.253906 1.484375 -1.203125 1.546875 -1.171875 C 1.617188 -1.148438 1.710938 -1.128906 1.828125 -1.109375 C 1.953125 -1.097656 2.085938 -1.09375 2.234375 -1.09375 C 2.390625 -1.09375 2.546875 -1.082031 2.703125 -1.0625 C 2.859375 -1.050781 3.007812 -1.023438 3.15625 -0.984375 C 3.3125 -0.953125 3.445312 -0.898438 3.5625 -0.828125 C 3.6875 -0.753906 3.785156 -0.65625 3.859375 -0.53125 C 3.929688 -0.40625 3.96875 -0.242188 3.96875 -0.046875 C 3.96875 0.128906 3.921875 0.300781 3.828125 0.46875 C 3.742188 0.644531 3.613281 0.800781 3.4375 0.9375 C 3.269531 1.070312 3.0625 1.175781 2.8125 1.25 C 2.570312 1.332031 2.289062 1.375 1.96875 1.375 C 1.65625 1.375 1.382812 1.34375 1.15625 1.28125 C 0.925781 1.226562 0.734375 1.148438 0.578125 1.046875 C 0.429688 0.953125 0.320312 0.84375 0.25 0.71875 C 0.175781 0.59375 0.140625 0.460938 0.140625 0.328125 C 0.140625 0.148438 0.191406 0.00390625 0.296875 -0.109375 C 0.398438 -0.234375 0.546875 -0.332031 0.734375 -0.40625 C 0.640625 -0.457031 0.5625 -0.53125 0.5 -0.625 C 0.445312 -0.71875 0.421875 -0.835938 0.421875 -0.984375 C 0.421875 -1.046875 0.429688 -1.109375 0.453125 -1.171875 C 0.472656 -1.242188 0.503906 -1.3125 0.546875 -1.375 C 0.585938 -1.4375 0.640625 -1.492188 0.703125 -1.546875 C 0.773438 -1.609375 0.859375 -1.660156 0.953125 -1.703125 C 0.742188 -1.816406 0.578125 -1.960938 0.453125 -2.140625 C 0.335938 -2.316406 0.28125 -2.53125 0.28125 -2.78125 C 0.28125 -2.976562 0.320312 -3.15625 0.40625 -3.3125 C 0.488281 -3.476562 0.601562 -3.613281 0.75 -3.71875 C 0.90625 -3.832031 1.082031 -3.921875 1.28125 -3.984375 C 1.476562 -4.046875 1.695312 -4.078125 1.9375 -4.078125 C 2.269531 -4.078125 2.570312 -4.015625 2.84375 -3.890625 Z M 4.046875 -3.890625 "/></g></g></g><g fill="#5956d6" fill-opacity="1"><g transform="translate(28.457567, 17.096781)"><g><path d="M 2.90625 -2.484375 C 2.90625 -2.578125 2.890625 -2.671875 2.859375 -2.765625 C 2.835938 -2.859375 2.796875 -2.9375 2.734375 -3 C 2.679688 -3.070312 2.609375 -3.128906 2.515625 -3.171875 C 2.429688 -3.222656 2.328125 -3.25 2.203125 -3.25 C 1.972656 -3.25 1.789062 -3.179688 1.65625 -3.046875 C 1.53125 -2.921875 1.445312 -2.734375 1.40625 -2.484375 Z M 1.390625 -1.796875 C 1.429688 -1.453125 1.53125 -1.203125 1.6875 -1.046875 C 1.851562 -0.898438 2.066406 -0.828125 2.328125 -0.828125 C 2.472656 -0.828125 2.59375 -0.84375 2.6875 -0.875 C 2.789062 -0.914062 2.878906 -0.957031 2.953125 -1 C 3.035156 -1.039062 3.109375 -1.078125 3.171875 -1.109375 C 3.242188 -1.140625 3.316406 -1.15625 3.390625 -1.15625 C 3.484375 -1.15625 3.554688 -1.125 3.609375 -1.0625 L 3.953125 -0.625 C 3.828125 -0.476562 3.691406 -0.359375 3.546875 -0.265625 C 3.410156 -0.179688 3.265625 -0.113281 3.109375 -0.0625 C 2.960938 -0.0195312 2.8125 0.0078125 2.65625 0.03125 C 2.507812 0.0507812 2.367188 0.0625 2.234375 0.0625 C 1.953125 0.0625 1.6875 0.015625 1.4375 -0.078125 C 1.1875 -0.171875 0.96875 -0.304688 0.78125 -0.484375 C 0.601562 -0.660156 0.457031 -0.882812 0.34375 -1.15625 C 0.238281 -1.425781 0.1875 -1.738281 0.1875 -2.09375 C 0.1875 -2.363281 0.234375 -2.617188 0.328125 -2.859375 C 0.421875 -3.097656 0.550781 -3.304688 0.71875 -3.484375 C 0.894531 -3.660156 1.101562 -3.800781 1.34375 -3.90625 C 1.59375 -4.019531 1.867188 -4.078125 2.171875 -4.078125 C 2.441406 -4.078125 2.6875 -4.035156 2.90625 -3.953125 C 3.125 -3.867188 3.3125 -3.75 3.46875 -3.59375 C 3.625 -3.4375 3.742188 -3.242188 3.828125 -3.015625 C 3.921875 -2.785156 3.96875 -2.523438 3.96875 -2.234375 C 3.96875 -2.140625 3.960938 -2.066406 3.953125 -2.015625 C 3.953125 -1.960938 3.941406 -1.914062 3.921875 -1.875 C 3.898438 -1.84375 3.867188 -1.820312 3.828125 -1.8125 C 3.796875 -1.800781 3.753906 -1.796875 3.703125 -1.796875 Z M 1.390625 -1.796875 "/></g></g></g><g fill="#5956d6" fill-opacity="1"><g transform="translate(32.630509, 17.096781)"><g><path d="M 1.515625 -3.578125 C 1.585938 -3.648438 1.664062 -3.71875 1.75 -3.78125 C 1.832031 -3.84375 1.921875 -3.894531 2.015625 -3.9375 C 2.109375 -3.976562 2.207031 -4.007812 2.3125 -4.03125 C 2.425781 -4.0625 2.550781 -4.078125 2.6875 -4.078125 C 2.90625 -4.078125 3.097656 -4.035156 3.265625 -3.953125 C 3.429688 -3.878906 3.570312 -3.773438 3.6875 -3.640625 C 3.800781 -3.503906 3.890625 -3.34375 3.953125 -3.15625 C 4.015625 -2.96875 4.046875 -2.765625 4.046875 -2.546875 L 4.046875 0 L 2.84375 0 L 2.84375 -2.546875 C 2.84375 -2.742188 2.796875 -2.894531 2.703125 -3 C 2.617188 -3.113281 2.488281 -3.171875 2.3125 -3.171875 C 2.175781 -3.171875 2.050781 -3.140625 1.9375 -3.078125 C 1.820312 -3.023438 1.710938 -2.953125 1.609375 -2.859375 L 1.609375 0 L 0.40625 0 L 0.40625 -4.015625 L 1.15625 -4.015625 C 1.300781 -4.015625 1.394531 -3.945312 1.4375 -3.8125 Z M 1.515625 -3.578125 "/></g></g></g><g fill="#5956d6" fill-opacity="1"><g transform="translate(37.043447, 17.096781)"><g><path d="M 2.90625 -2.484375 C 2.90625 -2.578125 2.890625 -2.671875 2.859375 -2.765625 C 2.835938 -2.859375 2.796875 -2.9375 2.734375 -3 C 2.679688 -3.070312 2.609375 -3.128906 2.515625 -3.171875 C 2.429688 -3.222656 2.328125 -3.25 2.203125 -3.25 C 1.972656 -3.25 1.789062 -3.179688 1.65625 -3.046875 C 1.53125 -2.921875 1.445312 -2.734375 1.40625 -2.484375 Z M 1.390625 -1.796875 C 1.429688 -1.453125 1.53125 -1.203125 1.6875 -1.046875 C 1.851562 -0.898438 2.066406 -0.828125 2.328125 -0.828125 C 2.472656 -0.828125 2.59375 -0.84375 2.6875 -0.875 C 2.789062 -0.914062 2.878906 -0.957031 2.953125 -1 C 3.035156 -1.039062 3.109375 -1.078125 3.171875 -1.109375 C 3.242188 -1.140625 3.316406 -1.15625 3.390625 -1.15625 C 3.484375 -1.15625 3.554688 -1.125 3.609375 -1.0625 L 3.953125 -0.625 C 3.828125 -0.476562 3.691406 -0.359375 3.546875 -0.265625 C 3.410156 -0.179688 3.265625 -0.113281 3.109375 -0.0625 C 2.960938 -0.0195312 2.8125 0.0078125 2.65625 0.03125 C 2.507812 0.0507812 2.367188 0.0625 2.234375 0.0625 C 1.953125 0.0625 1.6875 0.015625 1.4375 -0.078125 C 1.1875 -0.171875 0.96875 -0.304688 0.78125 -0.484375 C 0.601562 -0.660156 0.457031 -0.882812 0.34375 -1.15625 C 0.238281 -1.425781 0.1875 -1.738281 0.1875 -2.09375 C 0.1875 -2.363281 0.234375 -2.617188 0.328125 -2.859375 C 0.421875 -3.097656 0.550781 -3.304688 0.71875 -3.484375 C 0.894531 -3.660156 1.101562 -3.800781 1.34375 -3.90625 C 1.59375 -4.019531 1.867188 -4.078125 2.171875 -4.078125 C 2.441406 -4.078125 2.6875 -4.035156 2.90625 -3.953125 C 3.125 -3.867188 3.3125 -3.75 3.46875 -3.59375 C 3.625 -3.4375 3.742188 -3.242188 3.828125 -3.015625 C 3.921875 -2.785156 3.96875 -2.523438 3.96875 -2.234375 C 3.96875 -2.140625 3.960938 -2.066406 3.953125 -2.015625 C 3.953125 -1.960938 3.941406 -1.914062 3.921875 -1.875 C 3.898438 -1.84375 3.867188 -1.820312 3.828125 -1.8125 C 3.796875 -1.800781 3.753906 -1.796875 3.703125 -1.796875 Z M 1.390625 -1.796875 "/></g></g></g><g fill="#5956d6" fill-opacity="1"><g transform="translate(41.216389, 17.096781)"><g><path d="M 1.53125 -3.390625 C 1.65625 -3.609375 1.796875 -3.78125 1.953125 -3.90625 C 2.117188 -4.03125 2.304688 -4.09375 2.515625 -4.09375 C 2.691406 -4.09375 2.835938 -4.046875 2.953125 -3.953125 L 2.875 -3.078125 C 2.863281 -3.023438 2.84375 -2.988281 2.8125 -2.96875 C 2.78125 -2.945312 2.738281 -2.9375 2.6875 -2.9375 C 2.664062 -2.9375 2.640625 -2.9375 2.609375 -2.9375 C 2.578125 -2.9375 2.539062 -2.9375 2.5 -2.9375 C 2.46875 -2.945312 2.429688 -2.953125 2.390625 -2.953125 C 2.347656 -2.960938 2.316406 -2.96875 2.296875 -2.96875 C 2.117188 -2.96875 1.976562 -2.921875 1.875 -2.828125 C 1.769531 -2.734375 1.679688 -2.601562 1.609375 -2.4375 L 1.609375 0 L 0.40625 0 L 0.40625 -4.015625 L 1.125 -4.015625 C 1.175781 -4.015625 1.222656 -4.007812 1.265625 -4 C 1.304688 -3.988281 1.335938 -3.96875 1.359375 -3.9375 C 1.390625 -3.914062 1.410156 -3.890625 1.421875 -3.859375 C 1.441406 -3.828125 1.457031 -3.785156 1.46875 -3.734375 Z M 1.53125 -3.390625 "/></g></g></g><g fill="#5956d6" fill-opacity="1"><g transform="translate(44.169964, 17.096781)"><g><path d="M 2.46875 -1.625 C 2.226562 -1.613281 2.03125 -1.59375 1.875 -1.5625 C 1.726562 -1.539062 1.609375 -1.503906 1.515625 -1.453125 C 1.421875 -1.410156 1.359375 -1.359375 1.328125 -1.296875 C 1.296875 -1.234375 1.28125 -1.171875 1.28125 -1.109375 C 1.28125 -0.960938 1.316406 -0.863281 1.390625 -0.8125 C 1.460938 -0.757812 1.570312 -0.734375 1.71875 -0.734375 C 1.875 -0.734375 2.007812 -0.757812 2.125 -0.8125 C 2.238281 -0.863281 2.351562 -0.953125 2.46875 -1.078125 Z M 0.3125 -3.453125 C 0.5625 -3.671875 0.832031 -3.832031 1.125 -3.9375 C 1.414062 -4.039062 1.734375 -4.09375 2.078125 -4.09375 C 2.316406 -4.09375 2.53125 -4.050781 2.71875 -3.96875 C 2.914062 -3.894531 3.082031 -3.785156 3.21875 -3.640625 C 3.351562 -3.503906 3.457031 -3.335938 3.53125 -3.140625 C 3.601562 -2.941406 3.640625 -2.726562 3.640625 -2.5 L 3.640625 0 L 3.09375 0 C 2.976562 0 2.890625 -0.015625 2.828125 -0.046875 C 2.773438 -0.078125 2.726562 -0.140625 2.6875 -0.234375 L 2.609375 -0.453125 C 2.503906 -0.367188 2.40625 -0.296875 2.3125 -0.234375 C 2.21875 -0.171875 2.117188 -0.113281 2.015625 -0.0625 C 1.921875 -0.0195312 1.816406 0.0078125 1.703125 0.03125 C 1.597656 0.0507812 1.476562 0.0625 1.34375 0.0625 C 1.15625 0.0625 0.984375 0.0390625 0.828125 0 C 0.679688 -0.0507812 0.554688 -0.125 0.453125 -0.21875 C 0.347656 -0.3125 0.265625 -0.425781 0.203125 -0.5625 C 0.148438 -0.695312 0.125 -0.859375 0.125 -1.046875 C 0.125 -1.191406 0.160156 -1.335938 0.234375 -1.484375 C 0.304688 -1.628906 0.429688 -1.765625 0.609375 -1.890625 C 0.785156 -2.015625 1.023438 -2.113281 1.328125 -2.1875 C 1.628906 -2.269531 2.007812 -2.316406 2.46875 -2.328125 L 2.46875 -2.5 C 2.46875 -2.738281 2.421875 -2.910156 2.328125 -3.015625 C 2.234375 -3.117188 2.097656 -3.171875 1.921875 -3.171875 C 1.773438 -3.171875 1.65625 -3.15625 1.5625 -3.125 C 1.476562 -3.09375 1.398438 -3.054688 1.328125 -3.015625 C 1.253906 -2.984375 1.179688 -2.953125 1.109375 -2.921875 C 1.046875 -2.890625 0.96875 -2.875 0.875 -2.875 C 0.800781 -2.875 0.734375 -2.894531 0.671875 -2.9375 C 0.617188 -2.976562 0.570312 -3.023438 0.53125 -3.078125 Z M 0.3125 -3.453125 "/></g></g></g><g fill="#5956d6" fill-opacity="1"><g transform="translate(48.176446, 17.096781)"><g><path d="M 1.84375 0.0625 C 1.644531 0.0625 1.472656 0.0351562 1.328125 -0.015625 C 1.191406 -0.078125 1.070312 -0.15625 0.96875 -0.25 C 0.863281 -0.351562 0.785156 -0.476562 0.734375 -0.625 C 0.691406 -0.769531 0.671875 -0.929688 0.671875 -1.109375 L 0.671875 -3.1875 L 0.328125 -3.1875 C 0.265625 -3.1875 0.207031 -3.203125 0.15625 -3.234375 C 0.113281 -3.273438 0.09375 -3.335938 0.09375 -3.421875 L 0.09375 -3.890625 L 0.734375 -4.015625 L 0.96875 -4.984375 C 1 -5.109375 1.085938 -5.171875 1.234375 -5.171875 L 1.859375 -5.171875 L 1.859375 -4 L 2.859375 -4 L 2.859375 -3.1875 L 1.859375 -3.1875 L 1.859375 -1.1875 C 1.859375 -1.09375 1.878906 -1.015625 1.921875 -0.953125 C 1.972656 -0.898438 2.039062 -0.875 2.125 -0.875 C 2.164062 -0.875 2.203125 -0.875 2.234375 -0.875 C 2.265625 -0.882812 2.289062 -0.894531 2.3125 -0.90625 C 2.332031 -0.925781 2.351562 -0.9375 2.375 -0.9375 C 2.394531 -0.945312 2.414062 -0.953125 2.4375 -0.953125 C 2.476562 -0.953125 2.507812 -0.941406 2.53125 -0.921875 C 2.550781 -0.910156 2.570312 -0.890625 2.59375 -0.859375 L 2.96875 -0.28125 C 2.8125 -0.164062 2.632812 -0.078125 2.4375 -0.015625 C 2.25 0.0351562 2.050781 0.0625 1.84375 0.0625 Z M 1.84375 0.0625 "/></g></g></g><g fill="#5956d6" fill-opacity="1"><g transform="translate(51.149376, 17.096781)"><g><path d="M 2.90625 -2.484375 C 2.90625 -2.578125 2.890625 -2.671875 2.859375 -2.765625 C 2.835938 -2.859375 2.796875 -2.9375 2.734375 -3 C 2.679688 -3.070312 2.609375 -3.128906 2.515625 -3.171875 C 2.429688 -3.222656 2.328125 -3.25 2.203125 -3.25 C 1.972656 -3.25 1.789062 -3.179688 1.65625 -3.046875 C 1.53125 -2.921875 1.445312 -2.734375 1.40625 -2.484375 Z M 1.390625 -1.796875 C 1.429688 -1.453125 1.53125 -1.203125 1.6875 -1.046875 C 1.851562 -0.898438 2.066406 -0.828125 2.328125 -0.828125 C 2.472656 -0.828125 2.59375 -0.84375 2.6875 -0.875 C 2.789062 -0.914062 2.878906 -0.957031 2.953125 -1 C 3.035156 -1.039062 3.109375 -1.078125 3.171875 -1.109375 C 3.242188 -1.140625 3.316406 -1.15625 3.390625 -1.15625 C 3.484375 -1.15625 3.554688 -1.125 3.609375 -1.0625 L 3.953125 -0.625 C 3.828125 -0.476562 3.691406 -0.359375 3.546875 -0.265625 C 3.410156 -0.179688 3.265625 -0.113281 3.109375 -0.0625 C 2.960938 -0.0195312 2.8125 0.0078125 2.65625 0.03125 C 2.507812 0.0507812 2.367188 0.0625 2.234375 0.0625 C 1.953125 0.0625 1.6875 0.015625 1.4375 -0.078125 C 1.1875 -0.171875 0.96875 -0.304688 0.78125 -0.484375 C 0.601562 -0.660156 0.457031 -0.882812 0.34375 -1.15625 C 0.238281 -1.425781 0.1875 -1.738281 0.1875 -2.09375 C 0.1875 -2.363281 0.234375 -2.617188 0.328125 -2.859375 C 0.421875 -3.097656 0.550781 -3.304688 0.71875 -3.484375 C 0.894531 -3.660156 1.101562 -3.800781 1.34375 -3.90625 C 1.59375 -4.019531 1.867188 -4.078125 2.171875 -4.078125 C 2.441406 -4.078125 2.6875 -4.035156 2.90625 -3.953125 C 3.125 -3.867188 3.3125 -3.75 3.46875 -3.59375 C 3.625 -3.4375 3.742188 -3.242188 3.828125 -3.015625 C 3.921875 -2.785156 3.96875 -2.523438 3.96875 -2.234375 C 3.96875 -2.140625 3.960938 -2.066406 3.953125 -2.015625 C 3.953125 -1.960938 3.941406 -1.914062 3.921875 -1.875 C 3.898438 -1.84375 3.867188 -1.820312 3.828125 -1.8125 C 3.796875 -1.800781 3.753906 -1.796875 3.703125 -1.796875 Z M 1.390625 -1.796875 "/></g></g></g><g fill="#5956d6" fill-opacity="1"><g transform="translate(55.322317, 17.096781)"><g><path d="M 2.84375 -2.9375 C 2.75 -3.03125 2.648438 -3.097656 2.546875 -3.140625 C 2.441406 -3.179688 2.332031 -3.203125 2.21875 -3.203125 C 2.101562 -3.203125 2 -3.179688 1.90625 -3.140625 C 1.8125 -3.097656 1.726562 -3.023438 1.65625 -2.921875 C 1.59375 -2.828125 1.539062 -2.703125 1.5 -2.546875 C 1.46875 -2.390625 1.453125 -2.203125 1.453125 -1.984375 C 1.453125 -1.773438 1.46875 -1.597656 1.5 -1.453125 C 1.53125 -1.304688 1.570312 -1.1875 1.625 -1.09375 C 1.675781 -1.007812 1.738281 -0.945312 1.8125 -0.90625 C 1.894531 -0.875 1.984375 -0.859375 2.078125 -0.859375 C 2.171875 -0.859375 2.25 -0.863281 2.3125 -0.875 C 2.382812 -0.894531 2.453125 -0.921875 2.515625 -0.953125 C 2.578125 -0.984375 2.632812 -1.019531 2.6875 -1.0625 C 2.738281 -1.113281 2.789062 -1.171875 2.84375 -1.234375 Z M 4.03125 -4.015625 L 4.03125 1.265625 L 2.84375 1.265625 L 2.84375 -0.4375 C 2.6875 -0.289062 2.515625 -0.171875 2.328125 -0.078125 C 2.140625 0.015625 1.914062 0.0625 1.65625 0.0625 C 1.445312 0.0625 1.253906 0.015625 1.078125 -0.078125 C 0.898438 -0.171875 0.742188 -0.304688 0.609375 -0.484375 C 0.484375 -0.660156 0.382812 -0.875 0.3125 -1.125 C 0.238281 -1.375 0.203125 -1.660156 0.203125 -1.984375 C 0.203125 -2.285156 0.242188 -2.5625 0.328125 -2.8125 C 0.410156 -3.070312 0.523438 -3.296875 0.671875 -3.484375 C 0.828125 -3.671875 1.007812 -3.816406 1.21875 -3.921875 C 1.4375 -4.035156 1.671875 -4.09375 1.921875 -4.09375 C 2.046875 -4.09375 2.15625 -4.082031 2.25 -4.0625 C 2.351562 -4.039062 2.441406 -4.007812 2.515625 -3.96875 C 2.597656 -3.925781 2.675781 -3.878906 2.75 -3.828125 C 2.820312 -3.773438 2.890625 -3.71875 2.953125 -3.65625 L 3 -3.8125 C 3.050781 -3.945312 3.148438 -4.015625 3.296875 -4.015625 Z M 4.03125 -4.015625 "/></g></g></g><g fill="#5956d6" fill-opacity="1"><g transform="translate(59.770095, 17.096781)"><g><path d="M 1.53125 -3.390625 C 1.65625 -3.609375 1.796875 -3.78125 1.953125 -3.90625 C 2.117188 -4.03125 2.304688 -4.09375 2.515625 -4.09375 C 2.691406 -4.09375 2.835938 -4.046875 2.953125 -3.953125 L 2.875 -3.078125 C 2.863281 -3.023438 2.84375 -2.988281 2.8125 -2.96875 C 2.78125 -2.945312 2.738281 -2.9375 2.6875 -2.9375 C 2.664062 -2.9375 2.640625 -2.9375 2.609375 -2.9375 C 2.578125 -2.9375 2.539062 -2.9375 2.5 -2.9375 C 2.46875 -2.945312 2.429688 -2.953125 2.390625 -2.953125 C 2.347656 -2.960938 2.316406 -2.96875 2.296875 -2.96875 C 2.117188 -2.96875 1.976562 -2.921875 1.875 -2.828125 C 1.769531 -2.734375 1.679688 -2.601562 1.609375 -2.4375 L 1.609375 0 L 0.40625 0 L 0.40625 -4.015625 L 1.125 -4.015625 C 1.175781 -4.015625 1.222656 -4.007812 1.265625 -4 C 1.304688 -3.988281 1.335938 -3.96875 1.359375 -3.9375 C 1.390625 -3.914062 1.410156 -3.890625 1.421875 -3.859375 C 1.441406 -3.828125 1.457031 -3.785156 1.46875 -3.734375 Z M 1.53125 -3.390625 "/></g></g></g><g fill="#5956d6" fill-opacity="1"><g transform="translate(62.72367, 17.096781)"><g><path d="M 3.359375 -3.0625 C 3.316406 -3.019531 3.28125 -2.984375 3.25 -2.953125 C 3.21875 -2.929688 3.171875 -2.921875 3.109375 -2.921875 C 3.046875 -2.921875 2.988281 -2.929688 2.9375 -2.953125 C 2.894531 -2.984375 2.84375 -3.015625 2.78125 -3.046875 C 2.726562 -3.085938 2.660156 -3.117188 2.578125 -3.140625 C 2.492188 -3.171875 2.394531 -3.1875 2.28125 -3.1875 C 2.132812 -3.1875 2.003906 -3.160156 1.890625 -3.109375 C 1.785156 -3.054688 1.695312 -2.976562 1.625 -2.875 C 1.5625 -2.769531 1.507812 -2.644531 1.46875 -2.5 C 1.4375 -2.363281 1.421875 -2.203125 1.421875 -2.015625 C 1.421875 -1.628906 1.492188 -1.332031 1.640625 -1.125 C 1.796875 -0.914062 2.003906 -0.8125 2.265625 -0.8125 C 2.398438 -0.8125 2.507812 -0.828125 2.59375 -0.859375 C 2.675781 -0.898438 2.742188 -0.941406 2.796875 -0.984375 C 2.859375 -1.023438 2.910156 -1.0625 2.953125 -1.09375 C 3.003906 -1.132812 3.066406 -1.15625 3.140625 -1.15625 C 3.234375 -1.15625 3.304688 -1.125 3.359375 -1.0625 L 3.703125 -0.625 C 3.578125 -0.476562 3.445312 -0.359375 3.3125 -0.265625 C 3.175781 -0.179688 3.035156 -0.113281 2.890625 -0.0625 C 2.742188 -0.0195312 2.597656 0.0078125 2.453125 0.03125 C 2.316406 0.0507812 2.175781 0.0625 2.03125 0.0625 C 1.789062 0.0625 1.554688 0.015625 1.328125 -0.078125 C 1.109375 -0.171875 0.914062 -0.304688 0.75 -0.484375 C 0.582031 -0.660156 0.445312 -0.875 0.34375 -1.125 C 0.25 -1.382812 0.203125 -1.679688 0.203125 -2.015625 C 0.203125 -2.304688 0.242188 -2.578125 0.328125 -2.828125 C 0.410156 -3.078125 0.535156 -3.289062 0.703125 -3.46875 C 0.878906 -3.65625 1.085938 -3.800781 1.328125 -3.90625 C 1.578125 -4.019531 1.867188 -4.078125 2.203125 -4.078125 C 2.515625 -4.078125 2.789062 -4.023438 3.03125 -3.921875 C 3.269531 -3.816406 3.484375 -3.671875 3.671875 -3.484375 Z M 3.359375 -3.0625 "/></g></g></g><g fill="#5956d6" fill-opacity="1"><g transform="translate(66.490156, 17.096781)"><g><path d="M 2.25 -4.078125 C 2.550781 -4.078125 2.828125 -4.023438 3.078125 -3.921875 C 3.335938 -3.828125 3.554688 -3.691406 3.734375 -3.515625 C 3.910156 -3.335938 4.046875 -3.117188 4.140625 -2.859375 C 4.242188 -2.609375 4.296875 -2.328125 4.296875 -2.015625 C 4.296875 -1.691406 4.242188 -1.398438 4.140625 -1.140625 C 4.046875 -0.890625 3.910156 -0.675781 3.734375 -0.5 C 3.554688 -0.320312 3.335938 -0.179688 3.078125 -0.078125 C 2.828125 0.015625 2.550781 0.0625 2.25 0.0625 C 1.945312 0.0625 1.671875 0.015625 1.421875 -0.078125 C 1.171875 -0.179688 0.953125 -0.320312 0.765625 -0.5 C 0.585938 -0.675781 0.445312 -0.890625 0.34375 -1.140625 C 0.25 -1.398438 0.203125 -1.691406 0.203125 -2.015625 C 0.203125 -2.328125 0.25 -2.609375 0.34375 -2.859375 C 0.445312 -3.117188 0.585938 -3.335938 0.765625 -3.515625 C 0.953125 -3.691406 1.171875 -3.828125 1.421875 -3.921875 C 1.671875 -4.023438 1.945312 -4.078125 2.25 -4.078125 Z M 2.25 -0.828125 C 2.53125 -0.828125 2.734375 -0.921875 2.859375 -1.109375 C 2.992188 -1.304688 3.0625 -1.601562 3.0625 -2 C 3.0625 -2.40625 2.992188 -2.703125 2.859375 -2.890625 C 2.734375 -3.085938 2.53125 -3.1875 2.25 -3.1875 C 1.96875 -3.1875 1.757812 -3.085938 1.625 -2.890625 C 1.5 -2.703125 1.4375 -2.40625 1.4375 -2 C 1.4375 -1.601562 1.5 -1.304688 1.625 -1.109375 C 1.757812 -0.921875 1.96875 -0.828125 2.25 -0.828125 Z M 2.25 -0.828125 "/></g></g></g><g fill="#5956d6" fill-opacity="1"><g transform="translate(70.988258, 17.096781)"><g><path d="M 2.84375 -2.9375 C 2.75 -3.039062 2.648438 -3.109375 2.546875 -3.140625 C 2.441406 -3.179688 2.332031 -3.203125 2.21875 -3.203125 C 2.101562 -3.203125 2 -3.179688 1.90625 -3.140625 C 1.8125 -3.097656 1.726562 -3.023438 1.65625 -2.921875 C 1.59375 -2.828125 1.539062 -2.703125 1.5 -2.546875 C 1.46875 -2.390625 1.453125 -2.203125 1.453125 -1.984375 C 1.453125 -1.773438 1.46875 -1.597656 1.5 -1.453125 C 1.53125 -1.304688 1.570312 -1.1875 1.625 -1.09375 C 1.675781 -1.007812 1.738281 -0.945312 1.8125 -0.90625 C 1.894531 -0.875 1.984375 -0.859375 2.078125 -0.859375 C 2.171875 -0.859375 2.25 -0.863281 2.3125 -0.875 C 2.382812 -0.894531 2.453125 -0.921875 2.515625 -0.953125 C 2.578125 -0.984375 2.632812 -1.019531 2.6875 -1.0625 C 2.738281 -1.113281 2.789062 -1.171875 2.84375 -1.234375 Z M 4.03125 -5.796875 L 4.03125 0 L 3.296875 0 C 3.148438 0 3.050781 -0.0664062 3 -0.203125 L 2.90625 -0.5 C 2.820312 -0.414062 2.738281 -0.335938 2.65625 -0.265625 C 2.570312 -0.203125 2.476562 -0.144531 2.375 -0.09375 C 2.269531 -0.0390625 2.160156 -0.00390625 2.046875 0.015625 C 1.929688 0.046875 1.800781 0.0625 1.65625 0.0625 C 1.445312 0.0625 1.253906 0.015625 1.078125 -0.078125 C 0.898438 -0.171875 0.742188 -0.304688 0.609375 -0.484375 C 0.484375 -0.660156 0.382812 -0.875 0.3125 -1.125 C 0.238281 -1.375 0.203125 -1.660156 0.203125 -1.984375 C 0.203125 -2.285156 0.242188 -2.5625 0.328125 -2.8125 C 0.410156 -3.070312 0.523438 -3.296875 0.671875 -3.484375 C 0.828125 -3.671875 1.007812 -3.816406 1.21875 -3.921875 C 1.4375 -4.035156 1.671875 -4.09375 1.921875 -4.09375 C 2.128906 -4.09375 2.304688 -4.0625 2.453125 -4 C 2.597656 -3.9375 2.726562 -3.859375 2.84375 -3.765625 L 2.84375 -5.796875 Z M 4.03125 -5.796875 "/></g></g></g><g fill="#5956d6" fill-opacity="1"><g transform="translate(75.436036, 17.096781)"><g><path d="M 2.90625 -2.484375 C 2.90625 -2.578125 2.890625 -2.671875 2.859375 -2.765625 C 2.835938 -2.859375 2.796875 -2.9375 2.734375 -3 C 2.679688 -3.070312 2.609375 -3.128906 2.515625 -3.171875 C 2.429688 -3.222656 2.328125 -3.25 2.203125 -3.25 C 1.972656 -3.25 1.789062 -3.179688 1.65625 -3.046875 C 1.53125 -2.921875 1.445312 -2.734375 1.40625 -2.484375 Z M 1.390625 -1.796875 C 1.429688 -1.453125 1.53125 -1.203125 1.6875 -1.046875 C 1.851562 -0.898438 2.066406 -0.828125 2.328125 -0.828125 C 2.472656 -0.828125 2.59375 -0.84375 2.6875 -0.875 C 2.789062 -0.914062 2.878906 -0.957031 2.953125 -1 C 3.035156 -1.039062 3.109375 -1.078125 3.171875 -1.109375 C 3.242188 -1.140625 3.316406 -1.15625 3.390625 -1.15625 C 3.484375 -1.15625 3.554688 -1.125 3.609375 -1.0625 L 3.953125 -0.625 C 3.828125 -0.476562 3.691406 -0.359375 3.546875 -0.265625 C 3.410156 -0.179688 3.265625 -0.113281 3.109375 -0.0625 C 2.960938 -0.0195312 2.8125 0.0078125 2.65625 0.03125 C 2.507812 0.0507812 2.367188 0.0625 2.234375 0.0625 C 1.953125 0.0625 1.6875 0.015625 1.4375 -0.078125 C 1.1875 -0.171875 0.96875 -0.304688 0.78125 -0.484375 C 0.601562 -0.660156 0.457031 -0.882812 0.34375 -1.15625 C 0.238281 -1.425781 0.1875 -1.738281 0.1875 -2.09375 C 0.1875 -2.363281 0.234375 -2.617188 0.328125 -2.859375 C 0.421875 -3.097656 0.550781 -3.304688 0.71875 -3.484375 C 0.894531 -3.660156 1.101562 -3.800781 1.34375 -3.90625 C 1.59375 -4.019531 1.867188 -4.078125 2.171875 -4.078125 C 2.441406 -4.078125 2.6875 -4.035156 2.90625 -3.953125 C 3.125 -3.867188 3.3125 -3.75 3.46875 -3.59375 C 3.625 -3.4375 3.742188 -3.242188 3.828125 -3.015625 C 3.921875 -2.785156 3.96875 -2.523438 3.96875 -2.234375 C 3.96875 -2.140625 3.960938 -2.066406 3.953125 -2.015625 C 3.953125 -1.960938 3.941406 -1.914062 3.921875 -1.875 C 3.898438 -1.84375 3.867188 -1.820312 3.828125 -1.8125 C 3.796875 -1.800781 3.753906 -1.796875 3.703125 -1.796875 Z M 1.390625 -1.796875 "/></g></g></g><g fill="#5956d6" fill-opacity="1"><g transform="translate(79.608977, 17.096781)"><g><path d="M 0.25 -0.609375 C 0.25 -0.703125 0.265625 -0.785156 0.296875 -0.859375 C 0.328125 -0.941406 0.375 -1.007812 0.4375 -1.0625 C 0.5 -1.125 0.570312 -1.171875 0.65625 -1.203125 C 0.738281 -1.242188 0.828125 -1.265625 0.921875 -1.265625 C 1.015625 -1.265625 1.101562 -1.242188 1.1875 -1.203125 C 1.269531 -1.171875 1.34375 -1.125 1.40625 -1.0625 C 1.46875 -1.007812 1.515625 -0.941406 1.546875 -0.859375 C 1.585938 -0.785156 1.609375 -0.703125 1.609375 -0.609375 C 1.609375 -0.515625 1.585938 -0.425781 1.546875 -0.34375 C 1.515625 -0.257812 1.46875 -0.1875 1.40625 -0.125 C 1.34375 -0.0703125 1.269531 -0.03125 1.1875 0 C 1.101562 0.03125 1.015625 0.046875 0.921875 0.046875 C 0.828125 0.046875 0.738281 0.03125 0.65625 0 C 0.570312 -0.03125 0.5 -0.0703125 0.4375 -0.125 C 0.375 -0.1875 0.328125 -0.257812 0.296875 -0.34375 C 0.265625 -0.425781 0.25 -0.515625 0.25 -0.609375 Z M 0.25 -0.609375 "/></g></g></g><g fill="#5956d6" fill-opacity="1"><g transform="translate(81.45932, 17.096781)"><g><path d="M 1.625 -4.015625 L 1.625 0 L 0.4375 0 L 0.4375 -4.015625 Z M 1.75 -5.109375 C 1.75 -5.015625 1.726562 -4.925781 1.6875 -4.84375 C 1.65625 -4.757812 1.601562 -4.6875 1.53125 -4.625 C 1.46875 -4.5625 1.390625 -4.507812 1.296875 -4.46875 C 1.210938 -4.425781 1.117188 -4.40625 1.015625 -4.40625 C 0.921875 -4.40625 0.832031 -4.425781 0.75 -4.46875 C 0.664062 -4.507812 0.585938 -4.5625 0.515625 -4.625 C 0.453125 -4.6875 0.398438 -4.757812 0.359375 -4.84375 C 0.328125 -4.925781 0.3125 -5.015625 0.3125 -5.109375 C 0.3125 -5.203125 0.328125 -5.289062 0.359375 -5.375 C 0.398438 -5.46875 0.453125 -5.546875 0.515625 -5.609375 C 0.585938 -5.671875 0.664062 -5.71875 0.75 -5.75 C 0.832031 -5.789062 0.921875 -5.8125 1.015625 -5.8125 C 1.117188 -5.8125 1.210938 -5.789062 1.296875 -5.75 C 1.390625 -5.71875 1.46875 -5.671875 1.53125 -5.609375 C 1.601562 -5.546875 1.65625 -5.46875 1.6875 -5.375 C 1.726562 -5.289062 1.75 -5.203125 1.75 -5.109375 Z M 1.75 -5.109375 "/></g></g></g><g fill="#5956d6" fill-opacity="1"><g transform="translate(83.526437, 17.096781)"><g><path d="M 2.25 -4.078125 C 2.550781 -4.078125 2.828125 -4.023438 3.078125 -3.921875 C 3.335938 -3.828125 3.554688 -3.691406 3.734375 -3.515625 C 3.910156 -3.335938 4.046875 -3.117188 4.140625 -2.859375 C 4.242188 -2.609375 4.296875 -2.328125 4.296875 -2.015625 C 4.296875 -1.691406 4.242188 -1.398438 4.140625 -1.140625 C 4.046875 -0.890625 3.910156 -0.675781 3.734375 -0.5 C 3.554688 -0.320312 3.335938 -0.179688 3.078125 -0.078125 C 2.828125 0.015625 2.550781 0.0625 2.25 0.0625 C 1.945312 0.0625 1.671875 0.015625 1.421875 -0.078125 C 1.171875 -0.179688 0.953125 -0.320312 0.765625 -0.5 C 0.585938 -0.675781 0.445312 -0.890625 0.34375 -1.140625 C 0.25 -1.398438 0.203125 -1.691406 0.203125 -2.015625 C 0.203125 -2.328125 0.25 -2.609375 0.34375 -2.859375 C 0.445312 -3.117188 0.585938 -3.335938 0.765625 -3.515625 C 0.953125 -3.691406 1.171875 -3.828125 1.421875 -3.921875 C 1.671875 -4.023438 1.945312 -4.078125 2.25 -4.078125 Z M 2.25 -0.828125 C 2.53125 -0.828125 2.734375 -0.921875 2.859375 -1.109375 C 2.992188 -1.304688 3.0625 -1.601562 3.0625 -2 C 3.0625 -2.40625 2.992188 -2.703125 2.859375 -2.890625 C 2.734375 -3.085938 2.53125 -3.1875 2.25 -3.1875 C 1.96875 -3.1875 1.757812 -3.085938 1.625 -2.890625 C 1.5 -2.703125 1.4375 -2.40625 1.4375 -2 C 1.4375 -1.601562 1.5 -1.304688 1.625 -1.109375 C 1.757812 -0.921875 1.96875 -0.828125 2.25 -0.828125 Z M 2.25 -0.828125 "/></g></g></g></svg>