<?xml version="1.0" ?>
<!DOCTYPE svg  PUBLIC '-//W3C//DTD SVG 1.1//EN'  'http://www.w3.org/Graphics/SVG/1.1/DTD/svg11.dtd'>
<!-- Uploaded to: SVG Repo, www.svgrepo.com, Generator: SVG Repo Mixer Tools -->
<svg fill="#000000" width="800px" height="800px" viewBox="0 0 32 32" style="fill-rule:evenodd;clip-rule:evenodd;stroke-linejoin:round;stroke-miterlimit:2;" version="1.1" xml:space="preserve" xmlns="http://www.w3.org/2000/svg" xmlns:serif="http://www.serif.com/" xmlns:xlink="http://www.w3.org/1999/xlink">
<g transform="matrix(1,0,0,1,-144,0)">
<g transform="matrix(1.33333,0,0,1.33333,-53.3333,-5.33333)">
<path d="M169,10C169,8.343 167.657,7 166,7L154,7C152.343,7 151,8.343 151,10L151,22C151,23.657 152.343,25 154,25L166,25C167.657,25 169,23.657 169,22L169,10Z" style="fill:rgb(144,224,239);"/>
</g>
<path d="M155,27L150,27C149.448,27 149,26.552 149,26C149,26 149,21 149,21C149,20.448 148.552,20 148,20C147.448,20 147,20.448 147,21L147,26C147,27.657 148.343,29 150,29C152.069,29 155,29 155,29C155.552,29 156,28.552 156,28C156,27.448 155.552,27 155,27ZM165,29L170,29C171.657,29 173,27.657 173,26C173,23.931 173,21 173,21C173,20.448 172.552,20 172,20C171.448,20 171,20.448 171,21L171,26C171,26.552 170.552,27 170,27C170,27 165,27 165,27C164.448,27 164,27.448 164,28C164,28.552 164.448,29 165,29ZM146,17L174,17C174.552,17 175,16.552 175,16C175,15.448 174.552,15 174,15L146,15C145.448,15 145,15.448 145,16C145,16.552 145.448,17 146,17ZM155,3L150,3C148.343,3 147,4.343 147,6C147,8.069 147,11 147,11C147,11.552 147.448,12 148,12C148.552,12 149,11.552 149,11L149,6C149,5.448 149.448,5 150,5C150,5 155,5 155,5C155.552,5 156,4.552 156,4C156,3.448 155.552,3 155,3ZM165,5L170,5C170.552,5 171,5.448 171,6C171,6 171,11 171,11C171,11.552 171.448,12 172,12C172.552,12 173,11.552 173,11L173,6C173,4.343 171.657,3 170,3C167.931,3 165,3 165,3C164.448,3 164,3.448 164,4C164,4.552 164.448,5 165,5Z" style="fill:rgb(25,144,167);"/>
</g>
</svg>