<!DOCTYPE svg PUBLIC "-//W3C//DTD SVG 1.1//EN" "http://www.w3.org/Graphics/SVG/1.1/DTD/svg11.dtd">
<!-- Uploaded to: SVG Repo, www.svgrepo.com, Transformed by: SVG Repo Mixer Tools -->
<svg width="256px" height="256px" viewBox="-2 0 22 22" fill="none" xmlns="http://www.w3.org/2000/svg">
<g id="SVGRepo_bgCarrier" stroke-width="0"/>
<g id="SVGRepo_tracerCarrier" stroke-linecap="round" stroke-linejoin="round"/>
<g id="SVGRepo_iconCarrier"> <path d="M17 6V16C17 20 16 21 12 21H6C2 21 1 20 1 16V6C1 2 2 1 6 1H12C16 1 17 2 17 6Z" stroke="#5956D6" stroke-width="1.5" stroke-linecap="round" stroke-linejoin="round"/> <path opacity="0.4" d="M11 4.5H7" stroke="#5956D6" stroke-width="1.5" stroke-linecap="round" stroke-linejoin="round"/> <path opacity="0.4" d="M9.0002 18.1C9.85624 18.1 10.5502 17.406 10.5502 16.55C10.5502 15.694 9.85624 15 9.0002 15C8.14415 15 7.4502 15.694 7.4502 16.55C7.4502 17.406 8.14415 18.1 9.0002 18.1Z" stroke="#5956D6" stroke-width="1.5" stroke-linecap="round" stroke-linejoin="round"/> </g>
</svg>