<?xml version="1.0" standalone="no"?>
<svg xmlns="http://www.w3.org/2000/svg" width="1024" height="1024" viewBox="0 0 1024 1024"><defs><clipPath id="clip-path-dot-color"><path d="M 62 341v 15.5a 15.5 15.5, 0, 0, 0, 15.5 15.5h 15.5v -15.5a 15.5 15.5, 0, 0, 0, -15.5 -15.5" transform="rotate(90,77.5,356.5)"/><path d="M 62 403v 31h 31v -15.5a 15.5 15.5, 0, 0, 0, -15.5 -15.5" transform="rotate(-90,77.5,418.5)"/><rect x="62" y="434" width="31" height="31" transform="rotate(0,77.5,449.5)"/><rect x="62" y="465" width="31" height="31" transform="rotate(0,77.5,480.5)"/><path d="M 62 558v 31h 31v -15.5a 15.5 15.5, 0, 0, 0, -15.5 -15.5" transform="rotate(-90,77.5,573.5)"/><rect x="62" y="589" width="31" height="31" transform="rotate(0,77.5,604.5)"/><path d="M 62 682v 31h 31v -15.5a 15.5 15.5, 0, 0, 0, -15.5 -15.5" transform="rotate(-90,77.5,697.5)"/><path d="M 93 310v 15.5a 15.5 15.5, 0, 0, 0, 15.5 15.5h 15.5v -15.5a 15.5 15.5, 0, 0, 0, -15.5 -15.5" transform="rotate(90,108.5,325.5)"/><path d="M 93 372v 31h 31v -15.5a 15.5 15.5, 0, 0, 0, -15.5 -15.5" transform="rotate(-90,108.5,387.5)"/><path d="M 93 403v 31h 31v -15.5a 15.5 15.5, 0, 0, 0, -15.5 -15.5" transform="rotate(90,108.5,418.5)"/><rect x="93" y="465" width="31" height="31" transform="rotate(0,108.5,480.5)"/><rect x="93" y="496" width="31" height="31" transform="rotate(0,108.5,511.5)"/><rect x="93" y="527" width="31" height="31" transform="rotate(0,108.5,542.5)"/><rect x="93" y="558" width="31" height="31" transform="rotate(0,108.5,573.5)"/><path d="M 93 589v 31h 31v -15.5a 15.5 15.5, 0, 0, 0, -15.5 -15.5" transform="rotate(90,108.5,604.5)"/><path d="M 93 651v 31h 31v -15.5a 15.5 15.5, 0, 0, 0, -15.5 -15.5" transform="rotate(-90,108.5,666.5)"/><path d="M 93 682v 31h 31v -15.5a 15.5 15.5, 0, 0, 0, -15.5 -15.5" transform="rotate(90,108.5,697.5)"/><path d="M 124 341v 31h 31v -15.5a 15.5 15.5, 0, 0, 0, -15.5 -15.5" transform="rotate(-90,139.5,356.5)"/><rect x="124" y="372" width="31" height="31" transform="rotate(0,139.5,387.5)"/><path d="M 124 434v 15.5a 15.5 15.5, 0, 0, 0, 15.5 15.5h 15.5v -15.5a 15.5 15.5, 0, 0, 0, -15.5 -15.5" transform="rotate(90,139.5,449.5)"/><rect x="124" y="496" width="31" height="31" transform="rotate(0,139.5,511.5)"/><rect x="124" y="527" width="31" height="31" transform="rotate(0,139.5,542.5)"/><path d="M 124 558v 31h 31v -15.5a 15.5 15.5, 0, 0, 0, -15.5 -15.5" transform="rotate(90,139.5,573.5)"/><rect x="124" y="651" width="31" height="31" transform="rotate(0,139.5,666.5)"/><path d="M 155 310v 31h 31v -15.5a 15.5 15.5, 0, 0, 0, -15.5 -15.5" transform="rotate(-90,170.5,325.5)"/><rect x="155" y="341" width="31" height="31" transform="rotate(0,170.5,356.5)"/><path d="M 155 372v 31h 31v -15.5a 15.5 15.5, 0, 0, 0, -15.5 -15.5" transform="rotate(90,170.5,387.5)"/><path d="M 155 465v 31h 31v -15.5a 15.5 15.5, 0, 0, 0, -15.5 -15.5" transform="rotate(-90,170.5,480.5)"/><path d="M 155 496v 31h 31v -15.5a 15.5 15.5, 0, 0, 0, -15.5 -15.5" transform="rotate(90,170.5,511.5)"/><path d="M 155 589v 31h 31v -15.5a 15.5 15.5, 0, 0, 0, -15.5 -15.5" transform="rotate(-90,170.5,604.5)"/><rect x="155" y="620" width="31" height="31" transform="rotate(0,170.5,635.5)"/><rect x="155" y="651" width="31" height="31" transform="rotate(0,170.5,666.5)"/><rect x="186" y="310" width="31" height="31" transform="rotate(0,201.5,325.5)"/><rect x="186" y="341" width="31" height="31" transform="rotate(0,201.5,356.5)"/><path d="M 186 434v 15.5a 15.5 15.5, 0, 0, 0, 15.5 15.5h 15.5v -15.5a 15.5 15.5, 0, 0, 0, -15.5 -15.5" transform="rotate(90,201.5,449.5)"/><path d="M 186 527v 31h 31v -15.5a 15.5 15.5, 0, 0, 0, -15.5 -15.5" transform="rotate(-90,201.5,542.5)"/><rect x="186" y="558" width="31" height="31" transform="rotate(0,201.5,573.5)"/><rect x="186" y="589" width="31" height="31" transform="rotate(0,201.5,604.5)"/><rect x="186" y="620" width="31" height="31" transform="rotate(0,201.5,635.5)"/><path d="M 186 651v 31h 31v -15.5a 15.5 15.5, 0, 0, 0, -15.5 -15.5" transform="rotate(90,201.5,666.5)"/><path d="M 217 341v 31h 31v -15.5a 15.5 15.5, 0, 0, 0, -15.5 -15.5" transform="rotate(90,232.5,356.5)"/><path d="M 217 496v 31h 31v -15.5a 15.5 15.5, 0, 0, 0, -15.5 -15.5" transform="rotate(-90,232.5,511.5)"/><path d="M 217 527v 31h 31v -15.5a 15.5 15.5, 0, 0, 0, -15.5 -15.5" transform="rotate(90,232.5,542.5)"/><path d="M 217 589v 31h 31v -15.5a 15.5 15.5, 0, 0, 0, -15.5 -15.5" transform="rotate(90,232.5,604.5)"/><path d="M 217 682v 31h 31v -15.5a 15.5 15.5, 0, 0, 0, -15.5 -15.5" transform="rotate(-90,232.5,697.5)"/><path d="M 248 310v 31h 31v -15.5a 15.5 15.5, 0, 0, 0, -15.5 -15.5" transform="rotate(-90,263.5,325.5)"/><path d="M 248 372v 15.5a 15.5 15.5, 0, 0, 0, 15.5 15.5h 15.5v -15.5a 15.5 15.5, 0, 0, 0, -15.5 -15.5" transform="rotate(90,263.5,387.5)"/><path d="M 248 434v 15.5a 15.5 15.5, 0, 0, 0, 15.5 15.5h 15.5v -15.5a 15.5 15.5, 0, 0, 0, -15.5 -15.5" transform="rotate(90,263.5,449.5)"/><path d="M 248 496v 31h 31v -15.5a 15.5 15.5, 0, 0, 0, -15.5 -15.5" transform="rotate(90,263.5,511.5)"/><path d="M 248 558v 15.5a 15.5 15.5, 0, 0, 0, 15.5 15.5h 15.5v -15.5a 15.5 15.5, 0, 0, 0, -15.5 -15.5" transform="rotate(90,263.5,573.5)"/><path d="M 248 620v 31h 31v -15.5a 15.5 15.5, 0, 0, 0, -15.5 -15.5" transform="rotate(-90,263.5,635.5)"/><path d="M 248 682v 31h 31v -15.5a 15.5 15.5, 0, 0, 0, -15.5 -15.5" transform="rotate(90,263.5,697.5)"/><rect x="279" y="310" width="31" height="31" transform="rotate(0,294.5,325.5)"/><path d="M 279 403v 15.5a 15.5 15.5, 0, 0, 0, 15.5 15.5h 15.5v -15.5a 15.5 15.5, 0, 0, 0, -15.5 -15.5" transform="rotate(90,294.5,418.5)"/><path d="M 279 620v 31h 31v -15.5a 15.5 15.5, 0, 0, 0, -15.5 -15.5" transform="rotate(90,294.5,635.5)"/><path d="M 310 93v 15.5a 15.5 15.5, 0, 0, 0, 15.5 15.5h 15.5v -15.5a 15.5 15.5, 0, 0, 0, -15.5 -15.5" transform="rotate(90,325.5,108.5)"/><path d="M 310 155v 31h 31v -15.5a 15.5 15.5, 0, 0, 0, -15.5 -15.5" transform="rotate(-90,325.5,170.5)"/><rect x="310" y="186" width="31" height="31" transform="rotate(0,325.5,201.5)"/><rect x="310" y="217" width="31" height="31" transform="rotate(0,325.5,232.5)"/><path d="M 310 248v 31h 31v -15.5a 15.5 15.5, 0, 0, 0, -15.5 -15.5" transform="rotate(90,325.5,263.5)"/><path d="M 310 310v 31h 31v -15.5a 15.5 15.5, 0, 0, 0, -15.5 -15.5" transform="rotate(90,325.5,325.5)"/><path d="M 310 434v 31h 31v -15.5a 15.5 15.5, 0, 0, 0, -15.5 -15.5" transform="rotate(-90,325.5,449.5)"/><path d="M 310 465v 31h 31v -15.5a 15.5 15.5, 0, 0, 0, -15.5 -15.5" transform="rotate(90,325.5,480.5)"/><path d="M 310 527v 15.5a 15.5 15.5, 0, 0, 0, 15.5 15.5h 15.5v -15.5a 15.5 15.5, 0, 0, 0, -15.5 -15.5" transform="rotate(90,325.5,542.5)"/><path d="M 310 651v 31h 31v -15.5a 15.5 15.5, 0, 0, 0, -15.5 -15.5" transform="rotate(-90,325.5,666.5)"/><path d="M 310 713v 31h 31v -15.5a 15.5 15.5, 0, 0, 0, -15.5 -15.5" transform="rotate(-90,325.5,728.5)"/><path d="M 310 744v 31h 31v -15.5a 15.5 15.5, 0, 0, 0, -15.5 -15.5" transform="rotate(90,325.5,759.5)"/><path d="M 310 806v 31h 31v -15.5a 15.5 15.5, 0, 0, 0, -15.5 -15.5" transform="rotate(-90,325.5,821.5)"/><path d="M 310 837v 31h 31v -15.5a 15.5 15.5, 0, 0, 0, -15.5 -15.5" transform="rotate(90,325.5,852.5)"/><path d="M 310 899v 31h 31v -15.5a 15.5 15.5, 0, 0, 0, -15.5 -15.5" transform="rotate(-90,325.5,914.5)"/><path d="M 341 124v 31h 31v -15.5a 15.5 15.5, 0, 0, 0, -15.5 -15.5" transform="rotate(-90,356.5,139.5)"/><path d="M 341 155v 31h 31v -15.5a 15.5 15.5, 0, 0, 0, -15.5 -15.5" transform="rotate(90,356.5,170.5)"/><rect x="341" y="217" width="31" height="31" transform="rotate(0,356.5,232.5)"/><path d="M 341 279v 31h 31v -15.5a 15.5 15.5, 0, 0, 0, -15.5 -15.5" transform="rotate(-90,356.5,294.5)"/><path d="M 341 341v 15.5a 15.5 15.5, 0, 0, 0, 15.5 15.5h 15.5v -15.5a 15.5 15.5, 0, 0, 0, -15.5 -15.5" transform="rotate(90,356.5,356.5)"/><path d="M 341 403v 15.5a 15.5 15.5, 0, 0, 0, 15.5 15.5h 15.5v -15.5a 15.5 15.5, 0, 0, 0, -15.5 -15.5" transform="rotate(90,356.5,418.5)"/><path d="M 341 496v 31h 31v -15.5a 15.5 15.5, 0, 0, 0, -15.5 -15.5" transform="rotate(-90,356.5,511.5)"/><path d="M 341 589v 15.5a 15.5 15.5, 0, 0, 0, 15.5 15.5h 15.5v -15.5a 15.5 15.5, 0, 0, 0, -15.5 -15.5" transform="rotate(90,356.5,604.5)"/><path d="M 341 651v 31h 31v -15.5a 15.5 15.5, 0, 0, 0, -15.5 -15.5" transform="rotate(90,356.5,666.5)"/><path d="M 341 775v 31h 31v -15.5a 15.5 15.5, 0, 0, 0, -15.5 -15.5" transform="rotate(-90,356.5,790.5)"/><path d="M 341 806v 31h 31v -15.5a 15.5 15.5, 0, 0, 0, -15.5 -15.5" transform="rotate(90,356.5,821.5)"/><path d="M 341 868v 31h 31v -15.5a 15.5 15.5, 0, 0, 0, -15.5 -15.5" transform="rotate(-90,356.5,883.5)"/><path d="M 341 899v 31h 31v -15.5a 15.5 15.5, 0, 0, 0, -15.5 -15.5" transform="rotate(90,356.5,914.5)"/><path d="M 372 62v 31h 31v -15.5a 15.5 15.5, 0, 0, 0, -15.5 -15.5" transform="rotate(-90,387.5,77.5)"/><path d="M 372 93v 31h 31v -15.5a 15.5 15.5, 0, 0, 0, -15.5 -15.5" transform="rotate(90,387.5,108.5)"/><path d="M 372 186v 31h 31v -15.5a 15.5 15.5, 0, 0, 0, -15.5 -15.5" transform="rotate(-90,387.5,201.5)"/><rect x="372" y="217" width="31" height="31" transform="rotate(0,387.5,232.5)"/><rect x="372" y="248" width="31" height="31" transform="rotate(0,387.5,263.5)"/><rect x="372" y="279" width="31" height="31" transform="rotate(0,387.5,294.5)"/><rect x="372" y="496" width="31" height="31" transform="rotate(0,387.5,511.5)"/><path d="M 372 558v 15.5a 15.5 15.5, 0, 0, 0, 15.5 15.5h 15.5v -15.5a 15.5 15.5, 0, 0, 0, -15.5 -15.5" transform="rotate(90,387.5,573.5)"/><path d="M 372 713v 31h 31v -15.5a 15.5 15.5, 0, 0, 0, -15.5 -15.5" transform="rotate(-90,387.5,728.5)"/><path d="M 372 744v 31h 31v -15.5a 15.5 15.5, 0, 0, 0, -15.5 -15.5" transform="rotate(90,387.5,759.5)"/><path d="M 372 837v 31h 31v -15.5a 15.5 15.5, 0, 0, 0, -15.5 -15.5" transform="rotate(-90,387.5,852.5)"/><rect x="403" y="62" width="31" height="31" transform="rotate(0,418.5,77.5)"/><path d="M 403 124v 15.5a 15.5 15.5, 0, 0, 0, 15.5 15.5h 15.5v -15.5a 15.5 15.5, 0, 0, 0, -15.5 -15.5" transform="rotate(90,418.5,139.5)"/><rect x="403" y="217" width="31" height="31" transform="rotate(0,418.5,232.5)"/><rect x="403" y="279" width="31" height="31" transform="rotate(0,418.5,294.5)"/><path d="M 403 310v 31h 31v -15.5a 15.5 15.5, 0, 0, 0, -15.5 -15.5" transform="rotate(90,418.5,325.5)"/><path d="M 403 372v 31h 31v -15.5a 15.5 15.5, 0, 0, 0, -15.5 -15.5" transform="rotate(-90,418.5,387.5)"/><path d="M 403 403v 31h 31v -15.5a 15.5 15.5, 0, 0, 0, -15.5 -15.5" transform="rotate(90,418.5,418.5)"/><path d="M 403 465v 31h 31v -15.5a 15.5 15.5, 0, 0, 0, -15.5 -15.5" transform="rotate(-90,418.5,480.5)"/><path d="M 403 496v 31h 31v -15.5a 15.5 15.5, 0, 0, 0, -15.5 -15.5" transform="rotate(90,418.5,511.5)"/><path d="M 403 589v 31h 31v -15.5a 15.5 15.5, 0, 0, 0, -15.5 -15.5" transform="rotate(-90,418.5,604.5)"/><rect x="403" y="620" width="31" height="31" transform="rotate(0,418.5,635.5)"/><rect x="403" y="651" width="31" height="31" transform="rotate(0,418.5,666.5)"/><path d="M 403 682v 31h 31v -15.5a 15.5 15.5, 0, 0, 0, -15.5 -15.5" transform="rotate(90,418.5,697.5)"/><path d="M 403 806v 31h 31v -15.5a 15.5 15.5, 0, 0, 0, -15.5 -15.5" transform="rotate(-90,418.5,821.5)"/><rect x="403" y="837" width="31" height="31" transform="rotate(0,418.5,852.5)"/><path d="M 403 930v 15.5a 15.5 15.5, 0, 0, 0, 15.5 15.5h 15.5v -15.5a 15.5 15.5, 0, 0, 0, -15.5 -15.5" transform="rotate(90,418.5,945.5)"/><path d="M 434 62v 31h 31v -15.5a 15.5 15.5, 0, 0, 0, -15.5 -15.5" transform="rotate(90,449.5,77.5)"/><rect x="434" y="217" width="31" height="31" transform="rotate(0,449.5,232.5)"/><path d="M 434 248v 31h 31v -15.5a 15.5 15.5, 0, 0, 0, -15.5 -15.5" transform="rotate(90,449.5,263.5)"/><path d="M 434 434v 31h 31v -15.5a 15.5 15.5, 0, 0, 0, -15.5 -15.5" transform="rotate(-90,449.5,449.5)"/><path d="M 434 527v 31h 31v -15.5a 15.5 15.5, 0, 0, 0, -15.5 -15.5" transform="rotate(-90,449.5,542.5)"/><path d="M 434 558v 31h 31v -15.5a 15.5 15.5, 0, 0, 0, -15.5 -15.5" transform="rotate(90,449.5,573.5)"/><path d="M 434 651v 31h 31v -15.5a 15.5 15.5, 0, 0, 0, -15.5 -15.5" transform="rotate(90,449.5,666.5)"/><path d="M 434 713v 31h 31v -15.5a 15.5 15.5, 0, 0, 0, -15.5 -15.5" transform="rotate(-90,449.5,728.5)"/><rect x="434" y="744" width="31" height="31" transform="rotate(0,449.5,759.5)"/><path d="M 434 837v 31h 31v -15.5a 15.5 15.5, 0, 0, 0, -15.5 -15.5" transform="rotate(90,449.5,852.5)"/><path d="M 434 899v 15.5a 15.5 15.5, 0, 0, 0, 15.5 15.5h 15.5v -15.5a 15.5 15.5, 0, 0, 0, -15.5 -15.5" transform="rotate(90,449.5,914.5)"/><path d="M 465 124v 31h 31v -15.5a 15.5 15.5, 0, 0, 0, -15.5 -15.5" transform="rotate(-90,480.5,139.5)"/><rect x="465" y="155" width="31" height="31" transform="rotate(0,480.5,170.5)"/><rect x="465" y="217" width="31" height="31" transform="rotate(0,480.5,232.5)"/><rect x="465" y="434" width="31" height="31" transform="rotate(0,480.5,449.5)"/><rect x="465" y="465" width="31" height="31" transform="rotate(0,480.5,480.5)"/><path d="M 465 496v 31h 31v -15.5a 15.5 15.5, 0, 0, 0, -15.5 -15.5" transform="rotate(90,480.5,511.5)"/><rect x="465" y="744" width="31" height="31" transform="rotate(0,480.5,759.5)"/><path d="M 465 806v 15.5a 15.5 15.5, 0, 0, 0, 15.5 15.5h 15.5v -15.5a 15.5 15.5, 0, 0, 0, -15.5 -15.5" transform="rotate(90,480.5,821.5)"/><path d="M 465 868v 15.5a 15.5 15.5, 0, 0, 0, 15.5 15.5h 15.5v -15.5a 15.5 15.5, 0, 0, 0, -15.5 -15.5" transform="rotate(90,480.5,883.5)"/><path d="M 465 930v 31h 31v -15.5a 15.5 15.5, 0, 0, 0, -15.5 -15.5" transform="rotate(-90,480.5,945.5)"/><path d="M 496 62v 31h 31v -15.5a 15.5 15.5, 0, 0, 0, -15.5 -15.5" transform="rotate(-90,511.5,77.5)"/><rect x="496" y="93" width="31" height="31" transform="rotate(0,511.5,108.5)"/><rect x="496" y="155" width="31" height="31" transform="rotate(0,511.5,170.5)"/><rect x="496" y="186" width="31" height="31" transform="rotate(0,511.5,201.5)"/><rect x="496" y="217" width="31" height="31" transform="rotate(0,511.5,232.5)"/><rect x="496" y="248" width="31" height="31" transform="rotate(0,511.5,263.5)"/><rect x="496" y="279" width="31" height="31" transform="rotate(0,511.5,294.5)"/><rect x="496" y="310" width="31" height="31" transform="rotate(0,511.5,325.5)"/><rect x="496" y="341" width="31" height="31" transform="rotate(0,511.5,356.5)"/><rect x="496" y="372" width="31" height="31" transform="rotate(0,511.5,387.5)"/><rect x="496" y="403" width="31" height="31" transform="rotate(0,511.5,418.5)"/><rect x="496" y="434" width="31" height="31" transform="rotate(0,511.5,449.5)"/><path d="M 496 527v 15.5a 15.5 15.5, 0, 0, 0, 15.5 15.5h 15.5v -15.5a 15.5 15.5, 0, 0, 0, -15.5 -15.5" transform="rotate(90,511.5,542.5)"/><path d="M 496 589v 15.5a 15.5 15.5, 0, 0, 0, 15.5 15.5h 15.5v -15.5a 15.5 15.5, 0, 0, 0, -15.5 -15.5" transform="rotate(90,511.5,604.5)"/><path d="M 496 651v 31h 31v -15.5a 15.5 15.5, 0, 0, 0, -15.5 -15.5" transform="rotate(-90,511.5,666.5)"/><path d="M 496 682v 31h 31v -15.5a 15.5 15.5, 0, 0, 0, -15.5 -15.5" transform="rotate(90,511.5,697.5)"/><rect x="496" y="744" width="31" height="31" transform="rotate(0,511.5,759.5)"/><path d="M 496 775v 31h 31v -15.5a 15.5 15.5, 0, 0, 0, -15.5 -15.5" transform="rotate(90,511.5,790.5)"/><path d="M 496 837v 31h 31v -15.5a 15.5 15.5, 0, 0, 0, -15.5 -15.5" transform="rotate(-90,511.5,852.5)"/><path d="M 496 930v 31h 31v -15.5a 15.5 15.5, 0, 0, 0, -15.5 -15.5" transform="rotate(90,511.5,945.5)"/><rect x="527" y="62" width="31" height="31" transform="rotate(0,542.5,77.5)"/><rect x="527" y="93" width="31" height="31" transform="rotate(0,542.5,108.5)"/><rect x="527" y="124" width="31" height="31" transform="rotate(0,542.5,139.5)"/><rect x="527" y="155" width="31" height="31" transform="rotate(0,542.5,170.5)"/><rect x="527" y="186" width="31" height="31" transform="rotate(0,542.5,201.5)"/><path d="M 527 217v 31h 31v -15.5a 15.5 15.5, 0, 0, 0, -15.5 -15.5" transform="rotate(90,542.5,232.5)"/><rect x="527" y="310" width="31" height="31" transform="rotate(0,542.5,325.5)"/><rect x="527" y="341" width="31" height="31" transform="rotate(0,542.5,356.5)"/><rect x="527" y="372" width="31" height="31" transform="rotate(0,542.5,387.5)"/><rect x="527" y="403" width="31" height="31" transform="rotate(0,542.5,418.5)"/><rect x="527" y="434" width="31" height="31" transform="rotate(0,542.5,449.5)"/><rect x="527" y="465" width="31" height="31" transform="rotate(0,542.5,480.5)"/><path d="M 527 651v 31h 31v -15.5a 15.5 15.5, 0, 0, 0, -15.5 -15.5" transform="rotate(90,542.5,666.5)"/><path d="M 527 713v 15.5a 15.5 15.5, 0, 0, 0, 15.5 15.5h 15.5v -15.5a 15.5 15.5, 0, 0, 0, -15.5 -15.5" transform="rotate(90,542.5,728.5)"/><path d="M 527 806v 31h 31v -15.5a 15.5 15.5, 0, 0, 0, -15.5 -15.5" transform="rotate(-90,542.5,821.5)"/><rect x="527" y="837" width="31" height="31" transform="rotate(0,542.5,852.5)"/><path d="M 527 868v 31h 31v -15.5a 15.5 15.5, 0, 0, 0, -15.5 -15.5" transform="rotate(90,542.5,883.5)"/><rect x="558" y="62" width="31" height="31" transform="rotate(0,573.5,77.5)"/><rect x="558" y="93" width="31" height="31" transform="rotate(0,573.5,108.5)"/><rect x="558" y="124" width="31" height="31" transform="rotate(0,573.5,139.5)"/><rect x="558" y="186" width="31" height="31" transform="rotate(0,573.5,201.5)"/><path d="M 558 248v 15.5a 15.5 15.5, 0, 0, 0, 15.5 15.5h 15.5v -15.5a 15.5 15.5, 0, 0, 0, -15.5 -15.5" transform="rotate(90,573.5,263.5)"/><rect x="558" y="341" width="31" height="31" transform="rotate(0,573.5,356.5)"/><rect x="558" y="372" width="31" height="31" transform="rotate(0,573.5,387.5)"/><rect x="558" y="403" width="31" height="31" transform="rotate(0,573.5,418.5)"/><rect x="558" y="465" width="31" height="31" transform="rotate(0,573.5,480.5)"/><rect x="558" y="496" width="31" height="31" transform="rotate(0,573.5,511.5)"/><path d="M 558 527v 31h 31v -15.5a 15.5 15.5, 0, 0, 0, -15.5 -15.5" transform="rotate(90,573.5,542.5)"/><path d="M 558 620v 15.5a 15.5 15.5, 0, 0, 0, 15.5 15.5h 15.5v -15.5a 15.5 15.5, 0, 0, 0, -15.5 -15.5" transform="rotate(90,573.5,635.5)"/><path d="M 558 775v 31h 31v -15.5a 15.5 15.5, 0, 0, 0, -15.5 -15.5" transform="rotate(-90,573.5,790.5)"/><rect x="558" y="806" width="31" height="31" transform="rotate(0,573.5,821.5)"/><rect x="558" y="837" width="31" height="31" transform="rotate(0,573.5,852.5)"/><path d="M 558 930v 15.5a 15.5 15.5, 0, 0, 0, 15.5 15.5h 15.5v -15.5a 15.5 15.5, 0, 0, 0, -15.5 -15.5" transform="rotate(90,573.5,945.5)"/><rect x="589" y="62" width="31" height="31" transform="rotate(0,604.5,77.5)"/><rect x="589" y="124" width="31" height="31" transform="rotate(0,604.5,139.5)"/><rect x="589" y="186" width="31" height="31" transform="rotate(0,604.5,201.5)"/><path d="M 589 279v 15.5a 15.5 15.5, 0, 0, 0, 15.5 15.5h 15.5v -15.5a 15.5 15.5, 0, 0, 0, -15.5 -15.5" transform="rotate(90,604.5,294.5)"/><rect x="589" y="341" width="31" height="31" transform="rotate(0,604.5,356.5)"/><rect x="589" y="372" width="31" height="31" transform="rotate(0,604.5,387.5)"/><rect x="589" y="403" width="31" height="31" transform="rotate(0,604.5,418.5)"/><rect x="589" y="434" width="31" height="31" transform="rotate(0,604.5,449.5)"/><path d="M 589 589v 31h 31v -15.5a 15.5 15.5, 0, 0, 0, -15.5 -15.5" transform="rotate(-90,604.5,604.5)"/><path d="M 589 682v 15.5a 15.5 15.5, 0, 0, 0, 15.5 15.5h 15.5v -15.5a 15.5 15.5, 0, 0, 0, -15.5 -15.5" transform="rotate(90,604.5,697.5)"/><rect x="589" y="806" width="31" height="31" transform="rotate(0,604.5,821.5)"/><rect x="589" y="837" width="31" height="31" transform="rotate(0,604.5,852.5)"/><path d="M 589 868v 31h 31v -15.5a 15.5 15.5, 0, 0, 0, -15.5 -15.5" transform="rotate(90,604.5,883.5)"/><rect x="620" y="62" width="31" height="31" transform="rotate(0,635.5,77.5)"/><rect x="620" y="93" width="31" height="31" transform="rotate(0,635.5,108.5)"/><rect x="620" y="124" width="31" height="31" transform="rotate(0,635.5,139.5)"/><rect x="620" y="155" width="31" height="31" transform="rotate(0,635.5,170.5)"/><path d="M 620 186v 31h 31v -15.5a 15.5 15.5, 0, 0, 0, -15.5 -15.5" transform="rotate(90,635.5,201.5)"/><path d="M 620 248v 15.5a 15.5 15.5, 0, 0, 0, 15.5 15.5h 15.5v -15.5a 15.5 15.5, 0, 0, 0, -15.5 -15.5" transform="rotate(90,635.5,263.5)"/><path d="M 620 341v 31h 31v -15.5a 15.5 15.5, 0, 0, 0, -15.5 -15.5" transform="rotate(90,635.5,356.5)"/><path d="M 620 434v 31h 31v -15.5a 15.5 15.5, 0, 0, 0, -15.5 -15.5" transform="rotate(90,635.5,449.5)"/><path d="M 620 496v 31h 31v -15.5a 15.5 15.5, 0, 0, 0, -15.5 -15.5" transform="rotate(-90,635.5,511.5)"/><path d="M 620 558v 31h 31v -15.5a 15.5 15.5, 0, 0, 0, -15.5 -15.5" transform="rotate(-90,635.5,573.5)"/><rect x="620" y="589" width="31" height="31" transform="rotate(0,635.5,604.5)"/><rect x="620" y="620" width="31" height="31" transform="rotate(0,635.5,635.5)"/><path d="M 620 651v 31h 31v -15.5a 15.5 15.5, 0, 0, 0, -15.5 -15.5" transform="rotate(90,635.5,666.5)"/><path d="M 620 930v 31h 31v -15.5a 15.5 15.5, 0, 0, 0, -15.5 -15.5" transform="rotate(-90,635.5,945.5)"/><rect x="651" y="62" width="31" height="31" transform="rotate(0,666.5,77.5)"/><rect x="651" y="93" width="31" height="31" transform="rotate(0,666.5,108.5)"/><rect x="651" y="124" width="31" height="31" transform="rotate(0,666.5,139.5)"/><path d="M 651 155v 31h 31v -15.5a 15.5 15.5, 0, 0, 0, -15.5 -15.5" transform="rotate(90,666.5,170.5)"/><path d="M 651 217v 15.5a 15.5 15.5, 0, 0, 0, 15.5 15.5h 15.5v -15.5a 15.5 15.5, 0, 0, 0, -15.5 -15.5" transform="rotate(90,666.5,232.5)"/><path d="M 651 310v 15.5a 15.5 15.5, 0, 0, 0, 15.5 15.5h 15.5v -15.5a 15.5 15.5, 0, 0, 0, -15.5 -15.5" transform="rotate(90,666.5,325.5)"/><path d="M 651 465v 31h 31v -15.5a 15.5 15.5, 0, 0, 0, -15.5 -15.5" transform="rotate(-90,666.5,480.5)"/><rect x="651" y="496" width="31" height="31" transform="rotate(0,666.5,511.5)"/><rect x="651" y="527" width="31" height="31" transform="rotate(0,666.5,542.5)"/><path d="M 651 558v 31h 31v -15.5a 15.5 15.5, 0, 0, 0, -15.5 -15.5" transform="rotate(90,666.5,573.5)"/><path d="M 651 713v 31h 31v -15.5a 15.5 15.5, 0, 0, 0, -15.5 -15.5" transform="rotate(-90,666.5,728.5)"/><rect x="651" y="744" width="31" height="31" transform="rotate(0,666.5,759.5)"/><rect x="651" y="775" width="31" height="31" transform="rotate(0,666.5,790.5)"/><path d="M 651 868v 31h 31v -15.5a 15.5 15.5, 0, 0, 0, -15.5 -15.5" transform="rotate(-90,666.5,883.5)"/><rect x="651" y="899" width="31" height="31" transform="rotate(0,666.5,914.5)"/><path d="M 651 930v 31h 31v -15.5a 15.5 15.5, 0, 0, 0, -15.5 -15.5" transform="rotate(90,666.5,945.5)"/><rect x="682" y="62" width="31" height="31" transform="rotate(0,697.5,77.5)"/><rect x="682" y="93" width="31" height="31" transform="rotate(0,697.5,108.5)"/><path d="M 682 124v 31h 31v -15.5a 15.5 15.5, 0, 0, 0, -15.5 -15.5" transform="rotate(90,697.5,139.5)"/><path d="M 682 248v 31h 31v -15.5a 15.5 15.5, 0, 0, 0, -15.5 -15.5" transform="rotate(-90,697.5,263.5)"/><path d="M 682 279v 31h 31v -15.5a 15.5 15.5, 0, 0, 0, -15.5 -15.5" transform="rotate(90,697.5,294.5)"/><path d="M 682 403v 31h 31v -15.5a 15.5 15.5, 0, 0, 0, -15.5 -15.5" transform="rotate(-90,697.5,418.5)"/><rect x="682" y="434" width="31" height="31" transform="rotate(0,697.5,449.5)"/><rect x="682" y="465" width="31" height="31" transform="rotate(0,697.5,480.5)"/><path d="M 682 496v 31h 31v -15.5a 15.5 15.5, 0, 0, 0, -15.5 -15.5" transform="rotate(90,697.5,511.5)"/><path d="M 682 589v 15.5a 15.5 15.5, 0, 0, 0, 15.5 15.5h 15.5v -15.5a 15.5 15.5, 0, 0, 0, -15.5 -15.5" transform="rotate(90,697.5,604.5)"/><path d="M 682 682v 31h 31v -15.5a 15.5 15.5, 0, 0, 0, -15.5 -15.5" transform="rotate(-90,697.5,697.5)"/><rect x="682" y="713" width="31" height="31" transform="rotate(0,697.5,728.5)"/><rect x="682" y="744" width="31" height="31" transform="rotate(0,697.5,759.5)"/><rect x="682" y="775" width="31" height="31" transform="rotate(0,697.5,790.5)"/><rect x="682" y="806" width="31" height="31" transform="rotate(0,697.5,821.5)"/><rect x="682" y="837" width="31" height="31" transform="rotate(0,697.5,852.5)"/><rect x="682" y="868" width="31" height="31" transform="rotate(0,697.5,883.5)"/><path d="M 713 310v 15.5a 15.5 15.5, 0, 0, 0, 15.5 15.5h 15.5v -15.5a 15.5 15.5, 0, 0, 0, -15.5 -15.5" transform="rotate(90,728.5,325.5)"/><path d="M 713 372v 31h 31v -15.5a 15.5 15.5, 0, 0, 0, -15.5 -15.5" transform="rotate(-90,728.5,387.5)"/><rect x="713" y="434" width="31" height="31" transform="rotate(0,728.5,449.5)"/><path d="M 713 527v 31h 31v -15.5a 15.5 15.5, 0, 0, 0, -15.5 -15.5" transform="rotate(-90,728.5,542.5)"/><path d="M 713 651v 31h 31v -15.5a 15.5 15.5, 0, 0, 0, -15.5 -15.5" transform="rotate(-90,728.5,666.5)"/><rect x="713" y="682" width="31" height="31" transform="rotate(0,728.5,697.5)"/><rect x="713" y="806" width="31" height="31" transform="rotate(0,728.5,821.5)"/><rect x="713" y="837" width="31" height="31" transform="rotate(0,728.5,852.5)"/><rect x="713" y="868" width="31" height="31" transform="rotate(0,728.5,883.5)"/><rect x="744" y="372" width="31" height="31" transform="rotate(0,759.5,387.5)"/><rect x="744" y="434" width="31" height="31" transform="rotate(0,759.5,449.5)"/><rect x="744" y="465" width="31" height="31" transform="rotate(0,759.5,480.5)"/><rect x="744" y="496" width="31" height="31" transform="rotate(0,759.5,511.5)"/><rect x="744" y="527" width="31" height="31" transform="rotate(0,759.5,542.5)"/><path d="M 744 589v 31h 31v -15.5a 15.5 15.5, 0, 0, 0, -15.5 -15.5" transform="rotate(-90,759.5,604.5)"/><rect x="744" y="620" width="31" height="31" transform="rotate(0,759.5,635.5)"/><rect x="744" y="651" width="31" height="31" transform="rotate(0,759.5,666.5)"/><rect x="744" y="682" width="31" height="31" transform="rotate(0,759.5,697.5)"/><path d="M 744 744v 15.5a 15.5 15.5, 0, 0, 0, 15.5 15.5h 15.5v -15.5a 15.5 15.5, 0, 0, 0, -15.5 -15.5" transform="rotate(90,759.5,759.5)"/><rect x="744" y="806" width="31" height="31" transform="rotate(0,759.5,821.5)"/><rect x="744" y="868" width="31" height="31" transform="rotate(0,759.5,883.5)"/><rect x="744" y="899" width="31" height="31" transform="rotate(0,759.5,914.5)"/><path d="M 775 310v 31h 31v -15.5a 15.5 15.5, 0, 0, 0, -15.5 -15.5" transform="rotate(-90,790.5,325.5)"/><path d="M 775 372v 31h 31v -15.5a 15.5 15.5, 0, 0, 0, -15.5 -15.5" transform="rotate(90,790.5,387.5)"/><path d="M 775 434v 31h 31v -15.5a 15.5 15.5, 0, 0, 0, -15.5 -15.5" transform="rotate(90,790.5,449.5)"/><rect x="775" y="496" width="31" height="31" transform="rotate(0,790.5,511.5)"/><rect x="775" y="527" width="31" height="31" transform="rotate(0,790.5,542.5)"/><path d="M 775 589v 31h 31v -15.5a 15.5 15.5, 0, 0, 0, -15.5 -15.5" transform="rotate(90,790.5,604.5)"/><rect x="775" y="651" width="31" height="31" transform="rotate(0,790.5,666.5)"/><rect x="775" y="682" width="31" height="31" transform="rotate(0,790.5,697.5)"/><rect x="775" y="806" width="31" height="31" transform="rotate(0,790.5,821.5)"/><path d="M 775 837v 31h 31v -15.5a 15.5 15.5, 0, 0, 0, -15.5 -15.5" transform="rotate(90,790.5,852.5)"/><rect x="775" y="899" width="31" height="31" transform="rotate(0,790.5,914.5)"/><path d="M 775 930v 31h 31v -15.5a 15.5 15.5, 0, 0, 0, -15.5 -15.5" transform="rotate(90,790.5,945.5)"/><rect x="806" y="310" width="31" height="31" transform="rotate(0,821.5,325.5)"/><rect x="806" y="341" width="31" height="31" transform="rotate(0,821.5,356.5)"/><path d="M 806 403v 31h 31v -15.5a 15.5 15.5, 0, 0, 0, -15.5 -15.5" transform="rotate(-90,821.5,418.5)"/><path d="M 806 465v 31h 31v -15.5a 15.5 15.5, 0, 0, 0, -15.5 -15.5" transform="rotate(-90,821.5,480.5)"/><rect x="806" y="496" width="31" height="31" transform="rotate(0,821.5,511.5)"/><rect x="806" y="527" width="31" height="31" transform="rotate(0,821.5,542.5)"/><path d="M 806 558v 31h 31v -15.5a 15.5 15.5, 0, 0, 0, -15.5 -15.5" transform="rotate(90,821.5,573.5)"/><path d="M 806 620v 31h 31v -15.5a 15.5 15.5, 0, 0, 0, -15.5 -15.5" transform="rotate(-90,821.5,635.5)"/><rect x="806" y="651" width="31" height="31" transform="rotate(0,821.5,666.5)"/><rect x="806" y="682" width="31" height="31" transform="rotate(0,821.5,697.5)"/><rect x="806" y="713" width="31" height="31" transform="rotate(0,821.5,728.5)"/><rect x="806" y="744" width="31" height="31" transform="rotate(0,821.5,759.5)"/><rect x="806" y="775" width="31" height="31" transform="rotate(0,821.5,790.5)"/><path d="M 806 806v 31h 31v -15.5a 15.5 15.5, 0, 0, 0, -15.5 -15.5" transform="rotate(90,821.5,821.5)"/><rect x="806" y="899" width="31" height="31" transform="rotate(0,821.5,914.5)"/><rect x="837" y="310" width="31" height="31" transform="rotate(0,852.5,325.5)"/><path d="M 837 341v 31h 31v -15.5a 15.5 15.5, 0, 0, 0, -15.5 -15.5" transform="rotate(90,852.5,356.5)"/><rect x="837" y="403" width="31" height="31" transform="rotate(0,852.5,418.5)"/><path d="M 837 434v 31h 31v -15.5a 15.5 15.5, 0, 0, 0, -15.5 -15.5" transform="rotate(90,852.5,449.5)"/><path d="M 837 496v 31h 31v -15.5a 15.5 15.5, 0, 0, 0, -15.5 -15.5" transform="rotate(90,852.5,511.5)"/><rect x="837" y="775" width="31" height="31" transform="rotate(0,852.5,790.5)"/><rect x="837" y="899" width="31" height="31" transform="rotate(0,852.5,914.5)"/><path d="M 868 372v 15.5a 15.5 15.5, 0, 0, 0, 15.5 15.5h 15.5v -15.5a 15.5 15.5, 0, 0, 0, -15.5 -15.5" transform="rotate(90,883.5,387.5)"/><path d="M 868 465v 31h 31v -15.5a 15.5 15.5, 0, 0, 0, -15.5 -15.5" transform="rotate(-90,883.5,480.5)"/><path d="M 868 527v 31h 31v -15.5a 15.5 15.5, 0, 0, 0, -15.5 -15.5" transform="rotate(-90,883.5,542.5)"/><rect x="868" y="558" width="31" height="31" transform="rotate(0,883.5,573.5)"/><rect x="868" y="589" width="31" height="31" transform="rotate(0,883.5,604.5)"/><rect x="868" y="620" width="31" height="31" transform="rotate(0,883.5,635.5)"/><path d="M 868 682v 31h 31v -15.5a 15.5 15.5, 0, 0, 0, -15.5 -15.5" transform="rotate(-90,883.5,697.5)"/><rect x="868" y="713" width="31" height="31" transform="rotate(0,883.5,728.5)"/><rect x="868" y="775" width="31" height="31" transform="rotate(0,883.5,790.5)"/><rect x="868" y="806" width="31" height="31" transform="rotate(0,883.5,821.5)"/><rect x="868" y="899" width="31" height="31" transform="rotate(0,883.5,914.5)"/><rect x="868" y="930" width="31" height="31" transform="rotate(0,883.5,945.5)"/><path d="M 899 310v 15.5a 15.5 15.5, 0, 0, 0, 15.5 15.5h 15.5v -15.5a 15.5 15.5, 0, 0, 0, -15.5 -15.5" transform="rotate(90,914.5,325.5)"/><rect x="899" y="465" width="31" height="31" transform="rotate(0,914.5,480.5)"/><path d="M 899 496v 31h 31v -15.5a 15.5 15.5, 0, 0, 0, -15.5 -15.5" transform="rotate(90,914.5,511.5)"/><path d="M 899 558v 31h 31v -15.5a 15.5 15.5, 0, 0, 0, -15.5 -15.5" transform="rotate(90,914.5,573.5)"/><rect x="899" y="620" width="31" height="31" transform="rotate(0,914.5,635.5)"/><rect x="899" y="651" width="31" height="31" transform="rotate(0,914.5,666.5)"/><rect x="899" y="682" width="31" height="31" transform="rotate(0,914.5,697.5)"/><rect x="899" y="713" width="31" height="31" transform="rotate(0,914.5,728.5)"/><rect x="899" y="806" width="31" height="31" transform="rotate(0,914.5,821.5)"/><path d="M 899 868v 15.5a 15.5 15.5, 0, 0, 0, 15.5 15.5h 15.5v -15.5a 15.5 15.5, 0, 0, 0, -15.5 -15.5" transform="rotate(90,914.5,883.5)"/><path d="M 899 930v 31h 31v -15.5a 15.5 15.5, 0, 0, 0, -15.5 -15.5" transform="rotate(90,914.5,945.5)"/><path d="M 930 372v 15.5a 15.5 15.5, 0, 0, 0, 15.5 15.5h 15.5v -15.5a 15.5 15.5, 0, 0, 0, -15.5 -15.5" transform="rotate(90,945.5,387.5)"/><path d="M 930 527v 15.5a 15.5 15.5, 0, 0, 0, 15.5 15.5h 15.5v -15.5a 15.5 15.5, 0, 0, 0, -15.5 -15.5" transform="rotate(90,945.5,542.5)"/><rect x="930" y="651" width="31" height="31" transform="rotate(0,945.5,666.5)"/><rect x="930" y="682" width="31" height="31" transform="rotate(0,945.5,697.5)"/><rect x="930" y="713" width="31" height="31" transform="rotate(0,945.5,728.5)"/><rect x="930" y="744" width="31" height="31" transform="rotate(0,945.5,759.5)"/><rect x="930" y="775" width="31" height="31" transform="rotate(0,945.5,790.5)"/><path d="M 930 806v 31h 31v -15.5a 15.5 15.5, 0, 0, 0, -15.5 -15.5" transform="rotate(90,945.5,821.5)"/></clipPath><clipPath id="clip-path-corners-square-color-0-0"><path d="M 62 62v 31h 31v -15.5a 15.5 15.5, 0, 0, 0, -15.5 -15.5" transform="rotate(-90,77.5,77.5)"/><rect x="62" y="93" width="31" height="31" transform="rotate(0,77.5,108.5)"/><rect x="62" y="124" width="31" height="31" transform="rotate(0,77.5,139.5)"/><rect x="62" y="155" width="31" height="31" transform="rotate(0,77.5,170.5)"/><rect x="62" y="186" width="31" height="31" transform="rotate(0,77.5,201.5)"/><rect x="62" y="217" width="31" height="31" transform="rotate(0,77.5,232.5)"/><rect x="62" y="248" width="31" height="31" transform="rotate(0,77.5,263.5)"/><rect x="93" y="62" width="31" height="31" transform="rotate(0,108.5,77.5)"/><rect x="93" y="248" width="31" height="31" transform="rotate(0,108.5,263.5)"/><rect x="124" y="62" width="31" height="31" transform="rotate(0,139.5,77.5)"/><rect x="124" y="248" width="31" height="31" transform="rotate(0,139.5,263.5)"/><rect x="155" y="62" width="31" height="31" transform="rotate(0,170.5,77.5)"/><rect x="155" y="248" width="31" height="31" transform="rotate(0,170.5,263.5)"/><rect x="186" y="62" width="31" height="31" transform="rotate(0,201.5,77.5)"/><rect x="186" y="248" width="31" height="31" transform="rotate(0,201.5,263.5)"/><rect x="217" y="62" width="31" height="31" transform="rotate(0,232.5,77.5)"/><rect x="217" y="248" width="31" height="31" transform="rotate(0,232.5,263.5)"/><rect x="248" y="62" width="31" height="31" transform="rotate(0,263.5,77.5)"/><rect x="248" y="93" width="31" height="31" transform="rotate(0,263.5,108.5)"/><rect x="248" y="124" width="31" height="31" transform="rotate(0,263.5,139.5)"/><rect x="248" y="155" width="31" height="31" transform="rotate(0,263.5,170.5)"/><rect x="248" y="186" width="31" height="31" transform="rotate(0,263.5,201.5)"/><rect x="248" y="217" width="31" height="31" transform="rotate(0,263.5,232.5)"/><path d="M 248 248v 31h 31v -15.5a 15.5 15.5, 0, 0, 0, -15.5 -15.5" transform="rotate(90,263.5,263.5)"/></clipPath><clipPath id="clip-path-corners-dot-color-0-0"><path d="M 124 124v 31h 31v -15.5a 15.5 15.5, 0, 0, 0, -15.5 -15.5" transform="rotate(-90,139.5,139.5)"/><rect x="124" y="155" width="31" height="31" transform="rotate(0,139.5,170.5)"/><rect x="124" y="186" width="31" height="31" transform="rotate(0,139.5,201.5)"/><rect x="155" y="124" width="31" height="31" transform="rotate(0,170.5,139.5)"/><rect x="155" y="155" width="31" height="31" transform="rotate(0,170.5,170.5)"/><rect x="155" y="186" width="31" height="31" transform="rotate(0,170.5,201.5)"/><rect x="186" y="124" width="31" height="31" transform="rotate(0,201.5,139.5)"/><rect x="186" y="155" width="31" height="31" transform="rotate(0,201.5,170.5)"/><path d="M 186 186v 31h 31v -15.5a 15.5 15.5, 0, 0, 0, -15.5 -15.5" transform="rotate(90,201.5,201.5)"/></clipPath><clipPath id="clip-path-corners-square-color-1-0"><path d="M 744 62v 31h 31v -15.5a 15.5 15.5, 0, 0, 0, -15.5 -15.5" transform="rotate(-90,759.5,77.5)"/><rect x="744" y="93" width="31" height="31" transform="rotate(0,759.5,108.5)"/><rect x="744" y="124" width="31" height="31" transform="rotate(0,759.5,139.5)"/><rect x="744" y="155" width="31" height="31" transform="rotate(0,759.5,170.5)"/><rect x="744" y="186" width="31" height="31" transform="rotate(0,759.5,201.5)"/><rect x="744" y="217" width="31" height="31" transform="rotate(0,759.5,232.5)"/><rect x="744" y="248" width="31" height="31" transform="rotate(0,759.5,263.5)"/><rect x="775" y="62" width="31" height="31" transform="rotate(0,790.5,77.5)"/><rect x="775" y="248" width="31" height="31" transform="rotate(0,790.5,263.5)"/><rect x="806" y="62" width="31" height="31" transform="rotate(0,821.5,77.5)"/><rect x="806" y="248" width="31" height="31" transform="rotate(0,821.5,263.5)"/><rect x="837" y="62" width="31" height="31" transform="rotate(0,852.5,77.5)"/><rect x="837" y="248" width="31" height="31" transform="rotate(0,852.5,263.5)"/><rect x="868" y="62" width="31" height="31" transform="rotate(0,883.5,77.5)"/><rect x="868" y="248" width="31" height="31" transform="rotate(0,883.5,263.5)"/><rect x="899" y="62" width="31" height="31" transform="rotate(0,914.5,77.5)"/><rect x="899" y="248" width="31" height="31" transform="rotate(0,914.5,263.5)"/><rect x="930" y="62" width="31" height="31" transform="rotate(0,945.5,77.5)"/><rect x="930" y="93" width="31" height="31" transform="rotate(0,945.5,108.5)"/><rect x="930" y="124" width="31" height="31" transform="rotate(0,945.5,139.5)"/><rect x="930" y="155" width="31" height="31" transform="rotate(0,945.5,170.5)"/><rect x="930" y="186" width="31" height="31" transform="rotate(0,945.5,201.5)"/><rect x="930" y="217" width="31" height="31" transform="rotate(0,945.5,232.5)"/><path d="M 930 248v 31h 31v -15.5a 15.5 15.5, 0, 0, 0, -15.5 -15.5" transform="rotate(90,945.5,263.5)"/></clipPath><clipPath id="clip-path-corners-dot-color-1-0"><path d="M 806 124v 31h 31v -15.5a 15.5 15.5, 0, 0, 0, -15.5 -15.5" transform="rotate(-90,821.5,139.5)"/><rect x="806" y="155" width="31" height="31" transform="rotate(0,821.5,170.5)"/><rect x="806" y="186" width="31" height="31" transform="rotate(0,821.5,201.5)"/><rect x="837" y="124" width="31" height="31" transform="rotate(0,852.5,139.5)"/><rect x="837" y="155" width="31" height="31" transform="rotate(0,852.5,170.5)"/><rect x="837" y="186" width="31" height="31" transform="rotate(0,852.5,201.5)"/><rect x="868" y="124" width="31" height="31" transform="rotate(0,883.5,139.5)"/><rect x="868" y="155" width="31" height="31" transform="rotate(0,883.5,170.5)"/><path d="M 868 186v 31h 31v -15.5a 15.5 15.5, 0, 0, 0, -15.5 -15.5" transform="rotate(90,883.5,201.5)"/></clipPath><clipPath id="clip-path-corners-square-color-0-1"><path d="M 62 744v 31h 31v -15.5a 15.5 15.5, 0, 0, 0, -15.5 -15.5" transform="rotate(-90,77.5,759.5)"/><rect x="62" y="775" width="31" height="31" transform="rotate(0,77.5,790.5)"/><rect x="62" y="806" width="31" height="31" transform="rotate(0,77.5,821.5)"/><rect x="62" y="837" width="31" height="31" transform="rotate(0,77.5,852.5)"/><rect x="62" y="868" width="31" height="31" transform="rotate(0,77.5,883.5)"/><rect x="62" y="899" width="31" height="31" transform="rotate(0,77.5,914.5)"/><rect x="62" y="930" width="31" height="31" transform="rotate(0,77.5,945.5)"/><rect x="93" y="744" width="31" height="31" transform="rotate(0,108.5,759.5)"/><rect x="93" y="930" width="31" height="31" transform="rotate(0,108.5,945.5)"/><rect x="124" y="744" width="31" height="31" transform="rotate(0,139.5,759.5)"/><rect x="124" y="930" width="31" height="31" transform="rotate(0,139.5,945.5)"/><rect x="155" y="744" width="31" height="31" transform="rotate(0,170.5,759.5)"/><rect x="155" y="930" width="31" height="31" transform="rotate(0,170.5,945.5)"/><rect x="186" y="744" width="31" height="31" transform="rotate(0,201.5,759.5)"/><rect x="186" y="930" width="31" height="31" transform="rotate(0,201.5,945.5)"/><rect x="217" y="744" width="31" height="31" transform="rotate(0,232.5,759.5)"/><rect x="217" y="930" width="31" height="31" transform="rotate(0,232.5,945.5)"/><rect x="248" y="744" width="31" height="31" transform="rotate(0,263.5,759.5)"/><rect x="248" y="775" width="31" height="31" transform="rotate(0,263.5,790.5)"/><rect x="248" y="806" width="31" height="31" transform="rotate(0,263.5,821.5)"/><rect x="248" y="837" width="31" height="31" transform="rotate(0,263.5,852.5)"/><rect x="248" y="868" width="31" height="31" transform="rotate(0,263.5,883.5)"/><rect x="248" y="899" width="31" height="31" transform="rotate(0,263.5,914.5)"/><path d="M 248 930v 31h 31v -15.5a 15.5 15.5, 0, 0, 0, -15.5 -15.5" transform="rotate(90,263.5,945.5)"/></clipPath><clipPath id="clip-path-corners-dot-color-0-1"><path d="M 124 806v 31h 31v -15.5a 15.5 15.5, 0, 0, 0, -15.5 -15.5" transform="rotate(-90,139.5,821.5)"/><rect x="124" y="837" width="31" height="31" transform="rotate(0,139.5,852.5)"/><rect x="124" y="868" width="31" height="31" transform="rotate(0,139.5,883.5)"/><rect x="155" y="806" width="31" height="31" transform="rotate(0,170.5,821.5)"/><rect x="155" y="837" width="31" height="31" transform="rotate(0,170.5,852.5)"/><rect x="155" y="868" width="31" height="31" transform="rotate(0,170.5,883.5)"/><rect x="186" y="806" width="31" height="31" transform="rotate(0,201.5,821.5)"/><rect x="186" y="837" width="31" height="31" transform="rotate(0,201.5,852.5)"/><path d="M 186 868v 31h 31v -15.5a 15.5 15.5, 0, 0, 0, -15.5 -15.5" transform="rotate(90,201.5,883.5)"/></clipPath></defs><rect x="0" y="0" height="1024" width="1024" clip-path="url('#clip-path-background-color')" fill="#ffffff"/><rect x="62" y="62" height="899" width="899" clip-path="url('#clip-path-dot-color')" fill="#000000"/><rect x="62" y="62" height="217" width="217" clip-path="url('#clip-path-corners-square-color-0-0')" fill="#000000"/><rect x="124" y="124" height="93" width="93" clip-path="url('#clip-path-corners-dot-color-0-0')" fill="#000000"/><rect x="744" y="62" height="217" width="217" clip-path="url('#clip-path-corners-square-color-1-0')" fill="#000000"/><rect x="806" y="124" height="93" width="93" clip-path="url('#clip-path-corners-dot-color-1-0')" fill="#000000"/><rect x="62" y="744" height="217" width="217" clip-path="url('#clip-path-corners-square-color-0-1')" fill="#000000"/><rect x="124" y="806" height="93" width="93" clip-path="url('#clip-path-corners-dot-color-0-1')" fill="#000000"/></svg>