<?xml version="1.0" standalone="no"?>
<svg xmlns="http://www.w3.org/2000/svg" width="1024" height="1024" viewBox="0 0 1024 1024"><defs><clipPath id="clip-path-dot-color"><circle cx="77.5" cy="325.5" r="15.5" transform="rotate(0,77.5,325.5)"/><circle cx="77.5" cy="387.5" r="15.5" transform="rotate(0,77.5,387.5)"/><path d="M 62 527v 31h 31a 31 31, 0, 0, 0, -31 -31" transform="rotate(-90,77.5,542.5)"/><path d="M 62 558v 31h 15.5a 15.5 15.5, 0, 0, 0, 0 -31" transform="rotate(90,77.5,573.5)"/><path d="M 62 651v 31h 15.5a 15.5 15.5, 0, 0, 0, 0 -31" transform="rotate(-90,77.5,666.5)"/><path d="M 62 682v 31h 15.5a 15.5 15.5, 0, 0, 0, 0 -31" transform="rotate(90,77.5,697.5)"/><circle cx="108.5" cy="356.5" r="15.5" transform="rotate(0,108.5,356.5)"/><rect x="93" y="527" width="31" height="31" transform="rotate(0,108.5,542.5)"/><circle cx="108.5" cy="635.5" r="15.5" transform="rotate(0,108.5,635.5)"/><path d="M 124 310v 31h 15.5a 15.5 15.5, 0, 0, 0, 0 -31" transform="rotate(180,139.5,325.5)"/><circle cx="139.5" cy="387.5" r="15.5" transform="rotate(0,139.5,387.5)"/><path d="M 124 434v 31h 31a 31 31, 0, 0, 0, -31 -31" transform="rotate(-90,139.5,449.5)"/><rect x="124" y="465" width="31" height="31" transform="rotate(0,139.5,480.5)"/><rect x="124" y="496" width="31" height="31" transform="rotate(0,139.5,511.5)"/><path d="M 124 527v 31h 31a 31 31, 0, 0, 0, -31 -31" transform="rotate(90,139.5,542.5)"/><circle cx="139.5" cy="604.5" r="15.5" transform="rotate(0,139.5,604.5)"/><path d="M 124 651v 31h 15.5a 15.5 15.5, 0, 0, 0, 0 -31" transform="rotate(180,139.5,666.5)"/><path d="M 155 310v 31h 15.5a 15.5 15.5, 0, 0, 0, 0 -31" transform="rotate(0,170.5,325.5)"/><path d="M 155 403v 31h 31a 31 31, 0, 0, 0, -31 -31" transform="rotate(-90,170.5,418.5)"/><rect x="155" y="434" width="31" height="31" transform="rotate(0,170.5,449.5)"/><path d="M 155 558v 31h 15.5a 15.5 15.5, 0, 0, 0, 0 -31" transform="rotate(180,170.5,573.5)"/><path d="M 155 651v 31h 31a 31 31, 0, 0, 0, -31 -31" transform="rotate(0,170.5,666.5)"/><path d="M 155 682v 31h 15.5a 15.5 15.5, 0, 0, 0, 0 -31" transform="rotate(90,170.5,697.5)"/><rect x="186" y="403" width="31" height="31" transform="rotate(0,201.5,418.5)"/><rect x="186" y="434" width="31" height="31" transform="rotate(0,201.5,449.5)"/><rect x="186" y="558" width="31" height="31" transform="rotate(0,201.5,573.5)"/><circle cx="201.5" cy="635.5" r="15.5" transform="rotate(0,201.5,635.5)"/><path d="M 217 310v 31h 15.5a 15.5 15.5, 0, 0, 0, 0 -31" transform="rotate(180,232.5,325.5)"/><path d="M 217 372v 31h 31a 31 31, 0, 0, 0, -31 -31" transform="rotate(-90,232.5,387.5)"/><rect x="217" y="403" width="31" height="31" transform="rotate(0,232.5,418.5)"/><rect x="217" y="434" width="31" height="31" transform="rotate(0,232.5,449.5)"/><path d="M 217 465v 31h 15.5a 15.5 15.5, 0, 0, 0, 0 -31" transform="rotate(90,232.5,480.5)"/><rect x="217" y="558" width="31" height="31" transform="rotate(0,232.5,573.5)"/><path d="M 217 589v 31h 15.5a 15.5 15.5, 0, 0, 0, 0 -31" transform="rotate(90,232.5,604.5)"/><circle cx="232.5" cy="666.5" r="15.5" transform="rotate(0,232.5,666.5)"/><rect x="248" y="310" width="31" height="31" transform="rotate(0,263.5,325.5)"/><path d="M 248 372v 31h 15.5a 15.5 15.5, 0, 0, 0, 0 -31" transform="rotate(0,263.5,387.5)"/><rect x="248" y="434" width="31" height="31" transform="rotate(0,263.5,449.5)"/><path d="M 248 496v 31h 15.5a 15.5 15.5, 0, 0, 0, 0 -31" transform="rotate(180,263.5,511.5)"/><rect x="248" y="558" width="31" height="31" transform="rotate(0,263.5,573.5)"/><circle cx="263.5" cy="635.5" r="15.5" transform="rotate(0,263.5,635.5)"/><path d="M 248 682v 31h 15.5a 15.5 15.5, 0, 0, 0, 0 -31" transform="rotate(180,263.5,697.5)"/><rect x="279" y="310" width="31" height="31" transform="rotate(0,294.5,325.5)"/><rect x="279" y="434" width="31" height="31" transform="rotate(0,294.5,449.5)"/><rect x="279" y="465" width="31" height="31" transform="rotate(0,294.5,480.5)"/><rect x="279" y="496" width="31" height="31" transform="rotate(0,294.5,511.5)"/><rect x="279" y="527" width="31" height="31" transform="rotate(0,294.5,542.5)"/><rect x="279" y="558" width="31" height="31" transform="rotate(0,294.5,573.5)"/><path d="M 279 589v 31h 31a 31 31, 0, 0, 0, -31 -31" transform="rotate(180,294.5,604.5)"/><path d="M 279 651v 31h 15.5a 15.5 15.5, 0, 0, 0, 0 -31" transform="rotate(-90,294.5,666.5)"/><rect x="279" y="682" width="31" height="31" transform="rotate(0,294.5,697.5)"/><path d="M 310 93v 31h 15.5a 15.5 15.5, 0, 0, 0, 0 -31" transform="rotate(180,325.5,108.5)"/><circle cx="325.5" cy="170.5" r="15.5" transform="rotate(0,325.5,170.5)"/><path d="M 310 217v 31h 31a 31 31, 0, 0, 0, -31 -31" transform="rotate(-90,325.5,232.5)"/><rect x="310" y="248" width="31" height="31" transform="rotate(0,325.5,263.5)"/><rect x="310" y="279" width="31" height="31" transform="rotate(0,325.5,294.5)"/><rect x="310" y="310" width="31" height="31" transform="rotate(0,325.5,325.5)"/><rect x="310" y="341" width="31" height="31" transform="rotate(0,325.5,356.5)"/><rect x="310" y="372" width="31" height="31" transform="rotate(0,325.5,387.5)"/><rect x="310" y="403" width="31" height="31" transform="rotate(0,325.5,418.5)"/><path d="M 310 434v 31h 31a 31 31, 0, 0, 0, -31 -31" transform="rotate(90,325.5,449.5)"/><rect x="310" y="496" width="31" height="31" transform="rotate(0,325.5,511.5)"/><path d="M 310 589v 31h 15.5a 15.5 15.5, 0, 0, 0, 0 -31" transform="rotate(0,325.5,604.5)"/><path d="M 310 682v 31h 31a 31 31, 0, 0, 0, -31 -31" transform="rotate(0,325.5,697.5)"/><rect x="310" y="713" width="31" height="31" transform="rotate(0,325.5,728.5)"/><rect x="310" y="744" width="31" height="31" transform="rotate(0,325.5,759.5)"/><path d="M 310 775v 31h 15.5a 15.5 15.5, 0, 0, 0, 0 -31" transform="rotate(90,325.5,790.5)"/><path d="M 310 837v 31h 31a 31 31, 0, 0, 0, -31 -31" transform="rotate(-90,325.5,852.5)"/><path d="M 310 868v 31h 15.5a 15.5 15.5, 0, 0, 0, 0 -31" transform="rotate(90,325.5,883.5)"/><path d="M 310 930v 31h 15.5a 15.5 15.5, 0, 0, 0, 0 -31" transform="rotate(180,325.5,945.5)"/><path d="M 341 62v 31h 31a 31 31, 0, 0, 0, -31 -31" transform="rotate(-90,356.5,77.5)"/><rect x="341" y="93" width="31" height="31" transform="rotate(0,356.5,108.5)"/><path d="M 341 124v 31h 15.5a 15.5 15.5, 0, 0, 0, 0 -31" transform="rotate(90,356.5,139.5)"/><path d="M 341 186v 31h 31a 31 31, 0, 0, 0, -31 -31" transform="rotate(-90,356.5,201.5)"/><path d="M 341 217v 31h 31a 31 31, 0, 0, 0, -31 -31" transform="rotate(90,356.5,232.5)"/><path d="M 341 310v 31h 15.5a 15.5 15.5, 0, 0, 0, 0 -31" transform="rotate(0,356.5,325.5)"/><path d="M 341 372v 31h 15.5a 15.5 15.5, 0, 0, 0, 0 -31" transform="rotate(0,356.5,387.5)"/><path d="M 341 465v 31h 31a 31 31, 0, 0, 0, -31 -31" transform="rotate(-90,356.5,480.5)"/><rect x="341" y="496" width="31" height="31" transform="rotate(0,356.5,511.5)"/><circle cx="356.5" cy="573.5" r="15.5" transform="rotate(0,356.5,573.5)"/><circle cx="356.5" cy="635.5" r="15.5" transform="rotate(0,356.5,635.5)"/><rect x="341" y="744" width="31" height="31" transform="rotate(0,356.5,759.5)"/><path d="M 341 837v 31h 15.5a 15.5 15.5, 0, 0, 0, 0 -31" transform="rotate(0,356.5,852.5)"/><path d="M 341 930v 31h 15.5a 15.5 15.5, 0, 0, 0, 0 -31" transform="rotate(0,356.5,945.5)"/><path d="M 372 62v 31h 15.5a 15.5 15.5, 0, 0, 0, 0 -31" transform="rotate(0,387.5,77.5)"/><rect x="372" y="186" width="31" height="31" transform="rotate(0,387.5,201.5)"/><circle cx="387.5" cy="263.5" r="15.5" transform="rotate(0,387.5,263.5)"/><path d="M 372 341v 31h 15.5a 15.5 15.5, 0, 0, 0, 0 -31" transform="rotate(180,387.5,356.5)"/><path d="M 372 403v 31h 31a 31 31, 0, 0, 0, -31 -31" transform="rotate(-90,387.5,418.5)"/><rect x="372" y="434" width="31" height="31" transform="rotate(0,387.5,449.5)"/><rect x="372" y="465" width="31" height="31" transform="rotate(0,387.5,480.5)"/><rect x="372" y="496" width="31" height="31" transform="rotate(0,387.5,511.5)"/><path d="M 372 527v 31h 31a 31 31, 0, 0, 0, -31 -31" transform="rotate(180,387.5,542.5)"/><circle cx="387.5" cy="604.5" r="15.5" transform="rotate(0,387.5,604.5)"/><path d="M 372 651v 31h 15.5a 15.5 15.5, 0, 0, 0, 0 -31" transform="rotate(180,387.5,666.5)"/><rect x="372" y="744" width="31" height="31" transform="rotate(0,387.5,759.5)"/><circle cx="387.5" cy="821.5" r="15.5" transform="rotate(0,387.5,821.5)"/><path d="M 372 899v 31h 15.5a 15.5 15.5, 0, 0, 0, 0 -31" transform="rotate(180,387.5,914.5)"/><path d="M 403 93v 31h 31a 31 31, 0, 0, 0, -31 -31" transform="rotate(-90,418.5,108.5)"/><path d="M 403 124v 31h 31a 31 31, 0, 0, 0, -31 -31" transform="rotate(180,418.5,139.5)"/><path d="M 403 186v 31h 15.5a 15.5 15.5, 0, 0, 0, 0 -31" transform="rotate(0,418.5,201.5)"/><path d="M 403 310v 31h 15.5a 15.5 15.5, 0, 0, 0, 0 -31" transform="rotate(-90,418.5,325.5)"/><rect x="403" y="341" width="31" height="31" transform="rotate(0,418.5,356.5)"/><rect x="403" y="403" width="31" height="31" transform="rotate(0,418.5,418.5)"/><path d="M 403 527v 31h 31a 31 31, 0, 0, 0, -31 -31" transform="rotate(0,418.5,542.5)"/><path d="M 403 558v 31h 31a 31 31, 0, 0, 0, -31 -31" transform="rotate(180,418.5,573.5)"/><rect x="403" y="651" width="31" height="31" transform="rotate(0,418.5,666.5)"/><path d="M 403 713v 31h 15.5a 15.5 15.5, 0, 0, 0, 0 -31" transform="rotate(-90,418.5,728.5)"/><rect x="403" y="744" width="31" height="31" transform="rotate(0,418.5,759.5)"/><path d="M 403 868v 31h 15.5a 15.5 15.5, 0, 0, 0, 0 -31" transform="rotate(-90,418.5,883.5)"/><path d="M 403 899v 31h 31a 31 31, 0, 0, 0, -31 -31" transform="rotate(90,418.5,914.5)"/><path d="M 434 62v 31h 15.5a 15.5 15.5, 0, 0, 0, 0 -31" transform="rotate(-90,449.5,77.5)"/><rect x="434" y="93" width="31" height="31" transform="rotate(0,449.5,108.5)"/><rect x="434" y="124" width="31" height="31" transform="rotate(0,449.5,139.5)"/><path d="M 434 155v 31h 15.5a 15.5 15.5, 0, 0, 0, 0 -31" transform="rotate(90,449.5,170.5)"/><circle cx="449.5" cy="263.5" r="15.5" transform="rotate(0,449.5,263.5)"/><rect x="434" y="341" width="31" height="31" transform="rotate(0,449.5,356.5)"/><rect x="434" y="403" width="31" height="31" transform="rotate(0,449.5,418.5)"/><rect x="434" y="434" width="31" height="31" transform="rotate(0,449.5,449.5)"/><path d="M 434 465v 31h 15.5a 15.5 15.5, 0, 0, 0, 0 -31" transform="rotate(90,449.5,480.5)"/><rect x="434" y="558" width="31" height="31" transform="rotate(0,449.5,573.5)"/><path d="M 434 589v 31h 31a 31 31, 0, 0, 0, -31 -31" transform="rotate(180,449.5,604.5)"/><rect x="434" y="651" width="31" height="31" transform="rotate(0,449.5,666.5)"/><path d="M 434 744v 31h 31a 31 31, 0, 0, 0, -31 -31" transform="rotate(0,449.5,759.5)"/><path d="M 434 775v 31h 31a 31 31, 0, 0, 0, -31 -31" transform="rotate(180,449.5,790.5)"/><path d="M 465 93v 31h 15.5a 15.5 15.5, 0, 0, 0, 0 -31" transform="rotate(0,480.5,108.5)"/><circle cx="480.5" cy="201.5" r="15.5" transform="rotate(0,480.5,201.5)"/><path d="M 465 279v 31h 15.5a 15.5 15.5, 0, 0, 0, 0 -31" transform="rotate(-90,480.5,294.5)"/><rect x="465" y="310" width="31" height="31" transform="rotate(0,480.5,325.5)"/><rect x="465" y="341" width="31" height="31" transform="rotate(0,480.5,356.5)"/><rect x="465" y="372" width="31" height="31" transform="rotate(0,480.5,387.5)"/><path d="M 465 403v 31h 31a 31 31, 0, 0, 0, -31 -31" transform="rotate(90,480.5,418.5)"/><path d="M 465 527v 31h 15.5a 15.5 15.5, 0, 0, 0, 0 -31" transform="rotate(-90,480.5,542.5)"/><rect x="465" y="558" width="31" height="31" transform="rotate(0,480.5,573.5)"/><rect x="465" y="589" width="31" height="31" transform="rotate(0,480.5,604.5)"/><rect x="465" y="620" width="31" height="31" transform="rotate(0,480.5,635.5)"/><rect x="465" y="651" width="31" height="31" transform="rotate(0,480.5,666.5)"/><rect x="465" y="682" width="31" height="31" transform="rotate(0,480.5,697.5)"/><path d="M 465 713v 31h 15.5a 15.5 15.5, 0, 0, 0, 0 -31" transform="rotate(90,480.5,728.5)"/><path d="M 465 775v 31h 15.5a 15.5 15.5, 0, 0, 0, 0 -31" transform="rotate(0,480.5,790.5)"/><circle cx="480.5" cy="852.5" r="15.5" transform="rotate(0,480.5,852.5)"/><path d="M 465 899v 31h 15.5a 15.5 15.5, 0, 0, 0, 0 -31" transform="rotate(180,480.5,914.5)"/><path d="M 496 62v 31h 15.5a 15.5 15.5, 0, 0, 0, 0 -31" transform="rotate(180,511.5,77.5)"/><path d="M 496 217v 31h 15.5a 15.5 15.5, 0, 0, 0, 0 -31" transform="rotate(-90,511.5,232.5)"/><path d="M 496 248v 31h 15.5a 15.5 15.5, 0, 0, 0, 0 -31" transform="rotate(90,511.5,263.5)"/><path d="M 496 310v 31h 31a 31 31, 0, 0, 0, -31 -31" transform="rotate(0,511.5,325.5)"/><rect x="496" y="341" width="31" height="31" transform="rotate(0,511.5,356.5)"/><circle cx="511.5" cy="449.5" r="15.5" transform="rotate(0,511.5,449.5)"/><rect x="496" y="682" width="31" height="31" transform="rotate(0,511.5,697.5)"/><rect x="496" y="899" width="31" height="31" transform="rotate(0,511.5,914.5)"/><path d="M 496 930v 31h 31a 31 31, 0, 0, 0, -31 -31" transform="rotate(180,511.5,945.5)"/><path d="M 527 62v 31h 31a 31 31, 0, 0, 0, -31 -31" transform="rotate(0,542.5,77.5)"/><path d="M 527 93v 31h 31a 31 31, 0, 0, 0, -31 -31" transform="rotate(180,542.5,108.5)"/><path d="M 527 279v 31h 15.5a 15.5 15.5, 0, 0, 0, 0 -31" transform="rotate(180,542.5,294.5)"/><rect x="527" y="341" width="31" height="31" transform="rotate(0,542.5,356.5)"/><path d="M 527 372v 31h 31a 31 31, 0, 0, 0, -31 -31" transform="rotate(180,542.5,387.5)"/><path d="M 527 465v 31h 31a 31 31, 0, 0, 0, -31 -31" transform="rotate(-90,542.5,480.5)"/><rect x="527" y="496" width="31" height="31" transform="rotate(0,542.5,511.5)"/><rect x="527" y="527" width="31" height="31" transform="rotate(0,542.5,542.5)"/><rect x="527" y="558" width="31" height="31" transform="rotate(0,542.5,573.5)"/><path d="M 527 589v 31h 15.5a 15.5 15.5, 0, 0, 0, 0 -31" transform="rotate(90,542.5,604.5)"/><rect x="527" y="682" width="31" height="31" transform="rotate(0,542.5,697.5)"/><path d="M 527 713v 31h 31a 31 31, 0, 0, 0, -31 -31" transform="rotate(180,542.5,728.5)"/><path d="M 527 775v 31h 15.5a 15.5 15.5, 0, 0, 0, 0 -31" transform="rotate(180,542.5,790.5)"/><rect x="527" y="899" width="31" height="31" transform="rotate(0,542.5,914.5)"/><rect x="527" y="930" width="31" height="31" transform="rotate(0,542.5,945.5)"/><path d="M 558 93v 31h 31a 31 31, 0, 0, 0, -31 -31" transform="rotate(0,573.5,108.5)"/><rect x="558" y="124" width="31" height="31" transform="rotate(0,573.5,139.5)"/><path d="M 558 155v 31h 15.5a 15.5 15.5, 0, 0, 0, 0 -31" transform="rotate(90,573.5,170.5)"/><path d="M 558 217v 31h 15.5a 15.5 15.5, 0, 0, 0, 0 -31" transform="rotate(-90,573.5,232.5)"/><rect x="558" y="248" width="31" height="31" transform="rotate(0,573.5,263.5)"/><rect x="558" y="279" width="31" height="31" transform="rotate(0,573.5,294.5)"/><rect x="558" y="310" width="31" height="31" transform="rotate(0,573.5,325.5)"/><rect x="558" y="341" width="31" height="31" transform="rotate(0,573.5,356.5)"/><path d="M 558 372v 31h 31a 31 31, 0, 0, 0, -31 -31" transform="rotate(90,573.5,387.5)"/><rect x="558" y="465" width="31" height="31" transform="rotate(0,573.5,480.5)"/><rect x="558" y="496" width="31" height="31" transform="rotate(0,573.5,511.5)"/><path d="M 558 651v 31h 31a 31 31, 0, 0, 0, -31 -31" transform="rotate(-90,573.5,666.5)"/><rect x="558" y="682" width="31" height="31" transform="rotate(0,573.5,697.5)"/><rect x="558" y="713" width="31" height="31" transform="rotate(0,573.5,728.5)"/><rect x="558" y="775" width="31" height="31" transform="rotate(0,573.5,790.5)"/><path d="M 558 806v 31h 15.5a 15.5 15.5, 0, 0, 0, 0 -31" transform="rotate(90,573.5,821.5)"/><rect x="558" y="899" width="31" height="31" transform="rotate(0,573.5,914.5)"/><rect x="558" y="930" width="31" height="31" transform="rotate(0,573.5,945.5)"/><path d="M 589 310v 31h 15.5a 15.5 15.5, 0, 0, 0, 0 -31" transform="rotate(0,604.5,325.5)"/><path d="M 589 403v 31h 15.5a 15.5 15.5, 0, 0, 0, 0 -31" transform="rotate(180,604.5,418.5)"/><rect x="589" y="465" width="31" height="31" transform="rotate(0,604.5,480.5)"/><rect x="589" y="496" width="31" height="31" transform="rotate(0,604.5,511.5)"/><rect x="589" y="527" width="31" height="31" transform="rotate(0,604.5,542.5)"/><path d="M 589 558v 31h 31a 31 31, 0, 0, 0, -31 -31" transform="rotate(180,604.5,573.5)"/><path d="M 589 651v 31h 15.5a 15.5 15.5, 0, 0, 0, 0 -31" transform="rotate(0,604.5,666.5)"/><rect x="589" y="713" width="31" height="31" transform="rotate(0,604.5,728.5)"/><rect x="589" y="744" width="31" height="31" transform="rotate(0,604.5,759.5)"/><rect x="589" y="775" width="31" height="31" transform="rotate(0,604.5,790.5)"/><rect x="589" y="899" width="31" height="31" transform="rotate(0,604.5,914.5)"/><rect x="589" y="930" width="31" height="31" transform="rotate(0,604.5,945.5)"/><circle cx="635.5" cy="77.5" r="15.5" transform="rotate(0,635.5,77.5)"/><path d="M 620 155v 31h 31a 31 31, 0, 0, 0, -31 -31" transform="rotate(-90,635.5,170.5)"/><rect x="620" y="186" width="31" height="31" transform="rotate(0,635.5,201.5)"/><rect x="620" y="217" width="31" height="31" transform="rotate(0,635.5,232.5)"/><rect x="620" y="248" width="31" height="31" transform="rotate(0,635.5,263.5)"/><path d="M 620 279v 31h 31a 31 31, 0, 0, 0, -31 -31" transform="rotate(180,635.5,294.5)"/><path d="M 620 403v 31h 15.5a 15.5 15.5, 0, 0, 0, 0 -31" transform="rotate(0,635.5,418.5)"/><path d="M 620 465v 31h 31a 31 31, 0, 0, 0, -31 -31" transform="rotate(0,635.5,480.5)"/><rect x="620" y="496" width="31" height="31" transform="rotate(0,635.5,511.5)"/><rect x="620" y="527" width="31" height="31" transform="rotate(0,635.5,542.5)"/><path d="M 620 558v 31h 31a 31 31, 0, 0, 0, -31 -31" transform="rotate(90,635.5,573.5)"/><path d="M 620 620v 31h 15.5a 15.5 15.5, 0, 0, 0, 0 -31" transform="rotate(180,635.5,635.5)"/><path d="M 620 713v 31h 15.5a 15.5 15.5, 0, 0, 0, 0 -31" transform="rotate(0,635.5,728.5)"/><path d="M 620 775v 31h 15.5a 15.5 15.5, 0, 0, 0, 0 -31" transform="rotate(0,635.5,790.5)"/><path d="M 620 837v 31h 15.5a 15.5 15.5, 0, 0, 0, 0 -31" transform="rotate(180,635.5,852.5)"/><path d="M 620 899v 31h 31a 31 31, 0, 0, 0, -31 -31" transform="rotate(0,635.5,914.5)"/><path d="M 620 930v 31h 31a 31 31, 0, 0, 0, -31 -31" transform="rotate(90,635.5,945.5)"/><path d="M 651 124v 31h 15.5a 15.5 15.5, 0, 0, 0, 0 -31" transform="rotate(-90,666.5,139.5)"/><rect x="651" y="155" width="31" height="31" transform="rotate(0,666.5,170.5)"/><path d="M 651 186v 31h 31a 31 31, 0, 0, 0, -31 -31" transform="rotate(90,666.5,201.5)"/><rect x="651" y="279" width="31" height="31" transform="rotate(0,666.5,294.5)"/><path d="M 651 341v 31h 31a 31 31, 0, 0, 0, -31 -31" transform="rotate(-90,666.5,356.5)"/><path d="M 651 372v 31h 15.5a 15.5 15.5, 0, 0, 0, 0 -31" transform="rotate(90,666.5,387.5)"/><path d="M 651 434v 31h 15.5a 15.5 15.5, 0, 0, 0, 0 -31" transform="rotate(180,666.5,449.5)"/><path d="M 651 589v 31h 15.5a 15.5 15.5, 0, 0, 0, 0 -31" transform="rotate(-90,666.5,604.5)"/><rect x="651" y="620" width="31" height="31" transform="rotate(0,666.5,635.5)"/><rect x="651" y="651" width="31" height="31" transform="rotate(0,666.5,666.5)"/><path d="M 651 682v 31h 31a 31 31, 0, 0, 0, -31 -31" transform="rotate(180,666.5,697.5)"/><path d="M 651 806v 31h 31a 31 31, 0, 0, 0, -31 -31" transform="rotate(-90,666.5,821.5)"/><path d="M 651 837v 31h 31a 31 31, 0, 0, 0, -31 -31" transform="rotate(90,666.5,852.5)"/><circle cx="697.5" cy="77.5" r="15.5" transform="rotate(0,697.5,77.5)"/><path d="M 682 155v 31h 15.5a 15.5 15.5, 0, 0, 0, 0 -31" transform="rotate(0,697.5,170.5)"/><path d="M 682 217v 31h 15.5a 15.5 15.5, 0, 0, 0, 0 -31" transform="rotate(-90,697.5,232.5)"/><rect x="682" y="248" width="31" height="31" transform="rotate(0,697.5,263.5)"/><path d="M 682 279v 31h 31a 31 31, 0, 0, 0, -31 -31" transform="rotate(90,697.5,294.5)"/><rect x="682" y="341" width="31" height="31" transform="rotate(0,697.5,356.5)"/><path d="M 682 434v 31h 15.5a 15.5 15.5, 0, 0, 0, 0 -31" transform="rotate(0,697.5,449.5)"/><path d="M 682 496v 31h 31a 31 31, 0, 0, 0, -31 -31" transform="rotate(-90,697.5,511.5)"/><path d="M 682 527v 31h 15.5a 15.5 15.5, 0, 0, 0, 0 -31" transform="rotate(90,697.5,542.5)"/><path d="M 682 651v 31h 31a 31 31, 0, 0, 0, -31 -31" transform="rotate(0,697.5,666.5)"/><rect x="682" y="682" width="31" height="31" transform="rotate(0,697.5,697.5)"/><rect x="682" y="713" width="31" height="31" transform="rotate(0,697.5,728.5)"/><rect x="682" y="744" width="31" height="31" transform="rotate(0,697.5,759.5)"/><rect x="682" y="775" width="31" height="31" transform="rotate(0,697.5,790.5)"/><rect x="682" y="806" width="31" height="31" transform="rotate(0,697.5,821.5)"/><path d="M 682 868v 31h 15.5a 15.5 15.5, 0, 0, 0, 0 -31" transform="rotate(-90,697.5,883.5)"/><path d="M 682 899v 31h 31a 31 31, 0, 0, 0, -31 -31" transform="rotate(180,697.5,914.5)"/><path d="M 713 310v 31h 31a 31 31, 0, 0, 0, -31 -31" transform="rotate(-90,728.5,325.5)"/><rect x="713" y="341" width="31" height="31" transform="rotate(0,728.5,356.5)"/><path d="M 713 403v 31h 15.5a 15.5 15.5, 0, 0, 0, 0 -31" transform="rotate(180,728.5,418.5)"/><path d="M 713 465v 31h 15.5a 15.5 15.5, 0, 0, 0, 0 -31" transform="rotate(-90,728.5,480.5)"/><rect x="713" y="496" width="31" height="31" transform="rotate(0,728.5,511.5)"/><circle cx="728.5" cy="573.5" r="15.5" transform="rotate(0,728.5,573.5)"/><path d="M 713 620v 31h 15.5a 15.5 15.5, 0, 0, 0, 0 -31" transform="rotate(180,728.5,635.5)"/><rect x="713" y="682" width="31" height="31" transform="rotate(0,728.5,697.5)"/><rect x="713" y="806" width="31" height="31" transform="rotate(0,728.5,821.5)"/><path d="M 713 899v 31h 31a 31 31, 0, 0, 0, -31 -31" transform="rotate(0,728.5,914.5)"/><path d="M 713 930v 31h 15.5a 15.5 15.5, 0, 0, 0, 0 -31" transform="rotate(90,728.5,945.5)"/><rect x="744" y="310" width="31" height="31" transform="rotate(0,759.5,325.5)"/><rect x="744" y="341" width="31" height="31" transform="rotate(0,759.5,356.5)"/><rect x="744" y="372" width="31" height="31" transform="rotate(0,759.5,387.5)"/><rect x="744" y="403" width="31" height="31" transform="rotate(0,759.5,418.5)"/><path d="M 744 434v 31h 15.5a 15.5 15.5, 0, 0, 0, 0 -31" transform="rotate(90,759.5,449.5)"/><rect x="744" y="496" width="31" height="31" transform="rotate(0,759.5,511.5)"/><rect x="744" y="620" width="31" height="31" transform="rotate(0,759.5,635.5)"/><rect x="744" y="682" width="31" height="31" transform="rotate(0,759.5,697.5)"/><circle cx="759.5" cy="759.5" r="15.5" transform="rotate(0,759.5,759.5)"/><rect x="744" y="806" width="31" height="31" transform="rotate(0,759.5,821.5)"/><rect x="744" y="837" width="31" height="31" transform="rotate(0,759.5,852.5)"/><path d="M 744 868v 31h 31a 31 31, 0, 0, 0, -31 -31" transform="rotate(180,759.5,883.5)"/><path d="M 775 310v 31h 15.5a 15.5 15.5, 0, 0, 0, 0 -31" transform="rotate(0,790.5,325.5)"/><rect x="775" y="372" width="31" height="31" transform="rotate(0,790.5,387.5)"/><path d="M 775 403v 31h 31a 31 31, 0, 0, 0, -31 -31" transform="rotate(90,790.5,418.5)"/><path d="M 775 465v 31h 15.5a 15.5 15.5, 0, 0, 0, 0 -31" transform="rotate(-90,790.5,480.5)"/><path d="M 775 496v 31h 31a 31 31, 0, 0, 0, -31 -31" transform="rotate(90,790.5,511.5)"/><path d="M 775 558v 31h 15.5a 15.5 15.5, 0, 0, 0, 0 -31" transform="rotate(180,790.5,573.5)"/><rect x="775" y="620" width="31" height="31" transform="rotate(0,790.5,635.5)"/><rect x="775" y="682" width="31" height="31" transform="rotate(0,790.5,697.5)"/><rect x="775" y="806" width="31" height="31" transform="rotate(0,790.5,821.5)"/><path d="M 775 868v 31h 15.5a 15.5 15.5, 0, 0, 0, 0 -31" transform="rotate(0,790.5,883.5)"/><path d="M 806 372v 31h 15.5a 15.5 15.5, 0, 0, 0, 0 -31" transform="rotate(0,821.5,387.5)"/><circle cx="821.5" cy="449.5" r="15.5" transform="rotate(0,821.5,449.5)"/><rect x="806" y="558" width="31" height="31" transform="rotate(0,821.5,573.5)"/><rect x="806" y="589" width="31" height="31" transform="rotate(0,821.5,604.5)"/><rect x="806" y="620" width="31" height="31" transform="rotate(0,821.5,635.5)"/><rect x="806" y="682" width="31" height="31" transform="rotate(0,821.5,697.5)"/><rect x="806" y="713" width="31" height="31" transform="rotate(0,821.5,728.5)"/><rect x="806" y="744" width="31" height="31" transform="rotate(0,821.5,759.5)"/><rect x="806" y="775" width="31" height="31" transform="rotate(0,821.5,790.5)"/><rect x="806" y="806" width="31" height="31" transform="rotate(0,821.5,821.5)"/><path d="M 806 837v 31h 31a 31 31, 0, 0, 0, -31 -31" transform="rotate(180,821.5,852.5)"/><circle cx="852.5" cy="325.5" r="15.5" transform="rotate(0,852.5,325.5)"/><path d="M 837 465v 31h 15.5a 15.5 15.5, 0, 0, 0, 0 -31" transform="rotate(-90,852.5,480.5)"/><rect x="837" y="496" width="31" height="31" transform="rotate(0,852.5,511.5)"/><rect x="837" y="527" width="31" height="31" transform="rotate(0,852.5,542.5)"/><rect x="837" y="558" width="31" height="31" transform="rotate(0,852.5,573.5)"/><rect x="837" y="589" width="31" height="31" transform="rotate(0,852.5,604.5)"/><rect x="837" y="620" width="31" height="31" transform="rotate(0,852.5,635.5)"/><rect x="837" y="651" width="31" height="31" transform="rotate(0,852.5,666.5)"/><rect x="837" y="682" width="31" height="31" transform="rotate(0,852.5,697.5)"/><rect x="837" y="713" width="31" height="31" transform="rotate(0,852.5,728.5)"/><path d="M 837 744v 31h 31a 31 31, 0, 0, 0, -31 -31" transform="rotate(90,852.5,759.5)"/><rect x="837" y="806" width="31" height="31" transform="rotate(0,852.5,821.5)"/><rect x="837" y="837" width="31" height="31" transform="rotate(0,852.5,852.5)"/><path d="M 837 868v 31h 15.5a 15.5 15.5, 0, 0, 0, 0 -31" transform="rotate(90,852.5,883.5)"/><path d="M 837 930v 31h 15.5a 15.5 15.5, 0, 0, 0, 0 -31" transform="rotate(180,852.5,945.5)"/><path d="M 868 341v 31h 31a 31 31, 0, 0, 0, -31 -31" transform="rotate(-90,883.5,356.5)"/><path d="M 868 372v 31h 31a 31 31, 0, 0, 0, -31 -31" transform="rotate(180,883.5,387.5)"/><path d="M 868 434v 31h 15.5a 15.5 15.5, 0, 0, 0, 0 -31" transform="rotate(180,883.5,449.5)"/><path d="M 868 620v 31h 31a 31 31, 0, 0, 0, -31 -31" transform="rotate(0,883.5,635.5)"/><rect x="868" y="651" width="31" height="31" transform="rotate(0,883.5,666.5)"/><path d="M 868 682v 31h 31a 31 31, 0, 0, 0, -31 -31" transform="rotate(90,883.5,697.5)"/><path d="M 868 806v 31h 31a 31 31, 0, 0, 0, -31 -31" transform="rotate(0,883.5,821.5)"/><rect x="868" y="837" width="31" height="31" transform="rotate(0,883.5,852.5)"/><path d="M 868 930v 31h 15.5a 15.5 15.5, 0, 0, 0, 0 -31" transform="rotate(0,883.5,945.5)"/><path d="M 899 310v 31h 15.5a 15.5 15.5, 0, 0, 0, 0 -31" transform="rotate(-90,914.5,325.5)"/><rect x="899" y="341" width="31" height="31" transform="rotate(0,914.5,356.5)"/><rect x="899" y="372" width="31" height="31" transform="rotate(0,914.5,387.5)"/><rect x="899" y="403" width="31" height="31" transform="rotate(0,914.5,418.5)"/><path d="M 899 434v 31h 31a 31 31, 0, 0, 0, -31 -31" transform="rotate(90,914.5,449.5)"/><circle cx="914.5" cy="542.5" r="15.5" transform="rotate(0,914.5,542.5)"/><path d="M 899 589v 31h 15.5a 15.5 15.5, 0, 0, 0, 0 -31" transform="rotate(180,914.5,604.5)"/><circle cx="914.5" cy="790.5" r="15.5" transform="rotate(0,914.5,790.5)"/><rect x="899" y="837" width="31" height="31" transform="rotate(0,914.5,852.5)"/><path d="M 899 899v 31h 15.5a 15.5 15.5, 0, 0, 0, 0 -31" transform="rotate(180,914.5,914.5)"/><path d="M 930 341v 31h 31a 31 31, 0, 0, 0, -31 -31" transform="rotate(0,945.5,356.5)"/><rect x="930" y="372" width="31" height="31" transform="rotate(0,945.5,387.5)"/><path d="M 930 403v 31h 31a 31 31, 0, 0, 0, -31 -31" transform="rotate(90,945.5,418.5)"/><circle cx="945.5" cy="480.5" r="15.5" transform="rotate(0,945.5,480.5)"/><path d="M 930 589v 31h 15.5a 15.5 15.5, 0, 0, 0, 0 -31" transform="rotate(0,945.5,604.5)"/><circle cx="945.5" cy="697.5" r="15.5" transform="rotate(0,945.5,697.5)"/><circle cx="945.5" cy="759.5" r="15.5" transform="rotate(0,945.5,759.5)"/><path d="M 930 806v 31h 15.5a 15.5 15.5, 0, 0, 0, 0 -31" transform="rotate(-90,945.5,821.5)"/><path d="M 930 837v 31h 31a 31 31, 0, 0, 0, -31 -31" transform="rotate(90,945.5,852.5)"/><path d="M 930 899v 31h 15.5a 15.5 15.5, 0, 0, 0, 0 -31" transform="rotate(0,945.5,914.5)"/></clipPath><clipPath id="clip-path-corners-square-color-0-0"><path d="M 62 62v 31h 31a 31 31, 0, 0, 0, -31 -31" transform="rotate(-90,77.5,77.5)"/><rect x="62" y="93" width="31" height="31" transform="rotate(0,77.5,108.5)"/><rect x="62" y="124" width="31" height="31" transform="rotate(0,77.5,139.5)"/><rect x="62" y="155" width="31" height="31" transform="rotate(0,77.5,170.5)"/><rect x="62" y="186" width="31" height="31" transform="rotate(0,77.5,201.5)"/><rect x="62" y="217" width="31" height="31" transform="rotate(0,77.5,232.5)"/><path d="M 62 248v 31h 31a 31 31, 0, 0, 0, -31 -31" transform="rotate(180,77.5,263.5)"/><rect x="93" y="62" width="31" height="31" transform="rotate(0,108.5,77.5)"/><rect x="93" y="248" width="31" height="31" transform="rotate(0,108.5,263.5)"/><rect x="124" y="62" width="31" height="31" transform="rotate(0,139.5,77.5)"/><rect x="124" y="248" width="31" height="31" transform="rotate(0,139.5,263.5)"/><rect x="155" y="62" width="31" height="31" transform="rotate(0,170.5,77.5)"/><rect x="155" y="248" width="31" height="31" transform="rotate(0,170.5,263.5)"/><rect x="186" y="62" width="31" height="31" transform="rotate(0,201.5,77.5)"/><rect x="186" y="248" width="31" height="31" transform="rotate(0,201.5,263.5)"/><rect x="217" y="62" width="31" height="31" transform="rotate(0,232.5,77.5)"/><rect x="217" y="248" width="31" height="31" transform="rotate(0,232.5,263.5)"/><path d="M 248 62v 31h 31a 31 31, 0, 0, 0, -31 -31" transform="rotate(0,263.5,77.5)"/><rect x="248" y="93" width="31" height="31" transform="rotate(0,263.5,108.5)"/><rect x="248" y="124" width="31" height="31" transform="rotate(0,263.5,139.5)"/><rect x="248" y="155" width="31" height="31" transform="rotate(0,263.5,170.5)"/><rect x="248" y="186" width="31" height="31" transform="rotate(0,263.5,201.5)"/><rect x="248" y="217" width="31" height="31" transform="rotate(0,263.5,232.5)"/><path d="M 248 248v 31h 31a 31 31, 0, 0, 0, -31 -31" transform="rotate(90,263.5,263.5)"/></clipPath><clipPath id="clip-path-corners-dot-color-0-0"><path d="M 124 124v 31h 31a 31 31, 0, 0, 0, -31 -31" transform="rotate(-90,139.5,139.5)"/><rect x="124" y="155" width="31" height="31" transform="rotate(0,139.5,170.5)"/><path d="M 124 186v 31h 31a 31 31, 0, 0, 0, -31 -31" transform="rotate(180,139.5,201.5)"/><rect x="155" y="124" width="31" height="31" transform="rotate(0,170.5,139.5)"/><rect x="155" y="155" width="31" height="31" transform="rotate(0,170.5,170.5)"/><rect x="155" y="186" width="31" height="31" transform="rotate(0,170.5,201.5)"/><path d="M 186 124v 31h 31a 31 31, 0, 0, 0, -31 -31" transform="rotate(0,201.5,139.5)"/><rect x="186" y="155" width="31" height="31" transform="rotate(0,201.5,170.5)"/><path d="M 186 186v 31h 31a 31 31, 0, 0, 0, -31 -31" transform="rotate(90,201.5,201.5)"/></clipPath><clipPath id="clip-path-corners-square-color-1-0"><path d="M 744 62v 31h 31a 31 31, 0, 0, 0, -31 -31" transform="rotate(-90,759.5,77.5)"/><rect x="744" y="93" width="31" height="31" transform="rotate(0,759.5,108.5)"/><rect x="744" y="124" width="31" height="31" transform="rotate(0,759.5,139.5)"/><rect x="744" y="155" width="31" height="31" transform="rotate(0,759.5,170.5)"/><rect x="744" y="186" width="31" height="31" transform="rotate(0,759.5,201.5)"/><rect x="744" y="217" width="31" height="31" transform="rotate(0,759.5,232.5)"/><path d="M 744 248v 31h 31a 31 31, 0, 0, 0, -31 -31" transform="rotate(180,759.5,263.5)"/><rect x="775" y="62" width="31" height="31" transform="rotate(0,790.5,77.5)"/><rect x="775" y="248" width="31" height="31" transform="rotate(0,790.5,263.5)"/><rect x="806" y="62" width="31" height="31" transform="rotate(0,821.5,77.5)"/><rect x="806" y="248" width="31" height="31" transform="rotate(0,821.5,263.5)"/><rect x="837" y="62" width="31" height="31" transform="rotate(0,852.5,77.5)"/><rect x="837" y="248" width="31" height="31" transform="rotate(0,852.5,263.5)"/><rect x="868" y="62" width="31" height="31" transform="rotate(0,883.5,77.5)"/><rect x="868" y="248" width="31" height="31" transform="rotate(0,883.5,263.5)"/><rect x="899" y="62" width="31" height="31" transform="rotate(0,914.5,77.5)"/><rect x="899" y="248" width="31" height="31" transform="rotate(0,914.5,263.5)"/><path d="M 930 62v 31h 31a 31 31, 0, 0, 0, -31 -31" transform="rotate(0,945.5,77.5)"/><rect x="930" y="93" width="31" height="31" transform="rotate(0,945.5,108.5)"/><rect x="930" y="124" width="31" height="31" transform="rotate(0,945.5,139.5)"/><rect x="930" y="155" width="31" height="31" transform="rotate(0,945.5,170.5)"/><rect x="930" y="186" width="31" height="31" transform="rotate(0,945.5,201.5)"/><rect x="930" y="217" width="31" height="31" transform="rotate(0,945.5,232.5)"/><path d="M 930 248v 31h 31a 31 31, 0, 0, 0, -31 -31" transform="rotate(90,945.5,263.5)"/></clipPath><clipPath id="clip-path-corners-dot-color-1-0"><path d="M 806 124v 31h 31a 31 31, 0, 0, 0, -31 -31" transform="rotate(-90,821.5,139.5)"/><rect x="806" y="155" width="31" height="31" transform="rotate(0,821.5,170.5)"/><path d="M 806 186v 31h 31a 31 31, 0, 0, 0, -31 -31" transform="rotate(180,821.5,201.5)"/><rect x="837" y="124" width="31" height="31" transform="rotate(0,852.5,139.5)"/><rect x="837" y="155" width="31" height="31" transform="rotate(0,852.5,170.5)"/><rect x="837" y="186" width="31" height="31" transform="rotate(0,852.5,201.5)"/><path d="M 868 124v 31h 31a 31 31, 0, 0, 0, -31 -31" transform="rotate(0,883.5,139.5)"/><rect x="868" y="155" width="31" height="31" transform="rotate(0,883.5,170.5)"/><path d="M 868 186v 31h 31a 31 31, 0, 0, 0, -31 -31" transform="rotate(90,883.5,201.5)"/></clipPath><clipPath id="clip-path-corners-square-color-0-1"><path d="M 62 744v 31h 31a 31 31, 0, 0, 0, -31 -31" transform="rotate(-90,77.5,759.5)"/><rect x="62" y="775" width="31" height="31" transform="rotate(0,77.5,790.5)"/><rect x="62" y="806" width="31" height="31" transform="rotate(0,77.5,821.5)"/><rect x="62" y="837" width="31" height="31" transform="rotate(0,77.5,852.5)"/><rect x="62" y="868" width="31" height="31" transform="rotate(0,77.5,883.5)"/><rect x="62" y="899" width="31" height="31" transform="rotate(0,77.5,914.5)"/><path d="M 62 930v 31h 31a 31 31, 0, 0, 0, -31 -31" transform="rotate(180,77.5,945.5)"/><rect x="93" y="744" width="31" height="31" transform="rotate(0,108.5,759.5)"/><rect x="93" y="930" width="31" height="31" transform="rotate(0,108.5,945.5)"/><rect x="124" y="744" width="31" height="31" transform="rotate(0,139.5,759.5)"/><rect x="124" y="930" width="31" height="31" transform="rotate(0,139.5,945.5)"/><rect x="155" y="744" width="31" height="31" transform="rotate(0,170.5,759.5)"/><rect x="155" y="930" width="31" height="31" transform="rotate(0,170.5,945.5)"/><rect x="186" y="744" width="31" height="31" transform="rotate(0,201.5,759.5)"/><rect x="186" y="930" width="31" height="31" transform="rotate(0,201.5,945.5)"/><rect x="217" y="744" width="31" height="31" transform="rotate(0,232.5,759.5)"/><rect x="217" y="930" width="31" height="31" transform="rotate(0,232.5,945.5)"/><path d="M 248 744v 31h 31a 31 31, 0, 0, 0, -31 -31" transform="rotate(0,263.5,759.5)"/><rect x="248" y="775" width="31" height="31" transform="rotate(0,263.5,790.5)"/><rect x="248" y="806" width="31" height="31" transform="rotate(0,263.5,821.5)"/><rect x="248" y="837" width="31" height="31" transform="rotate(0,263.5,852.5)"/><rect x="248" y="868" width="31" height="31" transform="rotate(0,263.5,883.5)"/><rect x="248" y="899" width="31" height="31" transform="rotate(0,263.5,914.5)"/><path d="M 248 930v 31h 31a 31 31, 0, 0, 0, -31 -31" transform="rotate(90,263.5,945.5)"/></clipPath><clipPath id="clip-path-corners-dot-color-0-1"><path d="M 124 806v 31h 31a 31 31, 0, 0, 0, -31 -31" transform="rotate(-90,139.5,821.5)"/><rect x="124" y="837" width="31" height="31" transform="rotate(0,139.5,852.5)"/><path d="M 124 868v 31h 31a 31 31, 0, 0, 0, -31 -31" transform="rotate(180,139.5,883.5)"/><rect x="155" y="806" width="31" height="31" transform="rotate(0,170.5,821.5)"/><rect x="155" y="837" width="31" height="31" transform="rotate(0,170.5,852.5)"/><rect x="155" y="868" width="31" height="31" transform="rotate(0,170.5,883.5)"/><path d="M 186 806v 31h 31a 31 31, 0, 0, 0, -31 -31" transform="rotate(0,201.5,821.5)"/><rect x="186" y="837" width="31" height="31" transform="rotate(0,201.5,852.5)"/><path d="M 186 868v 31h 31a 31 31, 0, 0, 0, -31 -31" transform="rotate(90,201.5,883.5)"/></clipPath></defs><rect x="0" y="0" height="1024" width="1024" clip-path="url('#clip-path-background-color')" fill="#ffffff"/><rect x="62" y="62" height="899" width="899" clip-path="url('#clip-path-dot-color')" fill="#000000"/><rect x="62" y="62" height="217" width="217" clip-path="url('#clip-path-corners-square-color-0-0')" fill="#000000"/><rect x="124" y="124" height="93" width="93" clip-path="url('#clip-path-corners-dot-color-0-0')" fill="#000000"/><rect x="744" y="62" height="217" width="217" clip-path="url('#clip-path-corners-square-color-1-0')" fill="#000000"/><rect x="806" y="124" height="93" width="93" clip-path="url('#clip-path-corners-dot-color-1-0')" fill="#000000"/><rect x="62" y="744" height="217" width="217" clip-path="url('#clip-path-corners-square-color-0-1')" fill="#000000"/><rect x="124" y="806" height="93" width="93" clip-path="url('#clip-path-corners-dot-color-0-1')" fill="#000000"/></svg>